<?xml version="1.0" encoding="utf-8"?>
<!-- Generator: Adobe Illustrator 16.0.0, SVG Export Plug-In . SVG Version: 6.00 Build 0)  -->
<!DOCTYPE svg PUBLIC "-//W3C//DTD SVG 1.1//EN" "http://www.w3.org/Graphics/SVG/1.1/DTD/svg11.dtd">
<svg version="1.1" id="Layer_1" xmlns="http://www.w3.org/2000/svg" xmlns:xlink="http://www.w3.org/1999/xlink" x="0px" y="0px"
	 width="160px" height="160px" viewBox="0 0 160 160" enable-background="new 0 0 160 160" xml:space="preserve">
<rect fill="#FFFFFF" width="160" height="160"/>
<g>
	<g>
		
			<rect x="32.8" y="44.1" transform="matrix(-0.5993 -0.8005 0.8005 -0.5993 18.3203 105.7326)" fill="#60257F" width="5.6" height="8.4"/>
		
			<rect x="46.3" y="34" transform="matrix(-0.5996 -0.8003 0.8003 -0.5996 47.9881 100.3768)" fill="#60257F" width="5.6" height="8.4"/>
		<polygon fill="#60257F" points="114,36.5 106.9,35.1 107.9,29.6 115,30.9 		"/>
		
			<rect x="90.7" y="27.4" transform="matrix(-0.9858 -0.168 0.168 -0.9858 183.4801 75.9892)" fill="#60257F" width="8.4" height="5.6"/>
		
			<rect x="74.1" y="24.6" transform="matrix(-0.9858 -0.1679 0.1679 -0.9858 150.9815 67.5654)" fill="#60257F" width="8.4" height="5.6"/>
		
			<rect x="54.2" y="114.9" transform="matrix(-0.4895 -0.872 0.872 -0.4895 -15.7106 226.2045)" fill="#60257F" width="8.4" height="5.6"/>
		
			<rect x="45.9" y="100.2" transform="matrix(-0.4895 -0.872 0.872 -0.4895 -15.1822 197.1339)" fill="#60257F" width="8.4" height="5.6"/>
		
			<rect x="87.1" y="125.1" transform="matrix(-0.47 -0.8827 0.8827 -0.47 18.0481 269.5096)" fill="#60257F" width="5.6" height="8.4"/>
		
			<rect x="102" y="117.2" transform="matrix(-0.4699 -0.8827 0.8827 -0.4699 46.8646 271.0075)" fill="#60257F" width="5.6" height="8.4"/>
		
			<rect x="116.9" y="109.3" transform="matrix(-0.4697 -0.8828 0.8828 -0.4697 75.6815 272.4897)" fill="#60257F" width="5.6" height="8.4"/>
		<path fill="#60257F" d="M122.3,44.6L122.3,44.6l-1,0c-3.7,0-8.7-3.3-8.7-8.8c0-6,3.5-10.1,8.7-10.1c6.2,0,10.1,4.5,10.1,8.8
			c0,3.9-1.1,6.7-3.3,8.4C126.1,44.4,123.8,44.6,122.3,44.6z M121.3,31.3c-2.7,0-3.1,2.8-3.1,4.5c0,2.2,2.5,3.1,3.1,3.1l1,0l0,0
			c0.8,0,1.7-0.1,2.3-0.5c0.7-0.6,1.1-2,1.1-4C125.7,33.4,124.4,31.3,121.3,31.3z"/>
		<path fill="#60257F" d="M138,110.6L138,110.6l-1,0c-3.7,0-8.8-3.3-8.8-8.8c0-6,3.5-10.1,8.8-10.1c6.2,0,10.1,4.5,10.1,8.7
			c0,3.9-1.1,6.7-3.3,8.4C141.7,110.4,139.5,110.6,138,110.6z M137,97.3c-2.7,0-3.1,2.8-3.1,4.5c0,2.2,2.5,3.1,3.1,3.1l1,0l0,0
			c0.8,0,1.7-0.1,2.3-0.5c0.7-0.6,1.1-2,1.1-4C141.4,99.4,140.1,97.3,137,97.3z"/>
		<path fill="#60257F" d="M115.7,152.9L115.7,152.9l-1,0c-3.7,0-8.8-3.3-8.8-8.7c0-6,3.5-10.1,8.8-10.1c6.2,0,10.1,4.5,10.1,8.8
			c0,3.9-1.1,6.7-3.3,8.4C119.5,152.7,117.2,152.9,115.7,152.9z M114.7,139.6c-2.7,0-3.1,2.8-3.1,4.5c0,2.2,2.5,3.1,3.1,3.1l1,0l0,0
			c0.8,0,1.7-0.1,2.3-0.5c0.7-0.6,1.1-2,1.1-4C119.1,141.7,117.8,139.6,114.7,139.6z"/>
		<path fill="#60257F" d="M71.4,148.7L71.4,148.7l-1,0c-3.7,0-8.7-3.3-8.7-8.7c0-6,3.5-10.1,8.7-10.1c6.2,0,10.1,4.5,10.1,8.8
			c0,3.9-1.1,6.7-3.3,8.4C75.1,148.5,72.9,148.7,71.4,148.7z M70.3,135.4c-2.6,0-3.1,2.4-3.1,4.5c0,2.2,2.5,3.1,3.1,3.1l1,0l0,0
			c0.8,0,1.7-0.1,2.3-0.5c0.7-0.6,1.1-2,1.1-4C74.8,137.5,73.5,135.4,70.3,135.4z"/>
		<path fill="#60257F" d="M36.6,138L36.6,138l-1,0c-3.7,0-8.8-3.3-8.8-8.7c0-6,3.5-10.1,8.8-10.1c6.2,0,10.1,4.5,10.1,8.8
			c0,3.9-1.1,6.7-3.3,8.4C40.3,137.8,38.1,138,36.6,138z M35.5,124.8c-2.7,0-3.1,2.8-3.1,4.5c0,2.2,2.5,3.1,3.1,3.1l1,0l0,0
			c0.8,0,1.7-0.1,2.3-0.5c0.7-0.6,1.1-2,1.1-4C40,126.9,38.6,124.8,35.5,124.8z"/>
		<path fill="#60257F" d="M44.4,103L44.4,103l-1,0c-3.7,0-8.8-3.3-8.8-8.7c0-6,3.5-10.1,8.8-10.1c6.2,0,10.1,4.5,10.1,8.8
			c0,3.9-1.1,6.7-3.3,8.4C48.2,102.8,45.9,103,44.4,103z M43.4,89.8c-2.7,0-3.1,2.8-3.1,4.5c0,2.2,2.5,3.1,3.1,3.1l1,0l0,0
			c0.8,0,1.7-0.1,2.3-0.5c0.7-0.6,1.1-2,1.1-4C47.8,91.9,46.5,89.8,43.4,89.8z"/>
		<path fill="#60257F" d="M25.3,59.5l1.9-1.4l-3.4-4.5l-2.1,1.5C23.8,56.1,25,57.9,25.3,59.5z"/>
		<path fill="#60257F" d="M19.1,70.3L19.1,70.3l-1,0c-3.7,0-8.8-3.3-8.8-8.8c0-6,3.5-10.1,8.7-10.1c6.2,0,10.1,4.5,10.1,8.8
			c0,3.9-1.1,6.7-3.3,8.4C22.9,70.1,20.6,70.3,19.1,70.3z M18.1,57.1c-2.7,0-3.1,2.8-3.1,4.5c0,2.2,2.5,3.1,3.1,3.1l1,0l0,0
			c0.8,0,1.7-0.1,2.3-0.5c0.7-0.6,1.1-2,1.1-4C22.6,59.2,21.2,57.1,18.1,57.1z"/>
		<path fill="#60257F" d="M62.8,26c0-0.6,0-1.1,0.1-1.6l-5.3,4l3.4,4.5l3.7-2.8C63.5,29.1,62.8,27.8,62.8,26z"/>
		<path fill="#60257F" d="M69.7,34.8L69.7,34.8l-1,0C65,34.7,60,31.4,60,26c0-6,3.5-10.1,8.7-10.1c6.2,0,10.1,4.5,10.1,8.8
			c0,3.9-1.1,6.7-3.3,8.4C73.5,34.6,71.2,34.8,69.7,34.8z M68.7,21.5c-2.7,0-3.1,2.8-3.1,4.5c0,2.2,2.5,3.1,3.1,3.1l1,0l0,0
			c0.8,0,1.7-0.1,2.3-0.5c0.7-0.6,1.1-2,1.1-4C73.2,23.6,71.8,21.5,68.7,21.5z"/>
		<path fill="#60257F" d="M35.5,122c1.9,0,3.4,0.5,4.6,1.4l4.6-23.1c-0.5,0-1,0-1.4,0c-1.1,0-2.7-0.6-4-1.8l-4.7,23.6
			C34.9,122,35.2,122,35.5,122z"/>
		<path fill="#60257F" d="M70,132.7l-3-5.3l-4.9,2.8l3.2,5.6C66.2,134,67.7,132.8,70,132.7z"/>
		<path fill="#60257F" d="M64.5,141.1c-0.1-0.4-0.1-0.8-0.1-1.2c0-1.7,0.4-3.2,1-4.4l-22.7-7.7c0,0,0,0.1,0,0.1
			c0,2.6-0.6,4.3-1.4,5.3L64.5,141.1z"/>
		<path fill="#60257F" d="M77.6,138.6c0,0.2,0,0.3,0,0.5l2.5-1.3l-2.6-5l-2.4,1.3C76.7,135.3,77.6,137,77.6,138.6z"/>
		<path fill="#60257F" d="M131.5,104l-16,32.9c2.2,0.2,4,1.2,5,2.5l15.4-31.7C134.4,107.2,132.4,106,131.5,104z"/>
		<path fill="#60257F" d="M70.7,29.9L65.1,31l4.2,21.5c2.3,0.1,4.3,0.6,6,1.4L70.7,29.9z"/>
		<path fill="#60257F" d="M48.7,88.9c1.3,1.2,2,2.7,2,4c0,0.5,0,0.9-0.1,1.3L62.1,89c-1.1-1.4-2.3-3-3.4-4.6L48.7,88.9z"/>
		<path fill="#60257F" d="M53,67.1l-27.7-5c-0.5,3.6-2.3,4.8-4.1,5.2l17.1,23.2c0.8-1.9,2.3-3.1,4.5-3.3L28.9,68.5l24.6,4.4
			c-0.4-1.6-0.6-3.3-0.6-5C52.9,67.6,53,67.4,53,67.1z"/>
		<path fill="#60257F" d="M69.1,132.8c0.4-0.1,0.8-0.1,1.3-0.1c1.7,0,3.1,0.5,4.3,1.1l3.6-31.1c-1.3-0.2-2.8-0.8-5.3-2.9L69.1,132.8
			z"/>
		<path fill="#60257F" d="M109.7,139.8c0.9-1.7,2.5-2.9,4.8-2.9l-25.8-40c-1.4,1.3-2.9,2.6-4.4,3.6L109.7,139.8z"/>
		<polygon fill="#60257F" points="79.3,92.7 79.4,92.1 79.1,92.3 		"/>
		<path fill="#60257F" d="M127,40.1c-1.6,1.9-3.9,1.8-5.3,1.8L133.6,93L102,79.4c-0.8,1.7-1.8,3.4-2.8,4.9l32.4,14
			c0.8-2.2,2.6-3.8,5.3-3.8c1.1,0,2,0.2,2.9,0.5L127,40.1z"/>
		<path fill="#60257F" d="M102.3,59.5l17.3-17.9c-1.6-0.6-3.4-1.9-4-3.9L98.5,55.4C100,56.5,101.3,57.9,102.3,59.5z"/>
	</g>
	<path fill="#31A7DD" d="M89.4,57.4c-8.8,0-10.5,7.7-10.5,7.7s-1.4-7.7-10.5-7.7c-5.8,0-10.5,4.7-10.5,10.5
		c0,13.7,19.2,29.9,21.1,29.9c2.6,0,21.1-16.3,21.1-29.9C100,62.1,95.2,57.4,89.4,57.4z"/>
</g>
</svg>
