<?xml version="1.0" encoding="utf-8"?>
<!-- Generator: Adobe Illustrator 16.0.0, SVG Export Plug-In . SVG Version: 6.00 Build 0)  -->
<!DOCTYPE svg PUBLIC "-//W3C//DTD SVG 1.1//EN" "http://www.w3.org/Graphics/SVG/1.1/DTD/svg11.dtd">
<svg version="1.1" id="Layer_1" xmlns="http://www.w3.org/2000/svg" xmlns:xlink="http://www.w3.org/1999/xlink" x="0px" y="0px"
	 width="482.223px" height="595.281px" viewBox="0 0 482.223 595.281" enable-background="new 0 0 482.223 595.281"
	 xml:space="preserve">
<g>
	<g>
		<g>
			<g>
				<polygon points="97.875,96.621 109.669,112.361 86.036,130.051 74.242,114.311 				"/>
				<polygon points="145.095,61.288 156.888,77.027 133.255,94.671 121.509,78.931 				"/>
				<polygon points="366.659,72.013 341.773,67.277 345.07,47.87 369.956,52.605 				"/>
				<polygon points="286.892,37.933 316.004,42.901 312.661,62.309 283.595,57.342 				"/>
				<polygon points="228.715,28.044 257.827,33.011 254.531,52.373 225.419,47.405 				"/>
				<polygon points="172.953,338.847 187.393,364.569 170.259,374.18 155.821,348.459 				"/>
				
					<rect x="128.012" y="295.242" transform="matrix(-0.4895 -0.872 0.872 -0.4895 -53.4051 578.9042)" width="29.483" height="19.686"/>
				<polygon points="290.607,381.656 299.845,399.02 273.799,412.857 264.559,395.538 				"/>
				
					<rect x="324.439" y="354.841" transform="matrix(-0.4699 -0.8827 0.8827 -0.4699 165.1376 838.3313)" width="19.686" height="29.483"/>
				<polygon points="394.796,326.219 404.035,343.584 377.989,357.467 368.748,340.1 				"/>
				<path d="M395.585,100.289L395.585,100.289l-3.621-0.046c-12.814,0-30.645-11.654-30.645-30.645
					c0-21.079,12.305-35.286,30.645-35.286c21.775,0,35.286,15.925,35.286,30.644c0,13.604-3.946,23.54-11.7,29.483
					C408.772,99.685,400.925,100.289,395.585,100.289z M392.009,53.952c-9.563,0-10.957,9.797-10.957,15.602
					c0,7.567,8.729,10.957,10.957,10.957l3.622,0.047l0,0c2.646,0,5.942-0.187,8.032-1.812c2.554-1.95,3.993-6.872,3.993-13.883
					C407.611,61.241,402.875,53.952,392.009,53.952z"/>
				<path d="M450.511,331.511L450.511,331.511l-3.575-0.047c-12.813,0-30.644-11.654-30.644-30.645
					c0-21.126,12.304-35.287,30.644-35.287c21.776,0,35.287,15.926,35.287,30.645c0,13.604-3.945,23.54-11.699,29.482
					C463.698,330.908,455.851,331.511,450.511,331.511z M446.936,285.174c-9.563,0-10.956,9.798-10.956,15.602
					c0,7.568,8.729,10.958,10.956,10.958l3.575,0.046l0,0c2.646,0,5.943-0.186,8.032-1.811c2.554-1.95,3.993-6.872,3.993-13.884
					C462.537,292.464,457.801,285.174,446.936,285.174z"/>
				<path d="M372.463,479.623L372.463,479.623l-3.621-0.046c-12.814,0-30.645-11.653-30.645-30.644
					c0-21.126,12.304-35.287,30.645-35.287c21.775,0,35.286,15.926,35.286,30.644c0,13.604-3.946,23.54-11.7,29.483
					C385.602,479.019,377.756,479.623,372.463,479.623z M368.842,433.334c-9.564,0-10.958,9.796-10.958,15.601
					c0,7.567,8.729,10.957,10.958,10.957l3.621,0.047l0,0c2.646,0,5.943-0.187,8.032-1.812c2.554-1.95,3.993-6.918,3.993-13.884
					C384.489,440.576,379.752,433.334,368.842,433.334z"/>
				<path d="M217.2,464.951L217.2,464.951l-3.574-0.046c-12.814,0-30.645-11.653-30.645-30.644
					c0-21.126,12.305-35.287,30.645-35.287c21.775,0,35.286,15.925,35.286,30.644c0,13.604-3.946,23.54-11.7,29.483
					C230.34,464.347,222.493,464.951,217.2,464.951z M213.579,418.661c-9.054,0-11.004,8.496-11.004,15.601
					c0,7.567,8.729,10.958,11.004,10.958l3.575,0.046l0,0c2.646,0,5.942-0.187,8.032-1.812c2.554-1.949,3.992-6.87,3.992-13.883
					C229.179,425.903,224.49,418.661,213.579,418.661z"/>
				<path d="M95.276,427.575L95.276,427.575l-3.575-0.046c-12.813,0-30.644-11.653-30.644-30.645
					c0-21.125,12.304-35.287,30.644-35.287c21.775,0,35.287,15.926,35.287,30.645c0,13.604-3.946,23.54-11.7,29.482
					C108.415,426.971,100.569,427.575,95.276,427.575z M91.655,381.284c-9.565,0-11.005,9.797-11.005,15.602
					c0,7.567,8.729,10.958,11.005,10.958l3.574,0.046l0,0c2.646,0,5.942-0.187,8.033-1.765c2.554-1.949,3.991-6.919,3.991-13.883
					C107.254,388.574,102.565,381.284,91.655,381.284z"/>
				<path d="M122.716,305.093L122.716,305.093l-3.574-0.047c-12.814,0-30.646-11.653-30.646-30.644
					c0-21.126,12.305-35.287,30.646-35.287c21.774,0,35.287,15.926,35.287,30.644c0,13.604-3.947,23.54-11.654,29.483
					C135.856,304.442,128.009,305.093,122.716,305.093z M119.141,258.755c-9.564,0-11.004,9.798-11.004,15.602
					c0,7.567,8.729,10.958,11.004,10.958l3.574,0.046l0,0c2.646,0,5.942-0.187,8.032-1.812c2.555-1.949,3.993-6.871,3.993-13.883
					C134.741,266.045,130.005,258.755,119.141,258.755z"/>
				<path d="M55.764,152.755l6.686-5.014l-11.793-15.74l-7.197,5.387C50.517,140.916,54.788,146.998,55.764,152.755z"/>
				<path d="M34.22,190.55L34.22,190.55l-3.575-0.047C17.83,190.503,0,178.849,0,159.859c0-21.079,12.305-35.287,30.645-35.287
					c21.774,0,35.287,15.926,35.287,30.644c0,13.604-3.946,23.54-11.7,29.483C47.36,189.946,39.513,190.55,34.22,190.55z
					 M30.599,144.259c-9.565,0-11.004,9.798-11.004,15.602c0,7.567,8.729,11.004,11.004,11.004l3.574,0.046l0,0
					c2.646,0,5.942-0.186,8.032-1.811c2.554-1.95,3.993-6.871,3.993-13.884C46.199,151.502,41.51,144.259,30.599,144.259z"/>
				<path d="M187.022,35.287c0-1.95,0.139-3.854,0.418-5.711l-18.712,14.021l11.794,15.739l12.907-9.656
					C189.761,46.245,187.022,41.462,187.022,35.287z"/>
				<path d="M211.444,65.977L211.444,65.977l-3.575-0.047c-12.813,0-30.644-11.653-30.644-30.645
					C177.225,14.161,189.529,0,207.868,0c21.774,0,35.287,15.927,35.287,30.646c0,13.604-3.947,23.54-11.7,29.481
					C224.583,65.374,216.737,65.977,211.444,65.977z M207.823,19.686c-9.564,0-11.004,9.797-11.004,15.601
					c0,7.568,8.729,10.958,11.004,10.958l3.575,0.046l0,0c2.646,0,5.941-0.186,8.031-1.811c2.554-1.95,3.992-6.872,3.992-13.883
					C223.422,26.929,218.733,19.686,207.823,19.686z"/>
				<path d="M91.655,371.441c6.546,0,11.839,1.903,15.972,4.782l16.204-81.021c-1.856,0.046-3.481-0.047-4.735-0.047
					c-3.762,0-9.564-2.043-14.068-6.129l-16.575,82.739C89.518,371.628,90.539,371.441,91.655,371.441z"/>
				<path d="M212.325,408.91l-10.446-18.617l-17.133,9.61l11.097,19.779C198.907,413.462,204.386,409.328,212.325,408.91z"/>
				<path d="M193.243,438.346c-0.279-1.3-0.465-2.646-0.465-4.086c0-5.896,1.254-11.282,3.668-15.601l-79.396-26.837
					c0,0.14,0.048,0.278,0.048,0.464c0,9.102-1.997,14.904-4.923,18.665L193.243,438.346z"/>
				<path d="M239.023,429.618c0,0.65-0.047,1.207-0.094,1.857l8.822-4.689l-9.24-17.364l-8.496,4.551
					C235.82,418.15,239.023,424.278,239.023,429.618z"/>
				<path d="M427.76,308.528l-56.086,115.239c7.848,0.697,13.883,4.133,17.689,8.637l54.091-111.2
					C437.975,319.857,430.872,315.633,427.76,308.528z"/>
				<path d="M214.694,49.123l-19.314,3.762l14.766,75.264c8.077,0.418,15.043,2.136,20.985,4.734L214.694,49.123z"/>
				<path d="M137.713,255.737c4.457,4.086,6.825,9.332,6.825,14.021c0,1.625-0.093,3.111-0.187,4.552l40.255-18.34
					c-3.992-4.97-8.032-10.447-11.793-16.252L137.713,255.737z"/>
				<path d="M152.709,179.22l-97.131-17.458c-1.672,12.583-8.126,16.854-14.439,18.246l59.756,81.113
					c2.832-6.5,8.079-10.911,15.833-11.7l-48.148-65.326l86.081,15.461c-1.346-5.758-2.089-11.607-2.089-17.411
					C152.571,181.171,152.663,180.195,152.709,179.22z"/>
				<path d="M209.075,409.282c1.395-0.278,2.879-0.465,4.504-0.465c5.943,0,10.911,1.579,14.904,3.993l12.582-108.925
					c-4.457-0.559-9.657-2.973-18.665-10.029L209.075,409.282z"/>
				<path d="M351.476,433.75c3.25-6.081,8.775-10.027,16.809-10.214l-90.4-140.173c-4.782,4.504-10.028,8.961-15.274,12.629
					L351.476,433.75z"/>
				<polygon points="245.106,268.877 245.337,266.927 244.27,267.577 				"/>
				<path d="M412.16,84.735c-5.432,6.593-13.789,6.454-18.711,6.36l41.787,178.987l-110.875-47.729
					c-2.879,5.989-6.129,11.793-9.657,17.271l113.567,48.938c2.972-7.801,9.055-13.141,18.664-13.141
					c3.762,0,7.15,0.696,10.168,1.765L412.16,84.735z"/>
				<path d="M325.661,152.569l60.452-62.728c-5.525-2.043-11.747-6.64-14.021-13.836l-60.034,62.355
					C317.397,142.216,322.04,147.044,325.661,152.569z"/>
			</g>
		</g>
		<path d="M280.391,145.28c-30.735,0-36.864,27.022-36.864,27.022s-4.922-27.022-36.865-27.022
			c-20.383,0-36.865,16.529-36.865,36.865c0,48.147,67.185,104.7,73.73,104.7c9.008,0,73.776-57.155,73.776-104.7
			C317.303,161.762,300.775,145.28,280.391,145.28z"/>
	</g>
</g>
<g>
	<path d="M88.45,555.025c0,14.022-9.89,23.634-24.236,23.634c-14.439,0-24.328-9.61-24.328-23.634
		c0-14.114,9.889-23.633,24.328-23.633C78.561,531.392,88.45,540.911,88.45,555.025z M49.96,555.119
		c0,9.008,5.851,15.137,14.254,15.137c8.312,0,14.161-6.129,14.161-15.137c0-8.915-5.851-15.044-14.161-15.044
		C55.81,540.029,49.96,546.158,49.96,555.119z"/>
	<path d="M148.02,555.165c0,13.93-8.774,23.447-22.055,23.447c-7.429,0-13.047-2.972-16.481-8.403v25.025H99.407v-63.562h10.076
		v8.077c3.436-5.432,9.007-8.402,16.297-8.402C139.013,531.392,148.02,541.005,148.02,555.165z M137.852,554.841
		c0-8.683-5.851-15.043-14.161-15.043c-8.312,0-14.161,6.313-14.161,15.043c0,9.008,5.851,15.229,14.161,15.229
		C132.002,570.069,137.852,563.756,137.852,554.841z"/>
	<path d="M199.511,558.881h-35.193c1.578,7.195,7.104,11.652,14.438,11.652c5.062,0,9.704-1.902,13.141-5.432l5.34,5.711
		c-4.551,4.968-11.19,7.893-19.27,7.893c-14.348,0-23.818-9.518-23.818-23.539c0-14.114,9.704-23.634,23.54-23.727
		C194.079,531.392,200.717,542.072,199.511,558.881z M190.736,551.497c-0.371-7.521-5.339-12.07-12.954-12.07
		c-7.336,0-12.536,4.643-13.65,12.07H190.736z"/>
	<path d="M254.577,549.315v28.972h-10.075V552.1c0-7.011-4.226-11.282-11.189-11.282c-7.707,0.093-12.536,5.434-13.232,12.676
		v24.793h-10.076v-46.568h10.075v8.915c3.343-6.5,9.286-9.286,17.18-9.286C248.076,531.392,254.577,538.219,254.577,549.315z"/>
	<path d="M306.44,539.009l-5.525,6.5c-3.25-3.344-7.707-5.341-13.325-5.247c-8.079,0-13.837,6.036-13.837,14.857
		c0,8.868,5.758,14.903,13.837,14.903c5.851,0,10.586-1.95,13.743-5.618l5.618,5.618c-4.179,5.525-10.958,8.683-19.779,8.683
		c-13.836,0-23.447-9.518-23.447-23.54c0-14.113,9.611-23.726,23.447-23.726C295.574,531.392,302.121,534.087,306.44,539.009z"/>
	<path d="M343.445,572.623c-3.344,4.133-8.684,6.13-15.415,6.13c-10.075,0-16.391-6.223-16.391-14.44
		c0-8.496,6.407-13.929,17.598-14.021h14.114v-1.393c0-5.851-3.762-9.379-11.144-9.379c-4.457,0-9.101,1.578-13.743,4.735
		l-4.133-7.012c6.501-3.854,11.19-5.851,20.059-5.851c11.979,0,18.759,6.129,18.805,16.391l0.093,30.551h-9.89v-5.711H343.445z
		 M343.398,561.944v-4.271h-12.582c-6.548,0-9.611,1.764-9.611,6.222c0,4.179,3.436,6.918,9.008,6.918
		C337.316,570.765,342.841,567.006,343.398,561.944z"/>
	<path d="M376.92,541.005c3.157-6.314,8.775-9.611,16.111-9.611v9.611c-9.379-0.512-15.322,4.968-16.111,12.954v24.328h-10.076
		v-46.568h10.075L376.92,541.005L376.92,541.005z"/>
	<path d="M442.34,558.881h-35.192c1.577,7.195,7.104,11.652,14.438,11.652c5.062,0,9.704-1.902,13.141-5.432l5.34,5.711
		c-4.552,4.968-11.19,7.893-19.27,7.893c-14.348,0-23.818-9.518-23.818-23.539c0-14.114,9.703-23.634,23.54-23.727
		C436.908,531.392,443.547,542.072,442.34,558.881z M433.565,551.497c-0.371-7.521-5.34-12.07-12.953-12.07
		c-7.336,0-12.537,4.643-13.651,12.07H433.565z"/>
</g>
</svg>
