<?xml version="1.0" encoding="utf-8"?>
<!-- Generator: Adobe Illustrator 16.0.0, SVG Export Plug-In . SVG Version: 6.00 Build 0)  -->
<!DOCTYPE svg PUBLIC "-//W3C//DTD SVG 1.1//EN" "http://www.w3.org/Graphics/SVG/1.1/DTD/svg11.dtd">
<svg version="1.1" id="Layer_1" xmlns="http://www.w3.org/2000/svg" xmlns:xlink="http://www.w3.org/1999/xlink" x="0px" y="0px"
	 width="598.494px" height="595.281px" viewBox="0 0 598.494 595.281" enable-background="new 0 0 598.494 595.281"
	 xml:space="preserve">
<g>
	<g>
		<polygon fill="#1D1D1B" points="121.547,119.94 136.18,139.452 106.856,161.431 92.221,141.862 		"/>
		<polygon fill="#1D1D1B" points="180.139,76.039 194.774,95.551 165.449,117.53 150.815,97.961 		"/>
		<polygon fill="#1D1D1B" points="455.084,89.352 424.209,83.499 428.284,59.396 459.215,65.307 		"/>
		<polygon fill="#1D1D1B" points="356.147,47.115 392.244,53.256 388.112,77.302 352.015,71.161 		"/>
		<polygon fill="#1D1D1B" points="283.954,34.777 319.993,40.918 315.918,65.02 279.822,58.88 		"/>
		<polygon fill="#1D1D1B" points="214.745,420.536 232.65,452.443 211.359,464.381 193.454,432.472 		"/>
		
			<rect x="158.864" y="366.414" transform="matrix(-0.4895 -0.872 0.872 -0.4895 -66.2513 718.4319)" fill="#1D1D1B" width="36.612" height="24.389"/>
		<polygon fill="#1D1D1B" points="360.738,473.677 372.215,495.197 339.907,512.413 328.429,490.892 		"/>
		
			<rect x="402.78" y="440.362" transform="matrix(-0.4698 -0.8828 0.8828 -0.4698 205.0163 1040.4768)" fill="#1D1D1B" width="24.39" height="36.615"/>
		<polygon fill="#1D1D1B" points="490.032,404.869 501.509,426.447 469.143,443.605 457.723,422.086 		"/>
		<path fill="#1D1D1B" d="M491.008,124.473L491.008,124.473l-4.477-0.059c-15.896,0-38.048-14.461-38.048-38.048
			c0-26.168,15.265-43.786,38.048-43.786c27.029,0,43.786,19.741,43.786,38.048c0,16.872-4.878,29.21-14.52,36.557
			C507.363,123.727,497.607,124.473,491.008,124.473z M486.532,66.971c-11.879,0-13.601,12.107-13.601,19.396
			c0,9.412,10.846,13.602,13.601,13.602l4.477,0.058l0,0c3.271,0,7.402-0.229,9.984-2.238c3.157-2.467,4.936-8.55,4.936-17.216
			C505.928,76.039,500.075,66.971,486.532,66.971z"/>
		<path fill="#1D1D1B" d="M559.184,411.411L559.184,411.411l-4.478-0.058c-15.896,0-38.048-14.461-38.048-38.048
			c0-26.168,15.266-43.786,38.048-43.786c27.03,0,43.787,19.741,43.787,38.048c0,16.872-4.878,29.21-14.52,36.556
			C575.54,410.665,565.784,411.411,559.184,411.411z M554.708,353.968c-11.879,0-13.601,12.107-13.601,19.396
			c0,9.412,10.847,13.602,13.601,13.602l4.478,0.058l0,0c3.271,0,7.402-0.229,9.984-2.238c3.214-2.468,4.937-8.551,4.937-17.216
			C574.105,362.976,568.251,353.968,554.708,353.968z"/>
		<path fill="#1D1D1B" d="M462.314,595.281L462.314,595.281l-4.478-0.058c-15.896,0-38.048-14.462-38.048-38.048
			c0-26.169,15.267-43.787,38.048-43.787c27.03,0,43.787,19.741,43.787,38.048c0,16.872-4.878,29.21-14.519,36.556
			C478.669,594.535,468.914,595.281,462.314,595.281z M457.837,537.778c-11.879,0-13.601,12.108-13.601,19.397
			c0,9.411,10.847,13.601,13.601,13.601l4.478,0.058l0,0c3.271,0,7.402-0.229,9.984-2.237c3.156-2.468,4.937-8.551,4.937-17.217
			C477.235,546.788,471.381,537.778,457.837,537.778z"/>
		<path fill="#1D1D1B" d="M269.607,577.031L269.607,577.031l-4.477-0.057c-15.896,0-38.048-14.462-38.048-38.049
			c0-26.168,15.265-43.786,38.048-43.786c27.029,0,43.786,19.741,43.786,38.048c0,16.872-4.878,29.21-14.52,36.556
			C285.905,576.285,276.207,577.031,269.607,577.031z M265.131,519.588c-11.248,0-13.602,10.56-13.602,19.396
			c0,9.412,10.847,13.658,13.602,13.658l4.477,0.058l0,0c3.271,0,7.403-0.287,9.984-2.237c3.156-2.469,4.937-8.552,4.937-17.217
			C284.528,528.596,278.674,519.588,265.131,519.588z"/>
		<path fill="#1D1D1B" d="M118.277,530.662L118.277,530.662l-4.478-0.057c-15.896,0-38.048-14.462-38.048-38.048
			c0-26.228,15.265-43.787,38.048-43.787c27.029,0,43.786,19.741,43.786,38.048c0,16.872-4.878,29.21-14.519,36.557
			C134.631,529.916,124.876,530.662,118.277,530.662z M113.8,473.219c-11.879,0-13.601,12.166-13.601,19.396
			c0,9.412,10.846,13.603,13.601,13.603l4.478,0.057l0,0c3.271,0,7.401-0.229,9.984-2.238c3.156-2.467,4.936-8.551,4.936-17.216
			C133.197,482.227,127.343,473.219,113.8,473.219z"/>
		<path fill="#1D1D1B" d="M152.365,378.642L152.365,378.642l-4.478-0.057c-15.896,0-38.048-14.463-38.048-38.049
			c0-26.169,15.267-43.787,38.048-43.787c27.029,0,43.787,19.741,43.787,38.049c0,16.872-4.878,29.21-14.462,36.556
			C168.663,377.841,158.964,378.642,152.365,378.642z M147.887,321.14c-11.879,0-13.657,12.109-13.657,19.396
			c0,9.411,10.847,13.602,13.657,13.602l4.478,0.058l0,0c3.271,0,7.401-0.229,9.984-2.237c3.156-2.469,4.937-8.552,4.937-17.218
			C167.286,330.15,161.431,321.14,147.887,321.14z"/>
		<path fill="#1D1D1B" d="M69.266,189.551l8.266-6.196l-14.634-19.569l-8.953,6.657C62.724,174.86,68.061,182.434,69.266,189.551z"
			/>
		<path fill="#1D1D1B" d="M42.525,236.494L42.525,236.494l-4.478-0.058C22.152,236.436,0,221.974,0,198.388
			c0-26.169,15.266-43.786,38.048-43.786c27.03,0,43.787,19.741,43.787,38.048c0,16.871-4.878,29.21-14.52,36.556
			C58.823,235.748,49.067,236.494,42.525,236.494z M38.048,178.992c-11.879,0-13.601,12.166-13.601,19.396
			c0,9.41,10.847,13.657,13.601,13.657l4.478,0.059l0,0c3.271,0,7.402-0.229,9.984-2.238c3.156-2.468,4.937-8.551,4.937-17.216
			C57.387,188.058,51.535,178.992,38.048,178.992z"/>
		<path fill="#1D1D1B" d="M232.133,43.787c0-2.468,0.229-4.82,0.518-7.116l-23.186,17.445l14.634,19.569l16.012-11.994
			C235.577,57.387,232.133,51.476,232.133,43.787z"/>
		<path fill="#1D1D1B" d="M262.433,81.892L262.433,81.892l-4.477-0.059c-15.896,0-38.048-14.462-38.048-38.048
			C219.91,17.618,235.174,0,257.958,0c27.029,0,43.786,19.741,43.786,38.048c0,16.872-4.878,29.212-14.519,36.557
			C278.789,81.146,269.034,81.892,262.433,81.892z M257.958,24.389c-11.879,0-13.601,12.108-13.601,19.396
			c0,9.411,10.846,13.602,13.601,13.602l4.477,0.058l0,0c3.271,0,7.402-0.229,9.985-2.238c3.155-2.468,4.936-8.551,4.936-17.216
			C277.354,33.457,271.501,24.389,257.958,24.389z"/>
		<path fill="#1D1D1B" d="M113.8,460.994c8.092,0,14.691,2.41,19.855,5.911l20.144-100.543c-2.296,0.059-4.304-0.058-5.854-0.058
			c-4.706,0-11.879-2.582-17.503-7.633l-20.604,102.724C111.161,461.223,112.423,460.994,113.8,460.994z"/>
		<path fill="#1D1D1B" d="M263.582,507.535l-12.97-23.127l-21.291,11.938l13.772,24.562
			C246.939,513.159,253.71,508.052,263.582,507.535z"/>
		<path fill="#1D1D1B" d="M239.88,544.033c-0.345-1.605-0.574-3.328-0.574-5.106c0-7.345,1.551-14.002,4.593-19.339l-98.535-33.344
			c0,0.174,0.058,0.402,0.058,0.574c0,11.248-2.468,18.479-6.083,23.186L239.88,544.033z"/>
		<path fill="#1D1D1B" d="M296.694,533.187c0,0.804-0.059,1.492-0.115,2.296l10.961-5.854l-11.477-21.578l-10.561,5.624
			C292.734,518.955,296.694,526.53,296.694,533.187z"/>
		<path fill="#1D1D1B" d="M530.892,382.947l-69.555,142.952c9.756,0.86,17.218,5.165,21.922,10.674l67.145-138.017
			C543.632,396.949,534.794,391.727,530.892,382.947z"/>
		<path fill="#1D1D1B" d="M266.508,61.003l-23.931,4.706l18.307,93.428c10.043,0.517,18.708,2.64,26.055,5.91L266.508,61.003z"/>
		<path fill="#1D1D1B" d="M170.959,317.353c5.509,5.05,8.493,11.592,8.493,17.388c0,2.009-0.115,3.902-0.229,5.683l49.984-22.782
			c-4.993-6.198-9.928-12.972-14.634-20.145L170.959,317.353z"/>
		<path fill="#1D1D1B" d="M189.609,222.434L69.094,200.798c-2.064,15.609-10.1,20.946-17.903,22.668l74.145,100.658
			c3.5-8.033,10.042-13.544,19.626-14.52l-59.798-81.146l106.798,19.167c-1.664-7.116-2.582-14.403-2.582-21.635
			C189.379,224.844,189.551,223.639,189.609,222.434z"/>
		<path fill="#1D1D1B" d="M259.564,507.936c1.778-0.344,3.615-0.573,5.566-0.573c7.402,0,13.543,1.951,18.479,4.992l15.608-135.204
			c-5.566-0.688-11.993-3.673-23.128-12.396L259.564,507.936z"/>
		<path fill="#1D1D1B" d="M436.26,538.352c4.018-7.519,10.903-12.453,20.89-12.683l-112.25-173.999
			c-5.968,5.565-12.453,11.133-18.938,15.667L436.26,538.352z"/>
		<polygon fill="#1D1D1B" points="304.269,333.71 304.556,331.241 303.236,332.101 		"/>
		<path fill="#1D1D1B" d="M511.552,105.191c-6.771,8.148-17.102,7.977-23.24,7.862L540.189,335.2l-137.559-59.282
			c-3.559,7.461-7.633,14.635-11.993,21.406l140.942,60.773c3.673-9.699,11.248-16.355,23.186-16.355
			c4.706,0,8.838,0.86,12.567,2.182L511.552,105.191z"/>
		<path fill="#1D1D1B" d="M404.238,189.321l75.006-77.817c-6.887-2.523-14.577-8.206-17.389-17.157l-74.546,77.356
			C393.965,176.524,399.705,182.492,404.238,189.321z"/>
	</g>
	<path fill="#1D1D1B" d="M348.055,180.254c-38.162,0-45.737,33.572-45.737,33.572s-6.083-33.572-45.795-33.572
		c-25.309,0-45.795,20.487-45.795,45.738c0,59.74,83.384,129.927,91.532,129.927c11.189,0,91.532-70.933,91.532-129.927
		C393.851,200.741,373.364,180.254,348.055,180.254z"/>
</g>
</svg>
