<?xml version="1.0" encoding="utf-8"?>
<!-- Generator: Adobe Illustrator 16.0.0, SVG Export Plug-In . SVG Version: 6.00 Build 0)  -->
<!DOCTYPE svg PUBLIC "-//W3C//DTD SVG 1.1//EN" "http://www.w3.org/Graphics/SVG/1.1/DTD/svg11.dtd">
<svg version="1.1" id="Layer_1" xmlns="http://www.w3.org/2000/svg" xmlns:xlink="http://www.w3.org/1999/xlink" x="0px" y="0px"
	 width="841.889px" height="130.92px" viewBox="0 0 841.889 130.92" enable-background="new 0 0 841.889 130.92"
	 xml:space="preserve">
<g>
	<g>
		<path d="M236.876,62.228c0,24.042-16.971,40.407-41.417,40.407c-24.648,0-41.619-16.568-41.619-40.407
			c0-24.044,16.971-40.408,41.619-40.408C219.905,21.819,236.876,38.184,236.876,62.228z M171.011,62.428
			c0,15.355,10.103,25.861,24.446,25.861c14.144,0,24.244-10.506,24.244-25.861c0-15.354-10.102-25.657-24.244-25.657
			C180.912,36.771,171.011,47.276,171.011,62.428z"/>
		<path d="M338.703,62.631c0,23.84-14.95,40.205-37.78,40.205c-12.729,0-22.225-5.051-28.083-14.344v42.629h-17.174V22.426h17.174
			v13.738c5.858-9.295,15.354-14.346,27.881-14.346C323.146,21.819,338.703,38.387,338.703,62.631z M321.328,62.025
			c0-14.749-10.103-25.659-24.245-25.659c-14.142,0-24.243,10.708-24.243,25.659c0,15.354,10.102,26.062,24.243,26.062
			C311.225,88.088,321.328,77.379,321.328,62.025z"/>
		<path d="M426.587,68.895h-60.206c2.627,12.324,12.123,20.002,24.647,20.002c8.688,0,16.567-3.232,22.427-9.295l9.092,9.699
			c-7.88,8.484-19.194,13.535-32.933,13.535c-24.647,0-40.812-16.365-40.812-40.205c0-24.043,16.566-40.408,40.206-40.609
			C417.294,21.819,428.812,40.205,426.587,68.895z M411.638,56.368c-0.606-12.931-9.093-20.608-22.226-20.608
			c-12.525,0-21.416,7.881-23.436,20.608H411.638z"/>
		<path d="M520.738,52.529v49.498h-17.172V57.379c0-11.92-7.273-19.396-19.193-19.396c-13.133,0.201-21.416,9.294-22.629,21.617
			v42.43H444.57V22.426h17.174v15.354c5.656-11.111,15.961-15.96,29.295-15.96C509.626,21.819,520.738,33.539,520.738,52.529z"/>
		<path d="M609.433,34.952l-9.496,11.112c-5.455-5.657-13.133-9.092-22.83-8.891c-13.738,0-23.639,10.305-23.639,25.457
			s9.898,25.457,23.639,25.457c10.102,0,18.184-3.232,23.436-9.496l9.496,9.496c-7.271,9.496-18.789,14.748-33.74,14.748
			c-23.639,0-40.205-16.365-40.205-40.205c0-24.043,16.365-40.609,40.205-40.609C590.845,21.819,601.956,26.467,609.433,34.952z"/>
		<path d="M672.669,92.33c-5.656,7.07-14.748,10.506-26.264,10.506c-17.174,0-28.084-10.707-28.084-24.648
			c0-14.547,10.91-23.84,30.104-24.042h24.043v-2.425c0-10.103-6.467-15.961-18.992-15.961c-7.678,0-15.557,2.627-23.436,8.082
			l-7.07-11.92c11.111-6.668,19.193-10.103,34.346-10.103c20.607,0,32.123,10.506,32.123,28.084l0.203,52.327h-16.973V92.33
			L672.669,92.33z M672.468,74.147v-7.272h-21.617c-11.314,0-16.568,3.029-16.568,10.707c0,7.273,5.859,11.92,15.355,11.92
			C662.165,89.301,671.659,82.834,672.468,74.147z"/>
		<path d="M729.847,38.387c5.453-10.709,14.949-16.365,27.477-16.365v16.365c-15.961-0.81-26.264,8.484-27.477,22.224v41.62h-17.174
			V22.426h17.174V38.387z"/>
		<path d="M841.775,68.895h-60.207c2.627,12.324,12.123,20.002,24.648,20.002c8.689,0,16.566-3.232,22.428-9.295l9.092,9.699
			c-7.881,8.484-19.193,13.535-32.934,13.535c-24.445,0-40.812-16.365-40.812-40.205c0-24.043,16.568-40.408,40.207-40.609
			C832.482,21.819,843.794,40.205,841.775,68.895z M826.622,56.368c-0.605-12.931-9.092-20.608-22.225-20.608
			c-12.525,0-21.414,7.881-23.436,20.608H826.622z"/>
	</g>
	<g>
		<g>
			<rect x="22.247" y="26.696" transform="matrix(-0.599 -0.8008 0.8008 -0.599 15.3188 69.1444)" width="5.454" height="8.081"/>
			<rect x="35.071" y="17.028" transform="matrix(-0.5997 -0.8002 0.8002 -0.5997 43.6077 63.9503)" width="5.455" height="8.081"/>
			<polygon points="100.096,19.396 93.227,18.182 94.036,12.93 100.905,14.143 			"/>
			
				<rect x="77.716" y="10.809" transform="matrix(-0.9858 -0.1681 0.1681 -0.9858 160.0757 40.6235)" width="8.082" height="5.456"/>
			<rect x="61.751" y="7.986" transform="matrix(-0.9857 -0.1682 0.1682 -0.9857 128.8412 32.3446)" width="8.08" height="5.456"/>
			<rect x="42.655" y="94.401" transform="matrix(-0.489 -0.8723 0.8723 -0.489 -15.1883 185.3607)" width="8.083" height="5.456"/>
			<rect x="34.865" y="80.303" transform="matrix(-0.4895 -0.872 0.872 -0.4895 -14.4499 157.6014)" width="8.081" height="5.455"/>
			
				<rect x="74.244" y="104.172" transform="matrix(-0.4701 -0.8826 0.8826 -0.4701 17.6488 227.0214)" width="5.455" height="8.081"/>
			<rect x="88.406" y="96.726" transform="matrix(-0.4698 -0.8828 0.8828 -0.4698 45.0015 228.5583)" width="5.456" height="8.08"/>
			
				<rect x="102.651" y="89.038" transform="matrix(-0.4696 -0.8829 0.8829 -0.4696 72.6801 229.8241)" width="5.455" height="8.082"/>
			<path d="M107.976,27.274L107.976,27.274h-1.011c-3.436,0-8.283-3.231-8.283-8.283c0-5.858,3.435-9.698,8.283-9.698
				c5.858,0,9.697,4.445,9.697,8.284c0,3.638-1.01,6.466-3.231,8.081C111.411,27.072,109.39,27.274,107.976,27.274z M106.966,14.545
				c-2.626,0-3.03,2.627-3.03,4.244c0,2.02,2.425,3.029,3.03,3.029h1.011l0,0c0.808,0,1.616,0,2.223-0.402
				c0.605-0.607,1.01-1.818,1.01-3.84C111.209,16.566,109.795,14.545,106.966,14.545z"/>
			<path d="M122.927,90.311L122.927,90.311h-1.011c-3.435,0-8.282-3.232-8.282-8.283c0-5.859,3.435-9.697,8.282-9.697
				c5.859,0,9.698,4.242,9.698,8.283c0,3.637-1.011,6.465-3.232,8.08C126.563,90.107,124.342,90.311,122.927,90.311z
				 M121.917,77.582c-2.627,0-3.029,2.627-3.029,4.242c0,2.021,2.424,3.029,3.029,3.029h1.011l0,0c0.809,0,1.617,0,2.223-0.402
				c0.606-0.605,1.011-1.818,1.011-3.84C126.16,79.602,124.947,77.582,121.917,77.582z"/>
			<path d="M101.51,130.717L101.51,130.717H100.5c-3.435,0-8.282-3.232-8.282-8.283c0-5.857,3.435-9.697,8.282-9.697
				c5.859,0,9.698,4.445,9.698,8.283c0,3.639-1.011,6.465-3.232,8.082C105.147,130.516,103.128,130.717,101.51,130.717z
				 M100.703,118.191c-2.627,0-3.029,2.627-3.029,4.242c0,2.021,2.424,3.031,3.029,3.031h1.011l0,0c0.809,0,1.615,0,2.223-0.404
				c0.605-0.809,1.011-2.02,1.011-4.041C104.946,120.01,103.531,118.191,100.703,118.191z"/>
			<path d="M59.285,126.678L59.285,126.678h-1.01c-3.435,0-8.283-3.234-8.283-8.285c0-5.857,3.436-9.695,8.283-9.695
				c5.859,0,9.697,4.24,9.697,8.281c0,3.639-1.01,6.465-3.232,8.082C62.719,126.475,60.699,126.678,59.285,126.678z M58.275,114.15
				c-2.425,0-3.03,2.223-3.03,4.242c0,2.021,2.425,3.031,3.03,3.031h1.01l0,0c0.81,0,1.616,0,2.224-0.404
				c0.605-0.605,1.01-1.816,1.01-3.838C62.517,116.17,61.103,114.15,58.275,114.15z"/>
			<path d="M25.949,116.576L25.949,116.576h-1.01c-3.435,0-8.284-3.232-8.284-8.283c0-5.859,3.436-9.699,8.284-9.699
				c5.858,0,9.697,4.445,9.697,8.285c0,3.637-1.01,6.465-3.232,8.08C29.586,116.373,27.363,116.576,25.949,116.576z M24.939,103.846
				c-2.627,0-3.031,2.627-3.031,4.244c0,2.02,2.425,3.029,3.031,3.029h1.01l0,0c0.81,0,1.616,0,2.224-0.404
				c0.604-0.605,1.01-1.816,1.01-3.838C29.181,105.867,27.969,103.846,24.939,103.846z"/>
			<path d="M33.425,83.037L33.425,83.037h-1.012c-3.435,0-8.282-3.232-8.282-8.283c0-5.858,3.435-9.697,8.282-9.697
				c5.859,0,9.698,4.445,9.698,8.283c0,3.637-1.01,6.465-3.231,8.082C37.061,82.834,34.839,83.037,33.425,83.037z M32.414,70.51
				c-2.626,0-3.029,2.627-3.029,4.244c0,2.02,2.425,3.029,3.029,3.029h1.012l0,0c0.808,0,1.615,0,2.223-0.404
				c0.605-0.605,1.01-1.818,1.01-3.838C36.657,72.33,35.445,70.51,32.414,70.51z"/>
			<path d="M15.039,41.416l1.818-1.212l-3.232-4.243l-2.021,1.416C13.625,38.184,14.837,40.002,15.039,41.416z"/>
			<path d="M9.179,51.721L9.179,51.721H8.17c-3.436,0-8.283-3.232-8.283-8.283c0-5.859,3.435-9.697,8.283-9.697
				c5.858,0,9.697,4.242,9.697,8.283c0,3.637-1.011,6.465-3.232,8.081C12.816,51.721,10.594,51.721,9.179,51.721z M8.17,39.195
				c-2.626,0-3.03,2.626-3.03,4.242c0,2.021,2.424,3.029,3.03,3.029h1.01l0,0c0.809,0,1.617,0,2.223-0.402
				c0.606-0.605,1.011-1.818,1.011-3.84C12.615,41.215,11.2,39.195,8.17,39.195z"/>
			<path d="M51.002,9.495c0-0.604,0-1.01,0.201-1.616l-5.051,3.84l3.03,4.242l3.435-2.627C51.608,12.324,51.002,11.111,51.002,9.495
				z"/>
			<path d="M57.669,17.779L57.669,17.779h-1.011c-3.435,0-8.284-3.232-8.284-8.283c0-5.859,3.436-9.697,8.284-9.697
				c5.858,0,9.697,4.242,9.697,8.283c0,3.637-1.01,6.465-3.232,8.082C61.305,17.577,59.083,17.779,57.669,17.779z M56.659,5.252
				c-2.627,0-3.03,2.627-3.03,4.242c0,2.021,2.425,3.031,3.03,3.031h1.011l0,0c0.809,0,1.615,0,2.223-0.404
				c0.605-0.605,1.01-1.818,1.01-3.839C60.901,7.071,59.689,5.252,56.659,5.252z"/>
			<path d="M24.939,101.221c1.818,0,3.232,0.605,4.444,1.211l4.444-22.02c-0.403,0-1.011,0-1.213,0c-1.01,0-2.626-0.607-3.839-1.617
				l-4.646,22.426C24.333,101.221,24.535,101.221,24.939,101.221z"/>
			<path d="M57.871,111.523l-2.827-5.051l-4.647,2.426l3.031,5.453C54.234,112.736,55.648,111.523,57.871,111.523z"/>
			<path d="M52.618,119.404c0-0.404-0.202-0.809-0.202-1.213c0-1.615,0.404-3.029,1.012-4.242l-21.618-7.273c0,0,0,0,0,0.203
				c0,2.424-0.606,4.039-1.414,5.051L52.618,119.404z"/>
			<path d="M65.144,117.182c0,0.201,0,0.404,0,0.404l2.425-1.213l-2.425-4.646l-2.223,1.211
				C64.336,113.949,65.144,115.564,65.144,117.182z"/>
			<path d="M116.664,84.047l-15.354,31.518c2.222,0.203,3.838,1.213,4.849,2.426l14.749-30.307
				C119.492,87.078,117.472,86.066,116.664,84.047z"/>
			<path d="M58.477,13.131l-5.253,1.012l4.04,20.607c2.223,0.201,4.041,0.605,5.657,1.211L58.477,13.131z"/>
			<path d="M37.466,69.702c1.212,1.214,1.817,2.628,1.817,3.839c0,0.404,0,0.809,0,1.213l10.909-5.052
				c-1.01-1.413-2.222-2.827-3.231-4.444L37.466,69.702z"/>
			<path d="M41.506,48.69l-26.468-4.646c-0.403,3.435-2.223,4.646-3.839,5.051l16.365,22.224c0.809-1.817,2.223-3.03,4.243-3.231
				L18.675,50.309l23.437,4.041c-0.404-1.616-0.605-3.232-0.605-4.85C41.506,49.297,41.506,48.893,41.506,48.69z"/>
			<path d="M57.063,111.523c0.403,0,0.808-0.201,1.212-0.201c1.616,0,3.03,0.404,4.041,1.012l3.436-29.701
				c-1.214-0.201-2.628-0.807-5.053-2.828L57.063,111.523z"/>
			<path d="M95.854,118.191c0.808-1.615,2.424-2.828,4.646-2.828L75.852,77.178c-1.212,1.213-2.828,2.424-4.243,3.436
				L95.854,118.191z"/>
			<polygon points="66.76,73.137 66.963,72.733 66.558,72.936 			"/>
			<path d="M112.421,23.032c-1.414,1.817-3.839,1.817-5.052,1.817l11.314,48.894L88.378,60.61c-0.81,1.617-1.616,3.233-2.628,4.647
				l31.114,13.334c0.809-2.223,2.424-3.637,5.051-3.637c1.011,0,2.021,0.203,2.828,0.402L112.421,23.032z"/>
			<path d="M88.783,41.416l16.566-17.173c-1.414-0.606-3.232-1.817-3.839-3.839L85.146,37.377
				C86.56,38.588,87.772,40.002,88.783,41.416z"/>
		</g>
		<path d="M76.459,39.396c-8.485,0-10.103,7.477-10.103,7.477s-1.414-7.477-10.102-7.477c-5.657,0-10.103,4.445-10.103,10.104
			c0,13.131,18.385,28.486,20.203,28.486c2.425,0,20.204-15.559,20.204-28.486C86.56,44.043,81.914,39.396,76.459,39.396z"/>
	</g>
</g>
</svg>
