<?xml version="1.0" encoding="utf-8"?>
<!-- Generator: Adobe Illustrator 16.0.0, SVG Export Plug-In . SVG Version: 6.00 Build 0)  -->
<!DOCTYPE svg PUBLIC "-//W3C//DTD SVG 1.1//EN" "http://www.w3.org/Graphics/SVG/1.1/DTD/svg11.dtd">
<svg version="1.1" id="Layer_1" xmlns="http://www.w3.org/2000/svg" xmlns:xlink="http://www.w3.org/1999/xlink" x="0px" y="0px"
	 width="1350.1px" height="87.1px" viewBox="0 0 1350.1 87.1" enable-background="new 0 0 1350.1 87.1" xml:space="preserve">
<g>
	<defs>
		<rect id="SVGID_1_" x="0" width="1350.1" height="87.1"/>
	</defs>
	<clipPath id="SVGID_2_">
		<use xlink:href="#SVGID_1_"  overflow="visible"/>
	</clipPath>
	<polygon clip-path="url(#SVGID_2_)" fill="#FFFFFF" points="884.3,21.4 868,37.8 868,5 	"/>
	<polygon clip-path="url(#SVGID_2_)" fill="#60257F" points="1069.6,51.2 1106,87.9 1033.1,87.9 	"/>
	<polygon clip-path="url(#SVGID_2_)" fill="#389ED5" points="1069.6,25.9 1044.6,0.8 1094.5,0.8 	"/>
	<polygon clip-path="url(#SVGID_2_)" fill="#389ED5" points="954.2,9.2 1032.4,87.7 876.1,87.7 	"/>
	<polygon clip-path="url(#SVGID_2_)" fill="#D8DAE3" points="1032.8,87.9 970.3,25 1095.3,25 	"/>
	<polygon clip-path="url(#SVGID_2_)" fill="#D8DAE3" points="1217.9,131.8 1155.4,68.9 1280.4,68.9 	"/>
	<polygon clip-path="url(#SVGID_2_)" fill="#D8DAE3" points="1350.1,110.7 1458.2,2 1242,2 	"/>
	<polygon clip-path="url(#SVGID_2_)" fill="#389ED5" points="1294.2,54.8 1327.1,87.9 1261.3,87.9 	"/>
	<polygon clip-path="url(#SVGID_2_)" fill="#60257F" points="1174.3,69.9 1242.2,1.6 1106.4,1.6 	"/>
	<polygon clip-path="url(#SVGID_2_)" fill="#60257F" points="720.3,37.4 683.9,0.8 756.8,0.8 	"/>
	<polygon clip-path="url(#SVGID_2_)" fill="#389ED5" points="720.3,62.8 745.3,87.9 695.4,87.9 	"/>
	<polygon clip-path="url(#SVGID_2_)" fill="#60257F" points="882.5,32.7 950.4,101 814.6,100.9 	"/>
	<polygon clip-path="url(#SVGID_2_)" fill="#389ED5" points="835.7,79.5 757.5,1 913.8,1 	"/>
	<polygon clip-path="url(#SVGID_2_)" fill="#D8DAE3" points="757.1,0.8 819.6,63.7 694.6,63.7 	"/>
	<polygon clip-path="url(#SVGID_2_)" fill="#D8DAE3" points="572,-43.1 634.5,19.8 509.5,19.8 	"/>
	<polygon clip-path="url(#SVGID_2_)" fill="#60257F" points="0,87.1 86.3,87.1 0,0.3 	"/>
	<polygon clip-path="url(#SVGID_2_)" fill="#FFFFFF" points="386,20.6 402.3,37 402.3,4.2 	"/>
	<polygon clip-path="url(#SVGID_2_)" fill="#389ED5" points="54.1,54.7 21.9,87.1 86.3,87.1 	"/>
	<polygon clip-path="url(#SVGID_2_)" fill="#60257F" points="200.7,50.4 164.3,87.1 237.2,87.1 	"/>
	<polygon clip-path="url(#SVGID_2_)" fill="#D8DAE3" points="439.8,-22 331.7,86.7 547.9,86.7 	"/>
	<polygon clip-path="url(#SVGID_2_)" fill="#389ED5" points="200.7,25.1 225.7,0 175.8,0 	"/>
	<polygon clip-path="url(#SVGID_2_)" fill="#60257F" points="363,55.2 430.9,-13.1 295.1,-13.1 	"/>
	<polygon clip-path="url(#SVGID_2_)" fill="#389ED5" points="316.1,8.4 238,86.9 394.2,86.9 	"/>
	<polygon clip-path="url(#SVGID_2_)" fill="#D8DAE3" points="237.5,87.1 300,24.2 175,24.2 	"/>
	<polygon clip-path="url(#SVGID_2_)" fill="#D8DAE3" points="87.7,88.2 175.5,0 0,0 	"/>
	<polygon clip-path="url(#SVGID_2_)" fill="#389ED5" points="495.7,33.9 462.8,0.8 528.6,0.8 	"/>
	<polygon clip-path="url(#SVGID_2_)" fill="#60257F" points="615.6,18.8 547.7,87.1 683.5,87.1 	"/>
</g>
</svg>
