<?xml version="1.0" encoding="utf-8"?>
<!-- Generator: Adobe Illustrator 16.0.0, SVG Export Plug-In . SVG Version: 6.00 Build 0)  -->
<!DOCTYPE svg PUBLIC "-//W3C//DTD SVG 1.1//EN" "http://www.w3.org/Graphics/SVG/1.1/DTD/svg11.dtd">
<svg version="1.1" id="Layer_1" xmlns="http://www.w3.org/2000/svg" xmlns:xlink="http://www.w3.org/1999/xlink" x="0px" y="0px"
	 width="483px" height="23.5px" viewBox="0 0 483 23.5" enable-background="new 0 0 483 23.5" xml:space="preserve">
<g>
	<defs>
		<rect id="SVGID_1_" x="0.3" width="482.3" height="23.5"/>
	</defs>
	<clipPath id="SVGID_2_">
		<use xlink:href="#SVGID_1_"  overflow="visible"/>
	</clipPath>
	<polygon clip-path="url(#SVGID_2_)" fill="#FFFFFF" points="132.6,35.5 141.5,26.6 141.5,44.4 	"/>
	<polygon clip-path="url(#SVGID_2_)" fill="#5F267F" points="32.5,19.4 12.8,-0.4 52.2,-0.4 	"/>
	<polygon clip-path="url(#SVGID_2_)" fill="#3C9FD7" points="32.5,33.1 46,46.6 19,46.6 	"/>
	<polygon clip-path="url(#SVGID_2_)" fill="#3C9FD7" points="94.8,42.1 52.6,-0.3 137.1,-0.3 	"/>
	<polygon clip-path="url(#SVGID_2_)" fill="#D9DBE5" points="52.4,-0.4 86.2,33.6 18.6,33.6 	"/>
	<polygon clip-path="url(#SVGID_2_)" fill="#D9DBE5" points="-47.7,-24.2 -13.9,9.8 -81.4,9.8 	"/>
	<polygon clip-path="url(#SVGID_2_)" fill="#D9DBE5" points="-119.1,-12.7 -177.5,46 -60.7,46 	"/>
	<polygon clip-path="url(#SVGID_2_)" fill="#3C9FD7" points="-88.9,17.5 -106.7,-0.4 -71.1,-0.4 	"/>
	<polygon clip-path="url(#SVGID_2_)" fill="#5F267F" points="-24.1,9.3 -60.8,46.2 12.6,46.2 	"/>
	<polygon clip-path="url(#SVGID_2_)" fill="#5F267F" points="221.2,26.8 240.9,46.6 201.6,46.6 	"/>
	<polygon clip-path="url(#SVGID_2_)" fill="#3C9FD7" points="221.2,13.1 207.8,-0.4 234.7,-0.4 	"/>
	<polygon clip-path="url(#SVGID_2_)" fill="#5F267F" points="133.6,29.4 96.9,-7.5 170.3,-7.5 	"/>
	<polygon clip-path="url(#SVGID_2_)" fill="#3C9FD7" points="158.9,4.1 201.1,46.5 116.7,46.5 	"/>
	<polygon clip-path="url(#SVGID_2_)" fill="#D9DBE5" points="201.4,46.6 167.6,12.6 235.2,12.6 	"/>
	<polygon clip-path="url(#SVGID_2_)" fill="#D9DBE5" points="301.4,70.4 267.6,36.4 335.2,36.4 	"/>
	<polygon clip-path="url(#SVGID_2_)" fill="#5F267F" points="610.5,0 563.9,0 610.5,46.9 	"/>
	<polygon clip-path="url(#SVGID_2_)" fill="#FFFFFF" points="401.9,35.9 393.1,27.1 393.1,44.8 	"/>
	<polygon clip-path="url(#SVGID_2_)" fill="#3C9FD7" points="581.3,17.5 598.7,0 563.9,0 	"/>
	<polygon clip-path="url(#SVGID_2_)" fill="#5F267F" points="502,19.8 521.7,0 482.4,0 	"/>
	<polygon clip-path="url(#SVGID_2_)" fill="#D9DBE5" points="372.8,58.9 431.3,0.2 314.4,0.2 	"/>
	<polygon clip-path="url(#SVGID_2_)" fill="#3C9FD7" points="502,33.5 488.6,47.1 515.5,47.1 	"/>
	<polygon clip-path="url(#SVGID_2_)" fill="#5F267F" points="414.4,17.2 377.7,54.1 451.1,54.1 	"/>
	<polygon clip-path="url(#SVGID_2_)" fill="#3C9FD7" points="439.7,42.5 481.9,0.1 397.5,0.1 	"/>
	<polygon clip-path="url(#SVGID_2_)" fill="#D9DBE5" points="482.2,0 448.4,34 516,34 	"/>
	<polygon clip-path="url(#SVGID_2_)" fill="#D9DBE5" points="563.1,-0.6 515.7,47.1 610.5,47.1 	"/>
	<polygon clip-path="url(#SVGID_2_)" fill="#3C9FD7" points="342.6,28.7 360.4,46.6 324.8,46.6 	"/>
	<polygon clip-path="url(#SVGID_2_)" fill="#5F267F" points="277.9,36.9 314.6,0 241.2,0 	"/>
</g>
</svg>
