<?xml version="1.0" encoding="utf-8"?>
<!-- Generator: Adobe Illustrator 16.0.0, SVG Export Plug-In . SVG Version: 6.00 Build 0)  -->
<!DOCTYPE svg PUBLIC "-//W3C//DTD SVG 1.1//EN" "http://www.w3.org/Graphics/SVG/1.1/DTD/svg11.dtd">
<svg version="1.1" id="Layer_1" xmlns="http://www.w3.org/2000/svg" xmlns:xlink="http://www.w3.org/1999/xlink" x="0px" y="0px"
	 width="483px" height="47.2px" viewBox="0 0 483 47.2" enable-background="new 0 0 483 47.2" xml:space="preserve">
<g>
	<defs>
		<rect id="SVGID_1_" x="0.7" y="-0.6" width="481.6" height="48.2"/>
	</defs>
	<clipPath id="SVGID_2_">
		<use xlink:href="#SVGID_1_"  overflow="visible"/>
	</clipPath>
	<polygon clip-path="url(#SVGID_2_)" fill="#FFFFFF" points="133,36.1 141.8,27.2 141.8,44.9 	"/>
	<polygon clip-path="url(#SVGID_2_)" fill="#5F267F" points="32.9,20 13.2,0.1 52.6,0.1 	"/>
	<polygon clip-path="url(#SVGID_2_)" fill="#3C9FD7" points="32.9,33.7 46.3,47.2 19.4,47.2 	"/>
	<polygon clip-path="url(#SVGID_2_)" fill="#3C9FD7" points="95.2,42.7 53,0.2 137.4,0.2 	"/>
	<polygon clip-path="url(#SVGID_2_)" fill="#D9DBE5" points="52.7,0.2 86.5,34.1 18.9,34.1 	"/>
	<polygon clip-path="url(#SVGID_2_)" fill="#D9DBE5" points="-47.3,-23.6 -13.5,10.4 -81.1,10.4 	"/>
	<polygon clip-path="url(#SVGID_2_)" fill="#D9DBE5" points="-118.7,-12.1 -177.1,46.6 -60.3,46.6 	"/>
	<polygon clip-path="url(#SVGID_2_)" fill="#3C9FD7" points="-88.5,18.1 -106.3,0.2 -70.7,0.2 	"/>
	<polygon clip-path="url(#SVGID_2_)" fill="#5F267F" points="-23.8,9.9 -60.4,46.8 12.9,46.8 	"/>
	<polygon clip-path="url(#SVGID_2_)" fill="#5F267F" points="221.6,27.4 241.3,47.2 201.9,47.2 	"/>
	<polygon clip-path="url(#SVGID_2_)" fill="#3C9FD7" points="221.6,13.7 208.1,0.2 235.1,0.2 	"/>
	<polygon clip-path="url(#SVGID_2_)" fill="#5F267F" points="133.9,30 97.2,-6.9 170.6,-6.9 	"/>
	<polygon clip-path="url(#SVGID_2_)" fill="#3C9FD7" points="159.3,4.7 201.5,47.1 117.1,47.1 	"/>
	<polygon clip-path="url(#SVGID_2_)" fill="#D9DBE5" points="201.7,47.2 168,13.2 235.5,13.2 	"/>
	<polygon clip-path="url(#SVGID_2_)" fill="#D9DBE5" points="301.8,71 268,37 335.5,37 	"/>
	<polygon clip-path="url(#SVGID_2_)" fill="#5F267F" points="610.9,0.6 564.2,0.6 610.9,47.5 	"/>
	<polygon clip-path="url(#SVGID_2_)" fill="#FFFFFF" points="402.3,36.5 393.4,27.6 393.4,45.4 	"/>
	<polygon clip-path="url(#SVGID_2_)" fill="#3C9FD7" points="581.6,18.1 599,0.6 564.3,0.6 	"/>
	<polygon clip-path="url(#SVGID_2_)" fill="#5F267F" points="502.4,20.4 522.1,0.6 482.7,0.6 	"/>
	<polygon clip-path="url(#SVGID_2_)" fill="#D9DBE5" points="373.2,59.5 431.6,0.8 314.8,0.8 	"/>
	<polygon clip-path="url(#SVGID_2_)" fill="#3C9FD7" points="502.4,34.1 488.9,47.7 515.9,47.7 	"/>
	<polygon clip-path="url(#SVGID_2_)" fill="#5F267F" points="414.7,17.8 378,54.7 451.4,54.7 	"/>
	<polygon clip-path="url(#SVGID_2_)" fill="#3C9FD7" points="440.1,43.1 482.3,0.7 397.9,0.7 	"/>
	<polygon clip-path="url(#SVGID_2_)" fill="#D9DBE5" points="482.5,0.6 448.8,34.6 516.3,34.6 	"/>
	<polygon clip-path="url(#SVGID_2_)" fill="#D9DBE5" points="563.5,0 516.1,47.7 610.9,47.7 	"/>
	<polygon clip-path="url(#SVGID_2_)" fill="#3C9FD7" points="343,29.3 360.8,47.2 325.2,47.2 	"/>
	<polygon clip-path="url(#SVGID_2_)" fill="#5F267F" points="278.2,37.5 314.9,0.6 241.5,0.6 	"/>
</g>
</svg>
