<?xml version="1.0" encoding="utf-8"?>
<!-- Generator: Adobe Illustrator 16.0.0, SVG Export Plug-In . SVG Version: 6.00 Build 0)  -->
<!DOCTYPE svg PUBLIC "-//W3C//DTD SVG 1.1//EN" "http://www.w3.org/Graphics/SVG/1.1/DTD/svg11.dtd">
<svg version="1.1" id="Layer_1" xmlns="http://www.w3.org/2000/svg" xmlns:xlink="http://www.w3.org/1999/xlink" x="0px" y="0px"
	 width="150px" height="134.8px" viewBox="0 0 150 134.8" enable-background="new 0 0 150 134.8" xml:space="preserve">
<g>
	<g>
		<path fill-rule="evenodd" clip-rule="evenodd" fill="#1E1E1C" d="M54.1,75.1c0.1,8.4,4.2,14.3,11,18.6c1.6,1,1.8,1.9,1.1,3.5
			C62,107,58,116.7,54,126.5c-0.7,1.7-1.5,2.1-2.9,1c-0.1-0.1-0.3-0.1-0.4-0.2c-3.9-3.2-7.3-2.7-11,0.6c-2.6,2.4-5.9,4.1-8.8,6.2
			c-1.2,0.8-2,0.9-3.1-0.2c-3.9-4-7.9-7.9-11.9-11.8c-1.1-1-1-1.9-0.2-3.1c2.9-4.1,5.6-8.2,8.5-12.3c1.1-1.5,1.3-2.8,0.5-4.6
			c-1.6-3.7-3.1-7.4-4.4-11.1c-0.6-1.6-1.5-2.3-3.1-2.6c-5-0.9-9.9-1.9-14.9-2.7C0.6,85.5,0,84.8,0,82.9C0.1,77.6,0.1,72.3,0,67
			c0-1.8,0.6-2.5,2.3-2.7c5.2-0.9,10.4-2,15.7-2.9c1.4-0.2,2.2-0.8,2.8-2.2c1.5-3.7,3-7.4,4.7-11c0.7-1.5,0.5-2.6-0.4-3.9
			c-3.1-4.3-6-8.8-9.1-13.1c-1-1.4-1-2.3,0.3-3.6c3.9-3.7,7.7-7.6,11.4-11.4c1.1-1.2,2-1.4,3.4-0.4c4.5,3.2,9.1,6.2,13.6,9.4
			c1.3,0.9,2.4,1.1,3.9,0.4c3.4-1.5,6.8-2.9,10.3-4.2c1.5-0.6,2.2-1.5,2.4-3c0.9-5.4,2-10.7,2.9-16.1c0.3-1.8,1-2.5,2.9-2.4
			c5.4,0.1,10.8,0.1,16.1,0c1.6,0,2.3,0.6,2.5,2.1c0.9,5.4,2,10.8,3,16.3c0.3,1.6,1,2.6,2.5,3.2c3.5,1.3,6.9,2.7,10.3,4.2
			c1.4,0.6,2.4,0.5,3.7-0.4c4.5-3.2,9.1-6.2,13.6-9.4c1.4-1,2.3-0.9,3.6,0.3c3.7,3.9,7.5,7.7,11.4,11.4c1.2,1.2,1.2,2.1,0.3,3.4
			c-3.1,4.4-6.1,8.9-9.2,13.3c-0.9,1.3-1,2.4-0.4,3.9c1.6,3.6,3.2,7.2,4.6,10.8c0.6,1.5,1.5,2.1,3.1,2.4c5.2,0.9,10.4,2,15.7,2.9
			c1.5,0.3,2.1,0.9,2.1,2.5c-0.1,5.4-0.1,10.9,0,16.3c0,1.7-0.6,2.4-2.2,2.6c-5,0.9-9.9,1.9-14.9,2.7c-1.7,0.3-2.7,1-3.3,2.6
			c-1.5,3.9-3,7.8-4.7,11.7c-0.6,1.3-0.4,2.4,0.4,3.5c3,4.2,5.8,8.6,8.8,12.8c0.8,1.2,0.8,2-0.2,3.1c-4,3.9-7.9,7.9-11.8,11.9
			c-1.1,1.1-2,1-3.1,0.2c-4.1-2.9-8.3-5.7-12.4-8.6c-1.3-0.9-2.3-1-3.6-0.2c-1.4,0.9-3,1.5-4.4,2.4c-1.4,0.9-2,0.1-2.5-1.1
			c-2.8-6.8-5.6-13.5-8.4-20.2c-1.3-3.1-2.5-6.3-3.9-9.4c-0.7-1.5-0.4-2.4,1-3.3c6.5-4.1,10.6-9.7,11.1-17.6
			c0.5-8.4-4.3-16.4-12.1-20.1c-7.6-3.6-17-2.1-23,3.7C56.4,64,54.1,69.1,54.1,75.1z"/>
	</g>
</g>
</svg>
