<?xml version="1.0" encoding="utf-8"?>
<!-- Generator: Adobe Illustrator 16.0.0, SVG Export Plug-In . SVG Version: 6.00 Build 0)  -->
<!DOCTYPE svg PUBLIC "-//W3C//DTD SVG 1.1//EN" "http://www.w3.org/Graphics/SVG/1.1/DTD/svg11.dtd">
<svg version="1.1" id="Layer_1" xmlns="http://www.w3.org/2000/svg" xmlns:xlink="http://www.w3.org/1999/xlink" x="0px" y="0px"
	 width="416.5px" height="65.1px" viewBox="0 0 416.5 65.1" enable-background="new 0 0 416.5 65.1" xml:space="preserve">
<g>
	<g>
		<path fill="#D8DBE4" d="M117.6,30.9c0,11.9-8.4,20-20.5,20c-12.2,0-20.6-8.1-20.6-20c0-11.9,8.4-20,20.6-20
			C109.2,10.9,117.6,19,117.6,30.9z M85,31c0,7.6,5,12.8,12.1,12.8c7,0,12-5.2,12-12.8c0-7.6-5-12.7-12-12.7C90,18.2,85,23.4,85,31z
			"/>
		<path fill="#D8DBE4" d="M168,31.1c0,11.8-7.4,19.9-18.7,19.9c-6.3,0-11-2.5-13.9-7.1v21.2h-8.5V11.2h8.5V18
			c2.9-4.6,7.6-7.1,13.8-7.1C160.3,10.9,168,19.1,168,31.1z M159.4,30.8c0-7.3-5-12.7-12-12.7s-12,5.3-12,12.7c0,7.6,5,12.9,12,12.9
			S159.4,38.3,159.4,30.8z"/>
		<path fill="#D8DBE4" d="M211.5,34.2h-29.8c1.3,6.1,6,9.9,12.2,9.9c4.3,0,8.2-1.6,11.1-4.6l4.5,4.8c-3.9,4.2-9.5,6.7-16.3,6.7
			c-12.1,0-20.1-8.1-20.1-19.9c0-11.9,8.2-20,19.9-20.1C206.9,10.9,212.5,19.9,211.5,34.2z M204.1,27.9c-0.3-6.4-4.5-10.2-11-10.2
			c-6.2,0-10.6,3.9-11.6,10.2H204.1z"/>
		<path fill="#D8DBE4" d="M258.1,26.1v24.5h-8.5V28.5c0-5.9-3.6-9.6-9.5-9.6c-6.5,0.1-10.6,4.6-11.2,10.7v21h-8.5V11.2h8.5v7.6
			c2.8-5.5,7.9-7.9,14.5-7.9C252.6,10.9,258.1,16.7,258.1,26.1z"/>
		<path fill="#60257F" d="M302,17.4l-4.7,5.5c-2.7-2.8-6.5-4.5-11.3-4.4c-6.8,0-11.7,5.1-11.7,12.6s4.9,12.6,11.7,12.6
			c5,0,9-1.6,11.6-4.7l4.7,4.7c-3.6,4.7-9.3,7.3-16.7,7.3c-11.7,0-19.9-8.1-19.9-19.9c0-11.9,8.1-20.1,19.9-20.1
			C292.8,10.9,298.3,13.2,302,17.4z"/>
		<path fill="#60257F" d="M333.3,45.8c-2.8,3.5-7.3,5.2-13,5.2c-8.5,0-13.9-5.3-13.9-12.2c0-7.2,5.4-11.8,14.9-11.9h11.9v-1.2
			c0-5-3.2-7.9-9.4-7.9c-3.8,0-7.7,1.3-11.6,4l-3.5-5.9c5.5-3.3,9.5-5,17-5c10.1,0,15.9,5.2,15.9,13.8l0.1,25.9h-8.4V45.8z
			 M333.2,36.8v-3.6h-10.7c-5.6,0-8.1,1.5-8.1,5.3c0,3.6,2.9,5.9,7.6,5.9C328.1,44.2,332.8,41.1,333.2,36.8z"/>
		<path fill="#60257F" d="M361.6,19.1c2.7-5.3,7.4-8.1,13.6-8.1v8.1c-7.9-0.4-13,4.2-13.6,11v20.6h-8.5V11.2h8.5V19.1z"/>
		<path fill="#60257F" d="M416.9,34.2h-29.8c1.3,6.1,6,9.9,12.2,9.9c4.3,0,8.2-1.6,11.1-4.6l4.5,4.8c-3.9,4.2-9.5,6.7-16.3,6.7
			c-12.1,0-20.1-8.1-20.1-19.9c0-11.9,8.2-20,19.9-20.1C412.3,10.9,418,19.9,416.9,34.2z M409.5,27.9c-0.3-6.4-4.5-10.2-11-10.2
			c-6.2,0-10.6,3.9-11.6,10.2H409.5z"/>
	</g>
	<g>
		<g>
			
				<rect x="11.4" y="13.3" transform="matrix(0.5988 0.8009 -0.8009 0.5988 17.3673 -4.1174)" fill="#D8DBE4" width="2.7" height="4"/>
			
				<rect x="17.8" y="8.6" transform="matrix(0.599 0.8008 -0.8008 0.599 16.1244 -11.0923)" fill="#D8DBE4" width="2.7" height="4"/>
			<polygon fill="#D8DBE4" points="49.9,9.7 46.5,9.1 47,6.4 50.3,7.1 			"/>
			<rect x="38.9" y="5.4" transform="matrix(0.9858 0.1682 -0.1682 0.9858 1.725 -6.7864)" fill="#D8DBE4" width="4" height="2.7"/>
			<rect x="31" y="4" transform="matrix(0.9858 0.1682 -0.1682 0.9858 1.3785 -5.4775)" fill="#D8DBE4" width="4" height="2.7"/>
			<rect x="21.6" y="46.8" transform="matrix(0.4895 0.872 -0.872 0.4895 54.0169 4.0197)" fill="#D8DBE4" width="4" height="2.7"/>
			
				<rect x="17.7" y="39.9" transform="matrix(0.4898 0.8719 -0.8719 0.4898 45.9973 3.8461)" fill="#D8DBE4" width="4" height="2.7"/>
			
				<rect x="37.1" y="51.7" transform="matrix(0.4695 0.8829 -0.8829 0.4695 67.7839 -5.4321)" fill="#D8DBE4" width="2.7" height="4"/>
			
				<rect x="44.1" y="47.8" transform="matrix(0.4705 0.8824 -0.8824 0.4705 68.0614 -13.7253)" fill="#D8DBE4" width="2.7" height="4"/>
			
				<rect x="51.3" y="44.1" transform="matrix(0.4701 0.8826 -0.8826 0.4701 68.6146 -21.9958)" fill="#D8DBE4" width="2.7" height="4"/>
			<path fill="#D8DBE4" d="M53.8,13.5L53.8,13.5h-0.5c-1.7,0-4.1-1.6-4.1-4.1c0-2.9,1.7-4.8,4.1-4.8c2.9,0,4.8,2.1,4.8,4.1
				c0,1.8-0.5,3.2-1.6,4C55.6,13.4,54.5,13.5,53.8,13.5z M53.3,7.3c-1.3,0-1.5,1.3-1.5,2.1c0,1,1.2,1.5,1.5,1.5h0.5l0,0
				c0.4,0,0.8,0,1.1-0.2c0.3-0.3,0.5-0.9,0.5-1.9C55.4,8.2,54.8,7.3,53.3,7.3z"/>
			<path fill="#D8DBE4" d="M61.2,44.8L61.2,44.8h-0.5c-1.7,0-4.1-1.6-4.1-4.1c0-2.9,1.7-4.8,4.1-4.8c2.9,0,4.8,2.1,4.8,4.1
				c0,1.8-0.5,3.2-1.6,4C63,44.7,61.9,44.8,61.2,44.8z M60.7,38.5c-1.3,0-1.5,1.3-1.5,2.1c0,1,1.2,1.5,1.5,1.5h0.5l0,0
				c0.4,0,0.8,0,1.1-0.2c0.3-0.3,0.5-0.9,0.5-1.9C62.8,39.5,62.2,38.5,60.7,38.5z"/>
			<path fill="#D8DBE4" d="M50.7,64.8L50.7,64.8h-0.5c-1.7,0-4.1-1.6-4.1-4.1c0-2.9,1.7-4.8,4.1-4.8c2.9,0,4.8,2.2,4.8,4.1
				c0,1.8-0.5,3.2-1.6,4C52.4,64.7,51.4,64.8,50.7,64.8z M50.2,58.5c-1.3,0-1.5,1.3-1.5,2.1c0,1,1.2,1.5,1.5,1.5h0.5l0,0
				c0.4,0,0.8,0,1.1-0.2c0.3-0.3,0.5-0.9,0.5-1.9C52.3,59.5,51.6,58.5,50.2,58.5z"/>
			<path fill="#D8DBE4" d="M29.7,62.8L29.7,62.8h-0.5c-1.7,0-4.1-1.6-4.1-4.1c0-2.9,1.7-4.8,4.1-4.8c2.9,0,4.8,2.2,4.8,4.1
				c0,1.8-0.5,3.2-1.6,4C31.5,62.7,30.4,62.8,29.7,62.8z M29.2,56.5c-1.2,0-1.5,1.1-1.5,2.1s1.2,1.5,1.5,1.5h0.5l0,0
				c0.4,0,0.8,0,1.1-0.2c0.3-0.3,0.5-0.9,0.5-1.9C31.3,57.5,30.7,56.5,29.2,56.5z"/>
			<path fill="#D8DBE4" d="M13.2,57.7L13.2,57.7h-0.5c-1.7,0-4.1-1.6-4.1-4.1c0-2.9,1.7-4.8,4.1-4.8c2.9,0,4.8,2.1,4.8,4.1
				c0,1.8-0.5,3.2-1.6,4C15,57.7,13.9,57.7,13.2,57.7z M12.7,51.5c-1.3,0-1.5,1.3-1.5,2.1c0,1,1.2,1.5,1.5,1.5h0.5l0,0
				c0.4,0,0.8,0,1.1-0.2c0.3-0.3,0.5-0.9,0.5-1.9C14.8,52.5,14.2,51.5,12.7,51.5z"/>
			<path fill="#D8DBE4" d="M16.9,41.2L16.9,41.2h-0.5c-1.7,0-4.1-1.6-4.1-4.1c0-2.9,1.7-4.8,4.1-4.8c2.9,0,4.8,2.2,4.8,4.1
				c0,1.8-0.5,3.2-1.6,4C18.7,41.1,17.6,41.2,16.9,41.2z M16.4,34.9c-1.3,0-1.5,1.3-1.5,2.1c0,1,1.2,1.5,1.5,1.5h0.5l0,0
				c0.4,0,0.8,0,1.1-0.2c0.3-0.3,0.5-0.9,0.5-1.9C18.5,35.9,17.9,34.9,16.4,34.9z"/>
			<path fill="#D8DBE4" d="M7.9,20.6l0.9-0.7l-1.6-2.1l-1,0.7C7.2,19,7.7,19.8,7.9,20.6z"/>
			<path fill="#D8DBE4" d="M5,25.7L5,25.7H4.5c-1.7,0-4.1-1.6-4.1-4.1c0-2.9,1.7-4.8,4.1-4.8c2.9,0,4.8,2.1,4.8,4.1
				c0,1.8-0.5,3.2-1.6,4C6.7,25.6,5.7,25.7,5,25.7z M4.5,19.5c-1.3,0-1.5,1.3-1.5,2.1c0,1,1.2,1.5,1.5,1.5H5l0,0
				c0.4,0,0.8,0,1.1-0.2C6.4,22.6,6.6,22,6.6,21C6.6,20.4,5.9,19.5,4.5,19.5z"/>
			<path fill="#D8DBE4" d="M25.6,4.7c0-0.3,0-0.5,0.1-0.8l-2.5,1.9l1.6,2.1l1.7-1.3C26,6.2,25.6,5.6,25.6,4.7z"/>
			<path fill="#D8DBE4" d="M28.9,8.9L28.9,8.9h-0.5c-1.7,0-4.1-1.6-4.1-4.1C24.3,1.9,26,0,28.4,0c2.9,0,4.8,2.1,4.8,4.1
				c0,1.8-0.5,3.2-1.6,4C30.7,8.8,29.6,8.9,28.9,8.9z M28.4,2.6c-1.3,0-1.5,1.3-1.5,2.1c0,1,1.2,1.5,1.5,1.5h0.5l0,0
				c0.4,0,0.8,0,1.1-0.2c0.3-0.3,0.5-0.9,0.5-1.9C30.5,3.6,29.9,2.6,28.4,2.6z"/>
			<path fill="#D8DBE4" d="M12.7,50.2c0.9,0,1.6,0.3,2.2,0.6l2.2-10.9c-0.2,0-0.5,0-0.6,0c-0.5,0-1.3-0.3-1.9-0.8l-2.2,11.2
				C12.4,50.2,12.6,50.2,12.7,50.2z"/>
			<path fill="#D8DBE4" d="M29,55.2l-1.4-2.5L25.3,54l1.5,2.7C27.2,55.8,28,55.3,29,55.2z"/>
			<path fill="#D8DBE4" d="M26.4,59.2c0-0.2-0.1-0.4-0.1-0.6c0-0.8,0.2-1.5,0.5-2.1l-10.7-3.6c0,0,0,0,0,0.1c0,1.2-0.3,2-0.7,2.5
				L26.4,59.2z"/>
			<path fill="#D8DBE4" d="M32.6,58c0,0.1,0,0.2,0,0.2l1.2-0.6l-1.2-2.3l-1.2,0.6C32.2,56.5,32.6,57.3,32.6,58z"/>
			<path fill="#D8DBE4" d="M58.1,41.7l-7.6,15.6c1.1,0.1,1.9,0.6,2.4,1.2l7.3-15C59.5,43.2,58.6,42.6,58.1,41.7z"/>
			<path fill="#D8DBE4" d="M29.3,6.6l-2.6,0.5l2,10.2c1.1,0.1,2,0.3,2.8,0.6L29.3,6.6z"/>
			<path fill="#D8DBE4" d="M18.9,34.5c0.6,0.6,0.9,1.3,0.9,1.9c0,0.2,0,0.4,0,0.6l5.4-2.5c-0.5-0.7-1.1-1.4-1.6-2.2L18.9,34.5z"/>
			<path fill="#D8DBE4" d="M21,24.2L7.9,21.8c-0.2,1.7-1.1,2.3-1.9,2.5l8.1,11c0.4-0.9,1.1-1.5,2.1-1.6l-6.5-8.8L21.3,27
				c-0.2-0.8-0.3-1.6-0.3-2.4C20.9,24.4,21,24.3,21,24.2z"/>
			<path fill="#D8DBE4" d="M28.6,55.3c0.2,0,0.4-0.1,0.6-0.1c0.8,0,1.5,0.2,2,0.5L32.9,41c-0.6-0.1-1.3-0.4-2.5-1.4L28.6,55.3z"/>
			<path fill="#D8DBE4" d="M47.8,58.6c0.4-0.8,1.2-1.4,2.3-1.4L37.9,38.3c-0.6,0.6-1.4,1.2-2.1,1.7L47.8,58.6z"/>
			<polygon fill="#D8DBE4" points="33.5,36.3 33.5,36 33.3,36.1 			"/>
			<path fill="#D8DBE4" d="M56,11.4c-0.7,0.9-1.9,0.9-2.5,0.9l5.6,24.2l-15-6.5c-0.4,0.8-0.8,1.6-1.3,2.3l15.3,6.6
				c0.4-1.1,1.2-1.8,2.5-1.8c0.5,0,1,0.1,1.4,0.2L56,11.4z"/>
			<path fill="#D8DBE4" d="M44.3,20.6l8.2-8.5c-0.7-0.3-1.6-0.9-1.9-1.9l-8.1,8.4C43.2,19.2,43.8,19.8,44.3,20.6z"/>
		</g>
		<path fill="#60257F" d="M38.2,19.6c-4.2,0-5,3.7-5,3.7s-0.7-3.7-5-3.7c-2.8,0-5,2.2-5,5c0,6.5,9.1,14.1,10,14.1
			c1.2,0,10-7.7,10-14.1C43.2,21.8,41,19.6,38.2,19.6z"/>
	</g>
</g>
</svg>
