<?xml version="1.0" encoding="utf-8"?>
<!-- Generator: Adobe Illustrator 16.0.0, SVG Export Plug-In . SVG Version: 6.00 Build 0)  -->
<!DOCTYPE svg PUBLIC "-//W3C//DTD SVG 1.1//EN" "http://www.w3.org/Graphics/SVG/1.1/DTD/svg11.dtd">
<svg version="1.1" id="Layer_1" xmlns="http://www.w3.org/2000/svg" xmlns:xlink="http://www.w3.org/1999/xlink" x="0px" y="0px"
	 width="416.5px" height="65.1px" viewBox="0 0 416.5 65.1" enable-background="new 0 0 416.5 65.1" xml:space="preserve">
<g>
	<g>
		<g>
			<path fill="#2E9ED3" d="M117.1,30.1c0,11.9-8.4,20-20.5,20C84.4,50.1,76,42,76,30.1c0-11.9,8.4-20,20.6-20
				C108.7,10.1,117.1,18.1,117.1,30.1z M84.5,30.1c0,7.6,5,12.8,12.1,12.8c7,0,12-5.2,12-12.8c0-7.6-5-12.7-12-12.7
				C89.5,17.4,84.5,22.6,84.5,30.1z"/>
			<path fill="#2E9ED3" d="M167.5,30.2c0,11.8-7.4,19.9-18.7,19.9c-6.3,0-11-2.5-13.9-7.1v21.2h-8.5V10.4h8.5v6.8
				c2.9-4.6,7.6-7.1,13.8-7.1C159.8,10.1,167.5,18.2,167.5,30.2z M158.9,29.9c0-7.3-5-12.7-12-12.7s-12,5.3-12,12.7
				c0,7.6,5,12.9,12,12.9S158.9,37.5,158.9,29.9z"/>
			<path fill="#2E9ED3" d="M211,33.3h-29.8c1.3,6.1,6,9.9,12.2,9.9c4.3,0,8.2-1.6,11.1-4.6l4.5,4.8c-3.9,4.2-9.5,6.7-16.3,6.7
				c-12.1,0-20.1-8.1-20.1-19.9c0-11.9,8.2-20,19.9-20.1C206.4,10.1,212,19.1,211,33.3z M203.6,27.1c-0.3-6.4-4.5-10.2-11-10.2
				c-6.2,0-10.6,3.9-11.6,10.2H203.6z"/>
			<path fill="#2E9ED3" d="M257.6,25.2v24.5h-8.5V27.6c0-5.9-3.6-9.6-9.5-9.6c-6.5,0.1-10.6,4.6-11.2,10.7v21h-8.5V10.4h8.5V18
				c2.8-5.5,7.9-7.8,14.5-7.8C252.1,10.1,257.6,15.8,257.6,25.2z"/>
			<path fill="#D8DBE4" d="M301.5,16.5l-4.7,5.5c-2.7-2.8-6.5-4.5-11.3-4.4c-6.8,0-11.7,5.1-11.7,12.6s4.9,12.6,11.7,12.6
				c5,0,9-1.6,11.6-4.7l4.7,4.7c-3.6,4.7-9.3,7.3-16.7,7.3c-11.7,0-19.9-8.1-19.9-19.9c0-11.9,8.1-20.1,19.9-20.1
				C292.3,10.1,297.8,12.4,301.5,16.5z"/>
			<path fill="#D8DBE4" d="M332.8,45c-2.8,3.5-7.3,5.2-13,5.2c-8.5,0-13.9-5.3-13.9-12.2c0-7.2,5.4-11.8,14.9-11.9h11.9v-1.2
				c0-5-3.2-7.9-9.4-7.9c-3.8,0-7.7,1.3-11.6,4l-3.5-5.9c5.5-3.3,9.5-5,17-5c10.1,0,15.9,5.2,15.9,13.8l0.1,25.9h-8.4V45z
				 M332.7,35.9v-3.6H322c-5.6,0-8.1,1.5-8.1,5.3c0,3.6,2.9,5.9,7.6,5.9C327.6,43.4,332.3,40.2,332.7,35.9z"/>
			<path fill="#D8DBE4" d="M361.1,18.2c2.7-5.3,7.4-8.1,13.6-8.1v8.1c-7.9-0.4-13,4.2-13.6,11v20.6h-8.5V10.4h8.5V18.2z"/>
			<path fill="#D8DBE4" d="M416.4,33.3h-29.8c1.3,6.1,6,9.9,12.2,9.9c4.3,0,8.2-1.6,11.1-4.6l4.5,4.8c-3.9,4.2-9.5,6.7-16.3,6.7
				C386,50.1,378,42,378,30.2c0-11.9,8.2-20,19.9-20.1C411.8,10.1,417.5,19.1,416.4,33.3z M409,27.1c-0.3-6.4-4.5-10.2-11-10.2
				c-6.2,0-10.6,3.9-11.6,10.2H409z"/>
		</g>
		<g>
			<g>
				
					<rect x="10.9" y="12.5" transform="matrix(-0.599 -0.8008 0.8008 -0.599 7.9925 32.9857)" fill="#D8DBE4" width="2.7" height="4"/>
				
					<rect x="17.4" y="7.6" transform="matrix(-0.5994 -0.8005 0.8005 -0.5994 22.2525 30.3136)" fill="#D8DBE4" width="2.7" height="4"/>
				<polygon fill="#D8DBE4" points="49.4,8.8 46,8.2 46.5,5.6 49.8,6.2 				"/>
				
					<rect x="38.4" y="4.5" transform="matrix(-0.9858 -0.1682 0.1682 -0.9858 79.3062 18.423)" fill="#D8DBE4" width="4" height="2.7"/>
				
					<rect x="30.5" y="3.2" transform="matrix(-0.9857 -0.1687 0.1687 -0.9857 63.8323 14.534)" fill="#D8DBE4" width="4" height="2.7"/>
				
					<rect x="21.1" y="45.9" transform="matrix(-0.4897 -0.8719 0.8719 -0.4897 -6.7364 90.6094)" fill="#D8DBE4" width="4" height="2.7"/>
				
					<rect x="17.2" y="39" transform="matrix(-0.4898 -0.8718 0.8718 -0.4898 -6.6081 76.7528)" fill="#D8DBE4" width="4" height="2.7"/>
				
					<rect x="36.7" y="50.8" transform="matrix(-0.4695 -0.8829 0.8829 -0.4695 9.252 111.1083)" fill="#D8DBE4" width="2.7" height="4"/>
				
					<rect x="43.7" y="47" transform="matrix(-0.4698 -0.8828 0.8828 -0.4698 22.9499 111.8189)" fill="#D8DBE4" width="2.7" height="4"/>
				
					<rect x="50.7" y="43.3" transform="matrix(-0.4699 -0.8827 0.8827 -0.4699 36.538 112.5736)" fill="#D8DBE4" width="2.7" height="4"/>
				<path fill="#D8DBE4" d="M53.3,12.7L53.3,12.7h-0.5c-1.7,0-4.1-1.6-4.1-4.1c0-2.8,1.7-4.8,4.1-4.8c2.9,0,4.8,2.1,4.8,4.1
					c0,1.8-0.5,3.2-1.6,4C55.1,12.6,54,12.7,53.3,12.7z M52.8,6.4c-1.3,0-1.5,1.3-1.5,2.1c0,1,1.2,1.5,1.5,1.5h0.5l0,0
					c0.4,0,0.8,0,1.1-0.2c0.3-0.3,0.5-0.9,0.5-1.9C54.9,7.4,54.3,6.4,52.8,6.4z"/>
				<path fill="#D8DBE4" d="M60.7,43.9L60.7,43.9h-0.5c-1.7,0-4.1-1.6-4.1-4.1c0-2.8,1.7-4.8,4.1-4.8c2.9,0,4.8,2.1,4.8,4.1
					c0,1.8-0.5,3.2-1.6,4C62.5,43.8,61.4,43.9,60.7,43.9z M60.2,37.7c-1.3,0-1.5,1.3-1.5,2.1c0,1,1.2,1.5,1.5,1.5h0.5l0,0
					c0.4,0,0.8,0,1.1-0.2c0.3-0.3,0.5-0.9,0.5-1.9C62.3,38.6,61.7,37.7,60.2,37.7z"/>
				<path fill="#D8DBE4" d="M50.2,63.9L50.2,63.9h-0.5c-1.7,0-4.1-1.6-4.1-4.1c0-2.9,1.7-4.8,4.1-4.8c2.9,0,4.8,2.2,4.8,4.1
					c0,1.8-0.5,3.2-1.6,4C51.9,63.8,50.9,63.9,50.2,63.9z M49.7,57.7c-1.3,0-1.5,1.3-1.5,2.1c0,1,1.2,1.5,1.5,1.5h0.5l0,0
					c0.4,0,0.8,0,1.1-0.2c0.3-0.3,0.5-0.9,0.5-1.9C51.8,58.6,51.1,57.7,49.7,57.7z"/>
				<path fill="#D8DBE4" d="M29.2,61.9L29.2,61.9h-0.5c-1.7,0-4.1-1.6-4.1-4.1c0-2.9,1.7-4.8,4.1-4.8c2.9,0,4.8,2.2,4.8,4.1
					c0,1.8-0.5,3.2-1.6,4C31,61.9,29.9,61.9,29.2,61.9z M28.7,55.7c-1.2,0-1.5,1.1-1.5,2.1s1.2,1.5,1.5,1.5h0.5l0,0
					c0.4,0,0.8,0,1.1-0.2c0.3-0.3,0.5-0.9,0.5-1.9C30.8,56.7,30.2,55.7,28.7,55.7z"/>
				<path fill="#D8DBE4" d="M12.7,56.9L12.7,56.9h-0.5c-1.7,0-4.1-1.6-4.1-4.1c0-2.9,1.7-4.8,4.1-4.8c2.9,0,4.8,2.1,4.8,4.1
					c0,1.8-0.5,3.2-1.6,4C14.5,56.8,13.4,56.9,12.7,56.9z M12.2,50.6c-1.3,0-1.5,1.3-1.5,2.1c0,1,1.2,1.5,1.5,1.5h0.5l0,0
					c0.4,0,0.8,0,1.1-0.2c0.3-0.3,0.5-0.9,0.5-1.9C14.3,51.6,13.7,50.6,12.2,50.6z"/>
				<path fill="#D8DBE4" d="M16.4,40.3L16.4,40.3h-0.5c-1.7,0-4.1-1.6-4.1-4.1c0-2.9,1.7-4.8,4.1-4.8c2.9,0,4.8,2.1,4.8,4.1
					c0,1.8-0.5,3.2-1.6,4C18.2,40.3,17.1,40.3,16.4,40.3z M15.9,34.1c-1.3,0-1.5,1.3-1.5,2.1c0,1,1.2,1.5,1.5,1.5h0.5l0,0
					c0.4,0,0.8,0,1.1-0.2c0.3-0.3,0.5-0.9,0.5-1.9C18,35.1,17.4,34.1,15.9,34.1z"/>
				<path fill="#D8DBE4" d="M7.4,19.8l0.9-0.7L6.7,17l-1,0.7C6.7,18.2,7.2,19,7.4,19.8z"/>
				<path fill="#D8DBE4" d="M4.5,24.9L4.5,24.9H4c-1.7,0-4.1-1.6-4.1-4.1C-0.1,18,1.6,16,4,16c2.9,0,4.8,2.2,4.8,4.1
					c0,1.8-0.5,3.2-1.6,4C6.2,24.8,5.2,24.9,4.5,24.9z M4,18.6c-1.3,0-1.5,1.3-1.5,2.1c0,1,1.2,1.5,1.5,1.5h0.5l0,0
					c0.4,0,0.8,0,1.1-0.2c0.3-0.3,0.5-0.9,0.5-1.9C6.1,19.6,5.4,18.6,4,18.6z"/>
				<path fill="#D8DBE4" d="M25.1,3.9c0-0.3,0-0.5,0.1-0.8L22.7,5l1.6,2.1L26,5.8C25.5,5.4,25.1,4.7,25.1,3.9z"/>
				<path fill="#D8DBE4" d="M28.4,8L28.4,8h-0.5c-1.7,0-4.1-1.6-4.1-4.1c0-2.9,1.7-4.8,4.1-4.8c2.9,0,4.8,2.1,4.8,4.1
					c0,1.8-0.5,3.2-1.6,4C30.2,8,29.1,8,28.4,8z M27.9,1.8c-1.3,0-1.5,1.3-1.5,2.1c0,1,1.2,1.5,1.5,1.5h0.5l0,0c0.4,0,0.8,0,1.1-0.2
					C29.8,4.9,30,4.3,30,3.3C30,2.8,29.4,1.8,27.9,1.8z"/>
				<path fill="#D8DBE4" d="M12.2,49.3c0.9,0,1.6,0.3,2.2,0.6L16.6,39c-0.2,0-0.5,0-0.6,0c-0.5,0-1.3-0.3-1.9-0.8l-2.2,11.2
					C11.9,49.3,12.1,49.3,12.2,49.3z"/>
				<path fill="#D8DBE4" d="M28.5,54.4l-1.4-2.5l-2.3,1.3l1.5,2.7C26.7,55,27.5,54.4,28.5,54.4z"/>
				<path fill="#D8DBE4" d="M25.9,58.3c0-0.2-0.1-0.4-0.1-0.6c0-0.8,0.2-1.5,0.5-2.1L15.6,52c0,0,0,0,0,0.1c0,1.2-0.3,2-0.7,2.5
					L25.9,58.3z"/>
				<path fill="#D8DBE4" d="M32.1,57.2c0,0.1,0,0.2,0,0.2l1.2-0.6l-1.2-2.3L30.9,55C31.7,55.6,32.1,56.4,32.1,57.2z"/>
				<path fill="#D8DBE4" d="M57.6,40.8L50,56.4c1.1,0.1,1.9,0.6,2.4,1.2l7.3-15C59,42.3,58.1,41.8,57.6,40.8z"/>
				<path fill="#D8DBE4" d="M28.8,5.8l-2.6,0.5l2,10.2c1.1,0.1,2,0.3,2.8,0.6L28.8,5.8z"/>
				<path fill="#D8DBE4" d="M18.4,33.7c0.6,0.5,0.9,1.3,0.9,1.9c0,0.2,0,0.4,0,0.6l5.4-2.5c-0.5-0.7-1.1-1.4-1.6-2.2L18.4,33.7z"/>
				<path fill="#D8DBE4" d="M20.5,23.3L7.4,20.9c-0.2,1.7-1.1,2.3-1.9,2.5l8.1,11c0.4-0.9,1.1-1.5,2.1-1.6L9.2,24l11.6,2.1
					c-0.2-0.8-0.3-1.6-0.3-2.4C20.4,23.6,20.5,23.5,20.5,23.3z"/>
				<path fill="#D8DBE4" d="M28.1,54.4c0.2,0,0.4-0.1,0.6-0.1c0.8,0,1.5,0.2,2,0.5l1.7-14.7c-0.6-0.1-1.3-0.4-2.5-1.4L28.1,54.4z"/>
				<path fill="#D8DBE4" d="M47.3,57.7c0.4-0.8,1.2-1.4,2.3-1.4L37.4,37.4c-0.6,0.6-1.4,1.2-2.1,1.7L47.3,57.7z"/>
				<polygon fill="#D8DBE4" points="33,35.4 33,35.2 32.8,35.3 				"/>
				<path fill="#D8DBE4" d="M55.5,10.6c-0.7,0.9-1.9,0.9-2.5,0.9l5.6,24.1l-15-6.5c-0.4,0.8-0.8,1.6-1.3,2.3L57.6,38
					c0.4-1.1,1.2-1.8,2.5-1.8c0.5,0,1,0.1,1.4,0.2L55.5,10.6z"/>
				<path fill="#D8DBE4" d="M43.8,19.7l8.2-8.5c-0.7-0.3-1.6-0.9-1.9-1.9L42,17.7C42.7,18.3,43.3,19,43.8,19.7z"/>
			</g>
			<path fill="#2E9ED3" d="M37.7,18.7c-4.2,0-5,3.7-5,3.7s-0.7-3.7-5-3.7c-2.8,0-5,2.2-5,5c0,6.5,9.1,14.1,10,14.1
				c1.2,0,10-7.7,10-14.1C42.7,21,40.5,18.7,37.7,18.7z"/>
		</g>
	</g>
</g>
</svg>
