<?xml version="1.0" encoding="utf-8"?>
<!-- Generator: Adobe Illustrator 16.0.0, SVG Export Plug-In . SVG Version: 6.00 Build 0)  -->
<!DOCTYPE svg PUBLIC "-//W3C//DTD SVG 1.1//EN" "http://www.w3.org/Graphics/SVG/1.1/DTD/svg11.dtd">
<svg version="1.1" id="Layer_1" xmlns="http://www.w3.org/2000/svg" xmlns:xlink="http://www.w3.org/1999/xlink" x="0px" y="0px"
	 width="416.6px" height="65px" viewBox="0 0 416.6 65" enable-background="new 0 0 416.6 65" xml:space="preserve">
<g>
	<g>
		<path fill="#2D9CD3" d="M117.3,30.9c0,11.9-8.4,20-20.5,20c-12.2,0-20.6-8.2-20.6-20c0-11.9,8.4-20,20.6-20
			C108.9,10.9,117.3,19,117.3,30.9z M84.7,31c0,7.6,5,12.8,12.1,12.8c7,0,12-5.2,12-12.8c0-7.6-5-12.7-12-12.7
			C89.6,18.3,84.7,23.4,84.7,31z"/>
		<path fill="#2D9CD3" d="M167.6,31.1c0,11.8-7.4,19.8-18.6,19.8c-6.3,0-11-2.5-13.9-7.1V65h-8.5V11.2h8.5V18
			c2.9-4.6,7.6-7.1,13.8-7.1C160,10.9,167.6,19.1,167.6,31.1z M159,30.8c0-7.3-5-12.7-12-12.7s-12,5.3-12,12.7c0,7.6,5,12.9,12,12.9
			C154.1,43.7,159,38.3,159,30.8z"/>
		<path fill="#2D9CD3" d="M211.2,34.2h-29.8c1.3,6.1,6,9.9,12.2,9.9c4.3,0,8.2-1.6,11.1-4.6l4.5,4.8c-3.9,4.2-9.5,6.7-16.3,6.7
			c-12.2,0-20.2-8.1-20.2-19.9c0-11.9,8.2-20,19.9-20.1C206.6,10.9,212.2,20,211.2,34.2z M203.8,28c-0.3-6.4-4.5-10.2-11-10.2
			c-6.2,0-10.6,3.9-11.6,10.2H203.8z"/>
		<path fill="#2D9CD3" d="M257.8,26.1v24.5h-8.5V28.5c0-5.9-3.6-9.6-9.5-9.6c-6.5,0.1-10.6,4.6-11.2,10.7v21h-8.5V11.2h8.5v7.6
			c2.8-5.5,7.9-7.9,14.5-7.9C252.3,10.9,257.8,16.7,257.8,26.1z"/>
		<path fill="#60257E" d="M301.7,17.4l-4.7,5.5c-2.7-2.8-6.5-4.5-11.3-4.4c-6.8,0-11.7,5.1-11.7,12.6c0,7.5,4.9,12.6,11.7,12.6
			c5,0,9-1.6,11.6-4.7l4.7,4.7c-3.6,4.7-9.3,7.3-16.7,7.3c-11.7,0-19.9-8.1-19.9-19.9c0-11.9,8.1-20.1,19.9-20.1
			C292.5,10.9,298,13.2,301.7,17.4z"/>
		<path fill="#60257E" d="M333,45.8c-2.8,3.5-7.3,5.2-13,5.2c-8.5,0-13.9-5.3-13.9-12.2c0-7.2,5.4-11.8,14.9-11.9h11.9v-1.2
			c0-5-3.2-7.9-9.4-7.9c-3.8,0-7.7,1.3-11.6,4l-3.5-5.9c5.5-3.3,9.5-5,17-5c10.2,0,15.9,5.2,15.9,13.9l0.1,25.9H333V45.8z
			 M332.9,36.8v-3.6h-10.7c-5.6,0-8.2,1.5-8.2,5.3c0,3.6,2.9,5.9,7.6,5.9C327.8,44.3,332.5,41.1,332.9,36.8z"/>
		<path fill="#60257E" d="M361.3,19.1c2.7-5.3,7.4-8.1,13.6-8.1v8.1c-7.9-0.4-13,4.2-13.6,11v20.6h-8.5V11.2h8.5V19.1z"/>
		<path fill="#60257E" d="M416.6,34.2h-29.8c1.3,6.1,6,9.9,12.2,9.9c4.3,0,8.2-1.6,11.1-4.6l4.5,4.8c-3.9,4.2-9.5,6.7-16.3,6.7
			c-12.1,0-20.2-8.1-20.2-19.9c0-11.9,8.2-20,19.9-20.1C412,10.9,417.7,20,416.6,34.2z M409.2,28c-0.3-6.4-4.5-10.2-11-10.2
			c-6.2,0-10.6,3.9-11.6,10.2H409.2z"/>
	</g>
	<g>
		<g>
			
				<rect x="11" y="13.2" transform="matrix(-0.5989 -0.8008 0.8008 -0.5989 7.5204 34.2669)" fill="#60257E" width="2.7" height="4"/>
			
				<rect x="17.4" y="8.5" transform="matrix(-0.5997 -0.8002 0.8002 -0.5997 21.5806 31.781)" fill="#60257E" width="2.7" height="4"/>
			<polygon fill="#60257E" points="49.5,9.7 46.2,9.1 46.6,6.4 50,7.1 			"/>
			
				<rect x="38.5" y="5.4" transform="matrix(-0.9858 -0.168 0.168 -0.9858 79.2915 20.2163)" fill="#60257E" width="4" height="2.7"/>
			
				<rect x="30.7" y="4" transform="matrix(-0.9857 -0.1685 0.1685 -0.9857 64.0368 16.1461)" fill="#60257E" width="4" height="2.7"/>
			
				<rect x="21.2" y="46.8" transform="matrix(-0.4891 -0.8722 0.8722 -0.4891 -7.5216 91.9537)" fill="#60257E" width="4" height="2.7"/>
			
				<rect x="17.3" y="39.8" transform="matrix(-0.4895 -0.872 0.872 -0.4895 -7.1184 78.1274)" fill="#60257E" width="4" height="2.7"/>
			
				<rect x="36.8" y="51.6" transform="matrix(-0.4699 -0.8827 0.8827 -0.4699 8.7753 112.4923)" fill="#60257E" width="2.7" height="4"/>
			
				<rect x="43.8" y="47.9" transform="matrix(-0.4702 -0.8826 0.8826 -0.4702 22.3696 113.2739)" fill="#60257E" width="2.7" height="4"/>
			
				<rect x="50.8" y="44.1" transform="matrix(-0.4693 -0.883 0.883 -0.4693 36.0032 113.7613)" fill="#60257E" width="2.7" height="4"/>
			<path fill="#60257E" d="M53.4,13.5L53.4,13.5h-0.5c-1.7,0-4.1-1.6-4.1-4.1c0-2.9,1.7-4.8,4.1-4.8c2.9,0,4.8,2.2,4.8,4.1
				c0,1.8-0.5,3.2-1.6,4C55.2,13.4,54.2,13.5,53.4,13.5z M53,7.3c-1.3,0-1.5,1.3-1.5,2.1c0,1,1.2,1.5,1.5,1.5h0.5l0,0
				c0.4,0,0.8,0,1.1-0.2c0.3-0.3,0.5-0.9,0.5-1.9C55.1,8.3,54.4,7.3,53,7.3z"/>
			<path fill="#60257E" d="M60.9,44.8L60.9,44.8h-0.5c-1.7,0-4.1-1.6-4.1-4.1c0-2.9,1.7-4.8,4.1-4.8c2.9,0,4.8,2.1,4.8,4.1
				c0,1.8-0.5,3.2-1.6,4C62.6,44.7,61.6,44.8,60.9,44.8z M60.4,38.5c-1.3,0-1.5,1.3-1.5,2.1c0,1,1.2,1.5,1.5,1.5h0.5l0,0
				c0.4,0,0.8,0,1.1-0.2c0.3-0.3,0.5-0.9,0.5-1.9C62.5,39.5,61.9,38.5,60.4,38.5z"/>
			<path fill="#60257E" d="M50.3,64.8L50.3,64.8h-0.5c-1.7,0-4.1-1.6-4.1-4.1c0-2.9,1.7-4.8,4.1-4.8c2.9,0,4.8,2.2,4.8,4.1
				c0,1.8-0.5,3.2-1.6,4C52.1,64.7,51,64.8,50.3,64.8z M49.8,58.5c-1.3,0-1.5,1.3-1.5,2.1c0,1,1.2,1.5,1.5,1.5h0.5l0,0
				c0.4,0,0.8,0,1.1-0.2c0.3-0.3,0.5-0.9,0.5-1.9C51.9,59.5,51.3,58.5,49.8,58.5z"/>
			<path fill="#60257E" d="M29.3,62.8L29.3,62.8h-0.5c-1.7,0-4.1-1.6-4.1-4.1c0-2.9,1.7-4.8,4.1-4.8c2.9,0,4.8,2.1,4.8,4.1
				c0,1.8-0.5,3.2-1.6,4C31.1,62.7,30.1,62.8,29.3,62.8z M28.8,56.5c-1.2,0-1.5,1.1-1.5,2.1s1.2,1.5,1.5,1.5h0.5l0,0
				c0.4,0,0.8,0,1.1-0.2c0.3-0.3,0.5-0.9,0.5-1.9C31,57.5,30.3,56.5,28.8,56.5z"/>
			<path fill="#60257E" d="M12.9,57.8L12.9,57.8h-0.5c-1.7,0-4.1-1.6-4.1-4.1c0-2.9,1.7-4.8,4.1-4.8c2.9,0,4.8,2.2,4.8,4.1
				c0,1.8-0.5,3.2-1.6,4C14.6,57.7,13.6,57.8,12.9,57.8z M12.4,51.5c-1.3,0-1.5,1.3-1.5,2.1c0,1,1.2,1.5,1.5,1.5h0.5l0,0
				c0.4,0,0.8,0,1.1-0.2c0.3-0.3,0.5-0.9,0.5-1.9C14.5,52.5,13.8,51.5,12.4,51.5z"/>
			<path fill="#60257E" d="M16.6,41.2L16.6,41.2h-0.5c-1.7,0-4.1-1.6-4.1-4.1c0-2.9,1.7-4.8,4.1-4.8c2.9,0,4.8,2.2,4.8,4.1
				c0,1.8-0.5,3.2-1.6,4C18.3,41.1,17.3,41.2,16.6,41.2z M16.1,34.9c-1.3,0-1.5,1.3-1.5,2.1c0,1,1.2,1.5,1.5,1.5h0.5l0,0
				c0.4,0,0.8,0,1.1-0.2c0.3-0.3,0.5-0.9,0.5-1.9C18.2,35.9,17.6,34.9,16.1,34.9z"/>
			<path fill="#60257E" d="M7.5,20.6l0.9-0.7l-1.6-2.1l-1,0.7C6.8,19,7.4,19.8,7.5,20.6z"/>
			<path fill="#60257E" d="M4.6,25.7L4.6,25.7H4.1c-1.7,0-4.1-1.6-4.1-4.1c0-2.9,1.7-4.8,4.1-4.8c2.9,0,4.8,2.1,4.8,4.1
				c0,1.8-0.5,3.2-1.6,4C6.4,25.6,5.3,25.7,4.6,25.7z M4.1,19.5c-1.3,0-1.5,1.3-1.5,2.1c0,1,1.2,1.5,1.5,1.5h0.5l0,0
				c0.4,0,0.8,0,1.1-0.2C6,22.6,6.2,22,6.2,21C6.2,20.5,5.6,19.5,4.1,19.5z"/>
			<path fill="#60257E" d="M25.3,4.7c0-0.3,0-0.5,0.1-0.8l-2.6,2L24.4,8l1.7-1.3C25.6,6.2,25.3,5.6,25.3,4.7z"/>
			<path fill="#60257E" d="M28.6,8.9L28.6,8.9h-0.5c-1.7,0-4.1-1.6-4.1-4.1C24,1.9,25.7,0,28.1,0c2.9,0,4.8,2.1,4.8,4.1
				c0,1.8-0.5,3.2-1.6,4C30.3,8.8,29.3,8.9,28.6,8.9z M28.1,2.6c-1.3,0-1.5,1.3-1.5,2.1c0,1,1.2,1.5,1.5,1.5h0.5l0,0
				c0.4,0,0.8,0,1.1-0.2c0.3-0.3,0.5-0.9,0.5-1.9C30.2,3.6,29.5,2.6,28.1,2.6z"/>
			<path fill="#60257E" d="M12.4,50.2c0.9,0,1.6,0.3,2.2,0.6l2.1-10.9c-0.2,0-0.5,0-0.6,0c-0.5,0-1.3-0.3-1.9-0.8L12,50.3
				C12.1,50.2,12.2,50.2,12.4,50.2z"/>
			<path fill="#60257E" d="M28.7,55.2l-1.4-2.5L25,54l1.5,2.7C26.9,55.9,27.6,55.3,28.7,55.2z"/>
			<path fill="#60257E" d="M26.1,59.2c0-0.2-0.1-0.4-0.1-0.6c0-0.8,0.2-1.5,0.5-2.1l-10.7-3.6c0,0,0,0,0,0.1c0,1.2-0.3,2-0.7,2.5
				L26.1,59.2z"/>
			<path fill="#60257E" d="M32.3,58c0,0.1,0,0.2,0,0.2l1.2-0.6l-1.2-2.3l-1.2,0.6C31.9,56.5,32.3,57.3,32.3,58z"/>
			<path fill="#60257E" d="M57.8,41.7l-7.6,15.6c1.1,0.1,1.9,0.6,2.4,1.2l7.3-15C59.2,43.2,58.2,42.6,57.8,41.7z"/>
			<path fill="#60257E" d="M29,6.6l-2.6,0.5l2,10.2c1.1,0.1,2,0.3,2.8,0.6L29,6.6z"/>
			<path fill="#60257E" d="M18.6,34.5c0.6,0.6,0.9,1.3,0.9,1.9c0,0.2,0,0.4,0,0.6l5.4-2.5c-0.5-0.7-1.1-1.4-1.6-2.2L18.6,34.5z"/>
			<path fill="#60257E" d="M20.6,24.2L7.5,21.8c-0.2,1.7-1.1,2.3-1.9,2.5l8.1,11c0.4-0.9,1.1-1.5,2.1-1.6l-6.5-8.8l11.6,2
				c-0.2-0.8-0.3-1.6-0.3-2.4C20.6,24.5,20.6,24.3,20.6,24.2z"/>
			<path fill="#60257E" d="M28.2,55.3c0.2,0,0.4-0.1,0.6-0.1c0.8,0,1.5,0.2,2,0.5L32.5,41c-0.6-0.1-1.3-0.4-2.5-1.4L28.2,55.3z"/>
			<path fill="#60257E" d="M47.5,58.6c0.4-0.8,1.2-1.4,2.3-1.4L37.5,38.3c-0.6,0.6-1.4,1.2-2.1,1.7L47.5,58.6z"/>
			<polygon fill="#60257E" points="33.1,36.3 33.1,36 33,36.1 			"/>
			<path fill="#60257E" d="M55.7,11.4c-0.7,0.9-1.9,0.9-2.5,0.9l5.6,24.2l-15-6.5c-0.4,0.8-0.8,1.6-1.3,2.3l15.3,6.6
				c0.4-1.1,1.2-1.8,2.5-1.8c0.5,0,1,0.1,1.4,0.2L55.7,11.4z"/>
			<path fill="#60257E" d="M44,20.6l8.2-8.5c-0.7-0.3-1.6-0.9-1.9-1.9l-8.1,8.4C42.9,19.2,43.5,19.8,44,20.6z"/>
		</g>
		<path fill="#2D9CD3" d="M37.9,19.6c-4.2,0-5,3.7-5,3.7s-0.7-3.7-5-3.7c-2.8,0-5,2.2-5,5c0,6.5,9.1,14.1,10,14.1
			c1.2,0,10-7.7,10-14.1C42.9,21.8,40.6,19.6,37.9,19.6z"/>
	</g>
</g>
</svg>
