<?xml version="1.0" encoding="utf-8"?>
<!-- Generator: Adobe Illustrator 16.0.0, SVG Export Plug-In . SVG Version: 6.00 Build 0)  -->
<!DOCTYPE svg PUBLIC "-//W3C//DTD SVG 1.1//EN" "http://www.w3.org/Graphics/SVG/1.1/DTD/svg11.dtd">
<svg version="1.1" id="Layer_1" xmlns="http://www.w3.org/2000/svg" xmlns:xlink="http://www.w3.org/1999/xlink" x="0px" y="0px"
	 width="400px" height="400px" viewBox="0 0 400 400" enable-background="new 0 0 400 400" xml:space="preserve">
<rect x="85.7" y="98.4" transform="matrix(-0.5993 -0.8005 0.8005 -0.5993 61.0302 248.5922)" fill="#60257F" width="14.1" height="21.2"/>
<rect x="119.6" y="73" transform="matrix(-0.5996 -0.8003 0.8003 -0.5996 135.786 235.0926)" fill="#60257F" width="14.1" height="21.2"/>
<polygon fill="#60257F" points="290.3,79.3 272.4,75.9 274.8,61.9 292.7,65.3 "/>
<rect x="231.6" y="56.5" transform="matrix(-0.9858 -0.168 0.168 -0.9858 470.3508 166.886)" fill="#60257F" width="21.2" height="14.1"/>
<rect x="189.8" y="49.3" transform="matrix(-0.9858 -0.1679 0.1679 -0.9858 388.4599 145.659)" fill="#60257F" width="21.2" height="14.2"/>
<rect x="139.4" y="276.9" transform="matrix(-0.4895 -0.872 0.872 -0.4895 -24.1399 553.7579)" fill="#60257F" width="21.2" height="14.2"/>
<rect x="118.6" y="239.9" transform="matrix(-0.4895 -0.872 0.872 -0.4895 -22.8085 480.5062)" fill="#60257F" width="21.2" height="14.1"/>
<rect x="222.5" y="302.7" transform="matrix(-0.47 -0.8827 0.8827 -0.47 60.9919 663.1489)" fill="#60257F" width="14.2" height="21.2"/>
<rect x="260" y="282.7" transform="matrix(-0.4698 -0.8827 0.8827 -0.4698 133.5924 666.9226)" fill="#60257F" width="14.2" height="21.2"/>
<rect x="297.5" y="262.8" transform="matrix(-0.4697 -0.8828 0.8828 -0.4697 206.2051 670.6621)" fill="#60257F" width="14.2" height="21.2"/>
<g>
	<defs>
		<rect id="SVGID_1_" width="400" height="400"/>
	</defs>
	<clipPath id="SVGID_2_">
		<use xlink:href="#SVGID_1_"  overflow="visible"/>
	</clipPath>
	<path clip-path="url(#SVGID_2_)" fill="#60257F" d="M311.2,99.6L311.2,99.6l-2.6,0c-9.2,0-22-8.4-22-22.1c0-15.2,8.9-25.4,22-25.4
		c15.7,0,25.4,11.5,25.4,22c0,9.8-2.8,16.9-8.4,21.2C320.6,99.2,315,99.6,311.2,99.6 M308.6,66.3c-6.9,0-7.9,7-7.9,11.2
		c0,5.5,6.3,7.9,7.9,7.9l2.6,0c1.9,0,4.3-0.1,5.8-1.3c1.8-1.4,2.9-5,2.9-10C319.8,71.5,316.4,66.3,308.6,66.3"/>
	<path clip-path="url(#SVGID_2_)" fill="#60257F" d="M350.7,266L350.7,266l-2.6,0c-9.2,0-22-8.4-22-22c0-15.2,8.9-25.4,22-25.4
		c15.7,0,25.4,11.4,25.4,22c0,9.8-2.8,16.9-8.4,21.2C360.1,265.5,354.5,266,350.7,266 M348.1,232.6c-6.9,0-7.9,7-7.9,11.2
		c0,5.4,6.3,7.9,7.9,7.9l2.6,0c1.9,0,4.3-0.1,5.8-1.3c1.9-1.4,2.9-5,2.9-10C359.3,237.9,355.9,232.6,348.1,232.6"/>
	<path clip-path="url(#SVGID_2_)" fill="#60257F" d="M294.5,372.5L294.5,372.5l-2.6,0c-9.2,0-22-8.4-22-22c0-15.2,8.9-25.4,22-25.4
		c15.7,0,25.4,11.4,25.4,22.1c0,9.8-2.8,16.9-8.4,21.2C304,372.1,298.3,372.5,294.5,372.5 M291.9,339.2c-6.9,0-7.9,7-7.9,11.2
		c0,5.4,6.3,7.9,7.9,7.9l2.6,0c1.9,0,4.3-0.1,5.8-1.3c1.8-1.4,2.9-5,2.9-10C303.2,344.4,299.8,339.2,291.9,339.2"/>
	<path clip-path="url(#SVGID_2_)" fill="#60257F" d="M182.8,362L182.8,362l-2.6,0c-9.2,0-22-8.4-22-22c0-15.2,8.9-25.4,22-25.4
		c15.7,0,25.4,11.4,25.4,22.1c0,9.8-2.8,16.9-8.4,21.2C192.3,361.5,186.6,362,182.8,362 M180.2,328.6c-6.5,0-7.9,6.1-7.9,11.2
		c0,5.5,6.3,7.9,7.9,7.9l2.6,0c1.9,0,4.3-0.1,5.8-1.3c1.8-1.4,2.9-5,2.9-10C191.5,333.9,188.1,328.6,180.2,328.6"/>
	<path clip-path="url(#SVGID_2_)" fill="#60257F" d="M95.1,335.1L95.1,335.1l-2.6,0c-9.2,0-22-8.4-22-22c0-15.2,8.9-25.4,22-25.4
		c15.7,0,25.4,11.5,25.4,22.1c0,9.8-2.8,16.9-8.4,21.2C104.6,334.6,98.9,335.1,95.1,335.1 M92.5,301.8c-6.9,0-7.9,7-7.9,11.2
		c0,5.4,6.3,7.9,7.9,7.9l2.6,0c1.9,0,4.3-0.1,5.8-1.3c1.8-1.4,2.9-5,2.9-10C103.7,307,100.3,301.8,92.5,301.8"/>
	<path clip-path="url(#SVGID_2_)" fill="#60257F" d="M114.9,247L114.9,247l-2.6,0c-9.2,0-22.1-8.4-22.1-22
		c0-15.2,8.9-25.4,22.1-25.4c15.7,0,25.4,11.4,25.4,22c0,9.8-2.8,16.9-8.4,21.2C124.3,246.5,118.7,247,114.9,247 M112.3,213.6
		c-6.9,0-7.9,7-7.9,11.2c0,5.4,6.3,7.9,7.9,7.9l2.6,0c1.9,0,4.3-0.1,5.8-1.3c1.8-1.4,2.9-5,2.9-10
		C123.5,218.9,120.1,213.6,112.3,213.6"/>
	<path clip-path="url(#SVGID_2_)" fill="#60257F" d="M66.7,137.4l4.8-3.6L63,122.4l-5.2,3.9C62.9,128.8,66,133.2,66.7,137.4"/>
	<path clip-path="url(#SVGID_2_)" fill="#60257F" d="M51.2,164.6L51.2,164.6l-2.6,0c-9.2,0-22.1-8.4-22.1-22.1
		c0-15.2,8.9-25.4,22-25.4c15.7,0,25.4,11.4,25.4,22c0,9.8-2.8,16.9-8.4,21.2C60.6,164.1,55,164.6,51.2,164.6 M48.6,131.2
		c-6.9,0-7.9,7-7.9,11.2c0,5.5,6.3,7.9,7.9,7.9l2.6,0c1.9,0,4.3-0.1,5.8-1.3c1.8-1.4,2.9-5,2.9-10C59.8,136.5,56.4,131.2,48.6,131.2
		"/>
	<path clip-path="url(#SVGID_2_)" fill="#60257F" d="M161.1,52.9c0-1.4,0.1-2.8,0.3-4.1l-13.5,10.1l8.5,11.3l9.3-6.9
		C163.1,60.8,161.1,57.3,161.1,52.9"/>
	<path clip-path="url(#SVGID_2_)" fill="#60257F" d="M178.7,74.9L178.7,74.9l-2.6,0c-9.2,0-22-8.4-22-22c0-15.2,8.9-25.4,22-25.4
		c15.7,0,25.4,11.4,25.4,22.1c0,9.8-2.8,16.9-8.4,21.2C188.1,74.5,182.5,74.9,178.7,74.9 M176.1,41.6c-6.9,0-7.9,7-7.9,11.2
		c0,5.5,6.3,7.9,7.9,7.9l2.6,0c1.9,0,4.3-0.1,5.8-1.3c1.8-1.4,2.9-5,2.9-10C187.3,46.9,183.9,41.6,176.1,41.6"/>
	<path clip-path="url(#SVGID_2_)" fill="#60257F" d="M92.5,294.7c4.7,0,8.5,1.4,11.5,3.4l11.7-58.3c-1.3,0-2.5,0-3.4,0
		c-2.7,0-6.9-1.5-10.1-4.4l-11.9,59.5C91,294.8,91.7,294.7,92.5,294.7"/>
	<path clip-path="url(#SVGID_2_)" fill="#60257F" d="M179.3,321.7l-7.5-13.4l-12.3,6.9l8,14.2C169.7,324.9,173.6,322,179.3,321.7"/>
	<path clip-path="url(#SVGID_2_)" fill="#60257F" d="M165.6,342.8c-0.2-0.9-0.3-1.9-0.3-3c0-4.3,0.9-8.1,2.6-11.2l-57.1-19.3
		c0,0.1,0,0.2,0,0.3c0,6.5-1.4,10.7-3.5,13.4L165.6,342.8z"/>
	<path clip-path="url(#SVGID_2_)" fill="#60257F" d="M198.5,336.5c0,0.5,0,0.9-0.1,1.3l6.3-3.4l-6.6-12.5l-6.1,3.3
		C196.2,328.3,198.5,332.7,198.5,336.5"/>
	<path clip-path="url(#SVGID_2_)" fill="#60257F" d="M334.3,249.4L294,332.3c5.7,0.5,10,3,12.7,6.2l38.9-80
		C341.6,257.6,336.5,254.5,334.3,249.4"/>
	<path clip-path="url(#SVGID_2_)" fill="#60257F" d="M181,62.8l-13.9,2.7l10.6,54.2c5.8,0.3,10.8,1.5,15.1,3.4L181,62.8z"/>
	<path clip-path="url(#SVGID_2_)" fill="#60257F" d="M125.6,211.4c3.2,2.9,4.9,6.7,4.9,10.1c0,1.2-0.1,2.3-0.1,3.3l29-13.2
		c-2.9-3.6-5.8-7.5-8.5-11.7L125.6,211.4z"/>
	<path clip-path="url(#SVGID_2_)" fill="#60257F" d="M136.4,156.4l-69.9-12.6c-1.2,9-5.9,12.1-10.4,13.1l43,58.4
		c2-4.7,5.8-7.8,11.4-8.4l-34.6-47l61.9,11.1c-1-4.1-1.5-8.3-1.5-12.5C136.3,157.8,136.4,157.1,136.4,156.4"/>
	<path clip-path="url(#SVGID_2_)" fill="#60257F" d="M177,321.9c1-0.2,2.1-0.3,3.2-0.3c4.3,0,7.9,1.1,10.7,2.9l9.1-78.4
		c-3.2-0.4-7-2.1-13.4-7.2L177,321.9z"/>
	<path clip-path="url(#SVGID_2_)" fill="#60257F" d="M279.4,339.5c2.3-4.4,6.3-7.2,12.1-7.4l-65-100.8c-3.5,3.2-7.2,6.5-11,9.1
		L279.4,339.5z"/>
	<polygon clip-path="url(#SVGID_2_)" fill="#60257F" points="202.9,220.9 203.1,219.5 202.3,220 	"/>
	<path clip-path="url(#SVGID_2_)" fill="#60257F" d="M323.1,88.5c-3.9,4.7-9.9,4.6-13.5,4.6l30.1,128.8l-79.7-34.4
		c-2.1,4.3-4.4,8.5-6.9,12.4l81.7,35.2c2.1-5.6,6.5-9.5,13.4-9.5c2.7,0,5.1,0.5,7.3,1.3L323.1,88.5z"/>
	<path clip-path="url(#SVGID_2_)" fill="#60257F" d="M260.8,137.2l43.5-45.1c-4-1.5-8.5-4.8-10.1-9.9L251,127
		C254.9,129.8,258.2,133.3,260.8,137.2"/>
	<path clip-path="url(#SVGID_2_)" fill="#2FA6DC" d="M228.3,132c-22.1,0-26.5,19.5-26.5,19.5s-3.5-19.5-26.5-19.5
		c-14.7,0-26.5,11.9-26.5,26.5c0,34.6,48.3,75.3,53.1,75.3c6.5,0,53.1-41.1,53.1-75.3C254.8,143.9,242.9,132,228.3,132"/>
</g>
</svg>
