<?xml version="1.0" encoding="utf-8"?>
<!-- Generator: Adobe Illustrator 18.0.0, SVG Export Plug-In . SVG Version: 6.00 Build 0)  -->
<!DOCTYPE svg PUBLIC "-//W3C//DTD SVG 1.1//EN" "http://www.w3.org/Graphics/SVG/1.1/DTD/svg11.dtd">
<svg version="1.1" id="Layer_1" xmlns="http://www.w3.org/2000/svg" xmlns:xlink="http://www.w3.org/1999/xlink" x="0px" y="0px"
	 viewBox="0 0 1040.1 1288.7" enable-background="new 0 0 1040.1 1288.7" xml:space="preserve">
<g>
	<path fill="#2D9ED3" d="M198.9,1201.7c0,30.2-21.4,51-52.4,51c-31.2,0-52.6-20.8-52.6-51c0-30.4,21.4-51,52.6-51
		C177.5,1150.7,198.9,1171.3,198.9,1201.7z M115.7,1201.9c0,19.5,12.7,32.7,30.8,32.7c18,0,30.6-13.2,30.6-32.7
		c0-19.3-12.7-32.5-30.6-32.5C128.4,1169.4,115.7,1182.6,115.7,1201.9z"/>
	<path fill="#2D9ED3" d="M327.5,1202.1c0,30.1-18.9,50.7-47.6,50.7c-16.1,0-28.2-6.4-35.5-18.1v54.1h-21.7v-137.2h21.7v17.4
		c7.4-11.7,19.5-18.1,35.2-18.1C308,1150.7,327.5,1171.5,327.5,1202.1z M305.5,1201.4c0-18.7-12.7-32.5-30.6-32.5
		c-18,0-30.6,13.6-30.6,32.5c0,19.5,12.7,32.9,30.6,32.9C292.9,1234.2,305.5,1220.6,305.5,1201.4z"/>
	<path fill="#2D9ED3" d="M438.6,1210.1h-76c3.4,15.5,15.3,25.1,31.2,25.1c11,0,21-4.2,28.4-11.7l11.5,12.3
		c-9.8,10.8-24.2,17-41.6,17c-31,0-51.4-20.6-51.4-50.9c0-30.4,21-51,50.9-51.2C426.9,1150.7,441.3,1173.8,438.6,1210.1z
		 M419.7,1194.2c-0.8-16.3-11.5-26.1-28-26.1c-15.9,0-27,10-29.5,26.1H419.7z"/>
	<path fill="#2D9ED3" d="M557.5,1189.4v62.6h-21.7v-56.5c0-15.1-9.1-24.4-24.2-24.4c-16.6,0.2-27,11.7-28.5,27.4v53.5h-21.7v-100.6
		H483v19.3c7.2-14,20-20,37.1-20C543.5,1150.7,557.5,1165.4,557.5,1189.4z"/>
	<path fill="#602480" d="M669.4,1167.1l-11.9,14c-7-7.2-16.6-11.5-28.7-11.3c-17.4,0-29.9,13-29.9,32.1c0,19.1,12.5,32.1,29.9,32.1
		c12.7,0,22.9-4.2,29.7-12.1l12.1,12.1c-9.1,11.9-23.6,18.7-42.7,18.7c-29.9,0-50.7-20.6-50.7-50.9c0-30.4,20.8-51.2,50.7-51.2
		C646,1150.7,660.2,1156.6,669.4,1167.1z"/>
	<path fill="#602480" d="M749.4,1239.7c-7.2,8.9-18.7,13.2-33.3,13.2c-21.7,0-35.4-13.4-35.4-31.2c0-18.3,13.8-30.1,38-30.2h30.4v-3
		c0-12.7-8.1-20.2-24-20.2c-9.6,0-19.7,3.4-29.7,10.2l-8.9-15.1c14-8.3,24.2-12.7,43.3-12.7c25.9,0,40.5,13.2,40.6,35.4l0.2,66
		h-21.4V1239.7z M749.2,1216.7v-9.3H722c-14.2,0-20.8,3.8-20.8,13.4c0,9.1,7.4,14.9,19.5,14.9
		C736.2,1235.8,748.1,1227.6,749.2,1216.7z"/>
	<path fill="#602480" d="M821.6,1171.5c6.8-13.6,18.9-20.8,34.8-20.8v20.8c-20.2-1.1-33.1,10.8-34.8,28v52.6h-21.7v-100.6h21.7
		V1171.5z"/>
	<path fill="#602480" d="M962.8,1210.1h-76c3.4,15.5,15.3,25.1,31.2,25.1c11,0,21-4.2,28.4-11.7l11.5,12.3
		c-9.8,10.8-24.2,17-41.6,17c-31,0-51.4-20.6-51.4-50.9c0-30.4,21-51,50.9-51.2C951.1,1150.7,965.5,1173.8,962.8,1210.1z
		 M943.9,1194.2c-0.8-16.3-11.5-26.1-28-26.1c-15.9,0-27,10-29.5,26.1H943.9z"/>
</g>
<g>
	<g>
		<polygon fill="#602480" points="211.8,209 237.3,243 186.2,281.3 160.7,247.2 		"/>
		<polygon fill="#602480" points="313.9,132.5 339.4,166.5 288.3,204.8 262.8,170.7 		"/>
		<polygon fill="#602480" points="793,155.7 739.2,145.5 746.3,103.5 800.2,113.8 		"/>
		<polygon fill="#602480" points="620.6,82.1 683.5,92.8 676.3,134.7 613.4,124 		"/>
		<polygon fill="#602480" points="494.8,60.6 557.6,71.3 550.5,113.3 487.6,102.6 		"/>
		<polygon fill="#602480" points="374.2,732.8 405.4,788.4 368.3,809.2 337.1,753.6 		"/>
		
			<rect x="276.9" y="638.4" transform="matrix(-0.4895 -0.872 0.872 -0.4895 -115.337 1251.9132)" fill="#602480" width="63.8" height="42.5"/>
		<polygon fill="#602480" points="628.6,825.4 648.6,862.9 592.3,892.9 572.3,855.4 		"/>
		
			<rect x="701.8" y="767.4" transform="matrix(-0.4698 -0.8828 0.8828 -0.4698 357.1678 1813.0359)" fill="#602480" width="42.5" height="63.8"/>
		<polygon fill="#602480" points="853.9,705.5 873.9,743.1 817.5,773 797.6,735.5 		"/>
		<path fill="#602480" d="M855.6,216.9L855.6,216.9l-7.8-0.1c-27.7,0-66.3-25.2-66.3-66.3c0-45.6,26.6-76.3,66.3-76.3
			c47.1,0,76.3,34.4,76.3,66.3c0,29.4-8.5,50.9-25.3,63.7C884.1,215.6,867.1,216.9,855.6,216.9z M847.8,116.7
			c-20.7,0-23.7,21.1-23.7,33.8c0,16.4,18.9,23.7,23.7,23.7l7.8,0.1l0,0c5.7,0,12.9-0.4,17.4-3.9c5.5-4.3,8.6-14.9,8.6-30
			C881.6,132.5,871.4,116.7,847.8,116.7z"/>
		<path fill="#602480" d="M974.4,716.9L974.4,716.9l-7.8-0.1c-27.7,0-66.3-25.2-66.3-66.3c0-45.6,26.6-76.3,66.3-76.3
			c47.1,0,76.3,34.4,76.3,66.3c0,29.4-8.5,50.9-25.3,63.7C1002.9,715.6,985.9,716.9,974.4,716.9z M966.6,616.8
			c-20.7,0-23.7,21.1-23.7,33.8c0,16.4,18.9,23.7,23.7,23.7l7.8,0.1l0,0c5.7,0,12.9-0.4,17.4-3.9c5.6-4.3,8.6-14.9,8.6-30
			C1000.4,632.5,990.2,616.8,966.6,616.8z"/>
		<path fill="#602480" d="M805.6,1037.3L805.6,1037.3l-7.8-0.1c-27.7,0-66.3-25.2-66.3-66.3c0-45.6,26.6-76.3,66.3-76.3
			c47.1,0,76.3,34.4,76.3,66.3c0,29.4-8.5,50.9-25.3,63.7C834.1,1036,817.1,1037.3,805.6,1037.3z M797.8,937.1
			c-20.7,0-23.7,21.1-23.7,33.8c0,16.4,18.9,23.7,23.7,23.7l7.8,0.1l0,0c5.7,0,12.9-0.4,17.4-3.9c5.5-4.3,8.6-14.9,8.6-30
			C831.6,952.8,821.4,937.1,797.8,937.1z"/>
		<path fill="#602480" d="M469.8,1005.5L469.8,1005.5l-7.8-0.1c-27.7,0-66.3-25.2-66.3-66.3c0-45.6,26.6-76.3,66.3-76.3
			c47.1,0,76.3,34.4,76.3,66.3c0,29.4-8.5,50.9-25.3,63.7C498.2,1004.2,481.3,1005.5,469.8,1005.5z M462,905.4
			c-19.6,0-23.7,18.4-23.7,33.8c0,16.4,18.9,23.8,23.7,23.8l7.8,0.1l0,0c5.7,0,12.9-0.5,17.4-3.9c5.5-4.3,8.6-14.9,8.6-30
			C495.8,921.1,485.6,905.4,462,905.4z"/>
		<path fill="#602480" d="M206.1,924.7L206.1,924.7l-7.8-0.1c-27.7,0-66.3-25.2-66.3-66.3c0-45.7,26.6-76.3,66.3-76.3
			c47.1,0,76.3,34.4,76.3,66.3c0,29.4-8.5,50.9-25.3,63.7C234.6,923.4,217.6,924.7,206.1,924.7z M198.3,824.6
			c-20.7,0-23.7,21.2-23.7,33.8c0,16.4,18.9,23.7,23.7,23.7l7.8,0.1l0,0c5.7,0,12.9-0.4,17.4-3.9c5.5-4.3,8.6-14.9,8.6-30
			C232.1,840.3,221.9,824.6,198.3,824.6z"/>
		<path fill="#602480" d="M265.5,659.8L265.5,659.8l-7.8-0.1c-27.7,0-66.3-25.2-66.3-66.3c0-45.6,26.6-76.3,66.3-76.3
			c47.1,0,76.3,34.4,76.3,66.3c0,29.4-8.5,50.9-25.2,63.7C293.9,658.4,277,659.8,265.5,659.8z M257.7,559.6
			c-20.7,0-23.8,21.1-23.8,33.8c0,16.4,18.9,23.7,23.8,23.7l7.8,0.1l0,0c5.7,0,12.9-0.4,17.4-3.9c5.5-4.3,8.6-14.9,8.6-30
			C291.5,575.3,281.3,559.6,257.7,559.6z"/>
		<path fill="#602480" d="M120.7,330.3l14.4-10.8l-25.5-34.1l-15.6,11.6C109.3,304.7,118.6,317.9,120.7,330.3z"/>
		<path fill="#602480" d="M74.1,412.1L74.1,412.1l-7.8-0.1C38.6,412,0,386.8,0,345.7c0-45.6,26.6-76.3,66.3-76.3
			c47.1,0,76.3,34.4,76.3,66.3c0,29.4-8.5,50.9-25.3,63.7C102.5,410.8,85.5,412.1,74.1,412.1z M66.3,311.9
			c-20.7,0-23.7,21.2-23.7,33.8c0,16.4,18.9,23.8,23.7,23.8l7.8,0.1l0,0c5.7,0,12.9-0.4,17.4-3.9c5.5-4.3,8.6-14.9,8.6-30
			C100,327.7,89.8,311.9,66.3,311.9z"/>
		<path fill="#602480" d="M404.5,76.3c0-4.3,0.4-8.4,0.9-12.4L365,94.3l25.5,34l27.9-20.9C410.5,100,404.5,89.7,404.5,76.3z"/>
		<path fill="#602480" d="M457.3,142.7L457.3,142.7l-7.8-0.1c-27.7,0-66.3-25.2-66.3-66.3c0-45.6,26.6-76.3,66.3-76.3
			c47.1,0,76.3,34.4,76.3,66.3c0,29.4-8.5,50.9-25.3,63.7C485.8,141.4,468.8,142.7,457.3,142.7z M449.5,42.5
			c-20.7,0-23.7,21.1-23.7,33.8c0,16.4,18.9,23.7,23.7,23.7l7.8,0.1l0,0c5.7,0,12.9-0.4,17.4-3.9c5.5-4.3,8.6-14.9,8.6-30
			C483.3,58.3,473.1,42.5,449.5,42.5z"/>
		<path fill="#602480" d="M198.3,803.3c14.1,0,25.6,4.2,34.6,10.3l35.1-175.2c-4,0.1-7.5-0.1-10.2-0.1c-8.2,0-20.7-4.5-30.5-13.3
			L191.4,804C193.7,803.7,195.9,803.3,198.3,803.3z"/>
		<path fill="#602480" d="M459.3,884.4l-22.6-40.3l-37.1,20.8l24,42.8C430.3,894.2,442.1,885.3,459.3,884.4z"/>
		<path fill="#602480" d="M418,948c-0.6-2.8-1-5.8-1-8.9c0-12.8,2.7-24.4,8-33.7l-171.7-58.1c0,0.3,0.1,0.7,0.1,1
			c0,19.6-4.3,32.2-10.6,40.4L418,948z"/>
		<path fill="#602480" d="M517,929.1c0,1.4-0.1,2.6-0.2,4l19.1-10.2l-20-37.6l-18.4,9.8C510.1,904.3,517,917.5,517,929.1z"/>
		<path fill="#602480" d="M925.1,667.3L803.9,916.4c17,1.5,30,9,38.2,18.6l117-240.5C947.3,691.7,931.9,682.6,925.1,667.3z"/>
		<path fill="#602480" d="M464.4,106.3l-41.7,8.2l31.9,162.8c17.5,0.9,32.6,4.6,45.4,10.3L464.4,106.3z"/>
		<path fill="#602480" d="M297.9,553c9.6,8.8,14.8,20.2,14.8,30.3c0,3.5-0.2,6.8-0.4,9.9l87.1-39.7c-8.7-10.8-17.3-22.6-25.5-35.1
			L297.9,553z"/>
		<path fill="#602480" d="M330.4,387.6l-210-37.7c-3.6,27.2-17.6,36.5-31.2,39.5l129.2,175.4c6.1-14,17.5-23.6,34.2-25.3
			L148.4,398.1l186.1,33.4c-2.9-12.4-4.5-25.1-4.5-37.7C330,391.8,330.3,389.7,330.4,387.6z"/>
		<path fill="#602480" d="M452.3,885.1c3.1-0.6,6.3-1,9.7-1c12.9,0,23.6,3.4,32.2,8.7l27.2-235.6c-9.7-1.2-20.9-6.4-40.3-21.6
			L452.3,885.1z"/>
		<path fill="#602480" d="M760.2,938.1c7-13.1,19-21.7,36.4-22.1L601,612.8c-10.4,9.7-21.7,19.4-33,27.3L760.2,938.1z"/>
		<polygon fill="#602480" points="530.2,581.5 530.7,577.2 528.4,578.7 		"/>
		<path fill="#602480" d="M891.4,183.3c-11.8,14.2-29.8,13.9-40.5,13.7l90.4,387.1L701.6,480.8c-6.2,13-13.3,25.5-20.9,37.3
			L926.3,624c6.4-16.9,19.6-28.5,40.4-28.5c8.2,0,15.4,1.5,21.9,3.8L891.4,183.3z"/>
		<path fill="#602480" d="M704.4,329.9l130.7-135.6c-12-4.4-25.4-14.3-30.3-29.9L674.9,299.2C686.5,307.6,696.5,318,704.4,329.9z"/>
	</g>
	<path fill="#2D9ED3" d="M606.5,314.1c-66.5,0-79.7,58.5-79.7,58.5s-10.6-58.5-79.8-58.5c-44.1,0-79.8,35.7-79.8,79.7
		c0,104.1,145.3,226.4,159.5,226.4c19.5,0,159.5-123.6,159.5-226.4C686.3,349.8,650.6,314.1,606.5,314.1z"/>
</g>
</svg>
