<?xml version="1.0" encoding="utf-8"?>
<!-- Generator: Adobe Illustrator 18.0.0, SVG Export Plug-In . SVG Version: 6.00 Build 0)  -->
<!DOCTYPE svg PUBLIC "-//W3C//DTD SVG 1.1//EN" "http://www.w3.org/Graphics/SVG/1.1/DTD/svg11.dtd">
<svg version="1.1" id="Layer_1" xmlns="http://www.w3.org/2000/svg" xmlns:xlink="http://www.w3.org/1999/xlink" x="0px" y="0px"
	 viewBox="243 0 598.9 595.3" enable-background="new 243 0 598.9 595.3" xml:space="preserve">
<g>
	<g>
		<polygon fill="#602480" points="364.5,119.9 379.2,139.5 349.9,161.4 335.2,141.9 		"/>
		<polygon fill="#602480" points="423.1,76 437.8,95.6 408.4,117.5 393.8,98 		"/>
		<polygon fill="#602480" points="698.1,89.4 667.2,83.5 671.3,59.4 702.2,65.3 		"/>
		<polygon fill="#602480" points="599.1,47.1 635.2,53.3 631.1,77.3 595,71.2 		"/>
		<polygon fill="#602480" points="527,34.8 563,40.9 558.9,65 522.8,58.9 		"/>
		<polygon fill="#602480" points="457.7,420.5 475.6,452.4 454.4,464.4 436.5,432.5 		"/>
		
			<rect x="401.9" y="366.4" transform="matrix(0.4895 0.872 -0.872 0.4895 544.6509 -173.1182)" fill="#602480" width="36.6" height="24.4"/>
		<polygon fill="#602480" points="603.7,473.7 615.2,495.2 582.9,512.4 571.4,490.9 		"/>
		
			<rect x="645.9" y="440.3" transform="matrix(0.4698 0.8828 -0.8828 0.4698 753.7717 -337.7695)" fill="#602480" width="24.4" height="36.6"/>
		<polygon fill="#602480" points="733,404.9 744.5,426.4 712.1,443.6 700.7,422.1 		"/>
		<path fill="#602480" d="M734,124.5L734,124.5l-4.5-0.1c-15.9,0-38-14.5-38-38c0-26.2,15.3-43.8,38-43.8c27,0,43.8,19.7,43.8,38
			c0,16.9-4.9,29.2-14.5,36.6C750.4,123.7,740.6,124.5,734,124.5z M729.5,67c-11.9,0-13.6,12.1-13.6,19.4c0,9.4,10.8,13.6,13.6,13.6
			l4.5,0.1l0,0c3.3,0,7.4-0.2,10-2.2c3.2-2.5,4.9-8.6,4.9-17.2C748.9,76,743.1,67,729.5,67z"/>
		<path fill="#602480" d="M802.2,411.4L802.2,411.4l-4.5-0.1c-15.9,0-38-14.5-38-38c0-26.2,15.3-43.8,38-43.8
			c27,0,43.8,19.7,43.8,38c0,16.9-4.9,29.2-14.5,36.6C818.5,410.7,808.8,411.4,802.2,411.4z M797.7,354c-11.9,0-13.6,12.1-13.6,19.4
			c0,9.4,10.8,13.6,13.6,13.6l4.5,0.1l0,0c3.3,0,7.4-0.2,10-2.2c3.2-2.5,4.9-8.6,4.9-17.2C817.1,363,811.2,354,797.7,354z"/>
		<path fill="#602480" d="M705.3,595.3L705.3,595.3l-4.5-0.1c-15.9,0-38-14.5-38-38c0-26.2,15.3-43.8,38-43.8
			c27,0,43.8,19.7,43.8,38c0,16.9-4.9,29.2-14.5,36.6C721.7,594.5,711.9,595.3,705.3,595.3z M700.8,537.8
			c-11.9,0-13.6,12.1-13.6,19.4c0,9.4,10.8,13.6,13.6,13.6l4.5,0.1l0,0c3.3,0,7.4-0.2,10-2.2c3.2-2.5,4.9-8.6,4.9-17.2
			C720.2,546.8,714.4,537.8,700.8,537.8z"/>
		<path fill="#602480" d="M512.6,577L512.6,577l-4.5-0.1c-15.9,0-38-14.5-38-38c0-26.2,15.3-43.8,38-43.8c27,0,43.8,19.7,43.8,38
			c0,16.9-4.9,29.2-14.5,36.6C528.9,576.3,519.2,577,512.6,577z M508.1,519.6c-11.2,0-13.6,10.6-13.6,19.4
			c0,9.4,10.8,13.7,13.6,13.7l4.5,0.1l0,0c3.3,0,7.4-0.3,10-2.2c3.2-2.5,4.9-8.6,4.9-17.2C527.5,528.6,521.7,519.6,508.1,519.6z"/>
		<path fill="#602480" d="M361.3,530.7L361.3,530.7l-4.5-0.1c-15.9,0-38-14.5-38-38c0-26.2,15.3-43.8,38-43.8
			c27,0,43.8,19.7,43.8,38c0,16.9-4.9,29.2-14.5,36.6C377.6,529.9,367.9,530.7,361.3,530.7z M356.8,473.2
			c-11.9,0-13.6,12.2-13.6,19.4c0,9.4,10.8,13.6,13.6,13.6l4.5,0.1l0,0c3.3,0,7.4-0.2,10-2.2c3.2-2.5,4.9-8.6,4.9-17.2
			C376.2,482.2,370.3,473.2,356.8,473.2z"/>
		<path fill="#602480" d="M395.4,378.6L395.4,378.6l-4.5-0.1c-15.9,0-38-14.5-38-38c0-26.2,15.3-43.8,38-43.8
			c27,0,43.8,19.7,43.8,38c0,16.9-4.9,29.2-14.5,36.6C411.7,377.8,402,378.6,395.4,378.6z M390.9,321.1c-11.9,0-13.7,12.1-13.7,19.4
			c0,9.4,10.8,13.6,13.7,13.6l4.5,0.1l0,0c3.3,0,7.4-0.2,10-2.2c3.2-2.5,4.9-8.6,4.9-17.2C410.3,330.1,404.4,321.1,390.9,321.1z"/>
		<path fill="#602480" d="M312.3,189.6l8.3-6.2L306,163.8l-9,6.7C305.7,174.9,311.1,182.4,312.3,189.6z"/>
		<path fill="#602480" d="M285.5,236.5L285.5,236.5l-4.5-0.1c-15.9,0-38-14.5-38-38c0-26.2,15.3-43.8,38-43.8
			c27,0,43.8,19.7,43.8,38c0,16.9-4.9,29.2-14.5,36.6C301.8,235.7,292.1,236.5,285.5,236.5z M281,179c-11.9,0-13.6,12.2-13.6,19.4
			c0,9.4,10.8,13.7,13.6,13.7l4.5,0.1l0,0c3.3,0,7.4-0.2,10-2.2c3.2-2.5,4.9-8.6,4.9-17.2C300.4,188.1,294.5,179,281,179z"/>
		<path fill="#602480" d="M475.1,43.8c0-2.5,0.2-4.8,0.5-7.1l-23.2,17.4L467,73.6l16-12C478.6,57.4,475.1,51.5,475.1,43.8z"/>
		<path fill="#602480" d="M505.4,81.9L505.4,81.9l-4.5-0.1c-15.9,0-38-14.5-38-38c0-26.2,15.3-43.8,38-43.8c27,0,43.8,19.7,43.8,38
			c0,16.9-4.9,29.2-14.5,36.6C521.8,81.1,512,81.9,505.4,81.9z M501,24.4c-11.9,0-13.6,12.1-13.6,19.4c0,9.4,10.8,13.6,13.6,13.6
			l4.5,0.1l0,0c3.3,0,7.4-0.2,10-2.2c3.2-2.5,4.9-8.6,4.9-17.2C520.4,33.5,514.5,24.4,501,24.4z"/>
		<path fill="#602480" d="M356.8,461c8.1,0,14.7,2.4,19.9,5.9l20.1-100.5c-2.3,0.1-4.3-0.1-5.9-0.1c-4.7,0-11.9-2.6-17.5-7.6
			l-20.6,102.7C354.2,461.2,355.4,461,356.8,461z"/>
		<path fill="#602480" d="M506.6,507.5l-13-23.1l-21.3,11.9l13.8,24.6C489.9,513.2,496.7,508.1,506.6,507.5z"/>
		<path fill="#602480" d="M482.9,544c-0.3-1.6-0.6-3.3-0.6-5.1c0-7.3,1.5-14,4.6-19.3l-98.5-33.3c0,0.2,0.1,0.4,0.1,0.6
			c0,11.2-2.5,18.5-6.1,23.2L482.9,544z"/>
		<path fill="#602480" d="M539.7,533.2c0,0.8-0.1,1.5-0.1,2.3l11-5.9L539.1,508l-10.6,5.6C535.7,519,539.7,526.5,539.7,533.2z"/>
		<path fill="#602480" d="M773.9,382.9l-69.6,143c9.8,0.9,17.2,5.2,21.9,10.7l67.1-138C786.6,396.9,777.8,391.7,773.9,382.9z"/>
		<path fill="#602480" d="M509.5,61l-23.9,4.7l18.3,93.4c10,0.5,18.7,2.6,26.1,5.9L509.5,61z"/>
		<path fill="#602480" d="M414,317.4c5.5,5.1,8.5,11.6,8.5,17.4c0,2-0.1,3.9-0.2,5.7l50-22.8c-5-6.2-9.9-13-14.6-20.1L414,317.4z"/>
		<path fill="#602480" d="M432.6,222.4l-120.5-21.6c-2.1,15.6-10.1,20.9-17.9,22.7l74.1,100.7c3.5-8,10-13.5,19.6-14.5l-59.8-81.2
			l106.8,19.2c-1.7-7.1-2.6-14.4-2.6-21.6C432.4,224.8,432.5,223.6,432.6,222.4z"/>
		<path fill="#602480" d="M502.6,507.9c1.8-0.3,3.6-0.6,5.6-0.6c7.4,0,13.5,2,18.5,5l15.6-135.2c-5.6-0.7-12-3.7-23.1-12.4
			L502.6,507.9z"/>
		<path fill="#602480" d="M679.3,538.4c4-7.5,10.9-12.5,20.9-12.7L588,351.7c-6,5.6-12.5,11.1-18.9,15.7L679.3,538.4z"/>
		<polygon fill="#602480" points="547.3,333.7 547.6,331.2 546.2,332.1 		"/>
		<path fill="#602480" d="M754.5,105.2c-6.8,8.1-17.1,8-23.2,7.9l51.9,222.1l-137.6-59.3c-3.6,7.5-7.6,14.6-12,21.4l140.9,60.8
			c3.7-9.7,11.2-16.4,23.2-16.4c4.7,0,8.8,0.9,12.6,2.2L754.5,105.2z"/>
		<path fill="#602480" d="M647.2,189.3l75-77.8c-6.9-2.5-14.6-8.2-17.4-17.2l-74.5,77.4C637,176.5,642.7,182.5,647.2,189.3z"/>
	</g>
	<path fill="#2D9ED3" d="M591.1,180.3c-38.2,0-45.7,33.6-45.7,33.6s-6.1-33.6-45.8-33.6c-25.3,0-45.8,20.5-45.8,45.7
		c0,59.7,83.4,129.9,91.5,129.9c11.2,0,91.5-70.9,91.5-129.9C636.8,200.7,616.4,180.3,591.1,180.3z"/>
</g>
</svg>
