<?xml version="1.0" encoding="utf-8"?>
<!-- Generator: Adobe Illustrator 16.0.0, SVG Export Plug-In . SVG Version: 6.00 Build 0)  -->
<!DOCTYPE svg PUBLIC "-//W3C//DTD SVG 1.1//EN" "http://www.w3.org/Graphics/SVG/1.1/DTD/svg11.dtd">
<svg version="1.1" id="Layer_1" xmlns="http://www.w3.org/2000/svg" xmlns:xlink="http://www.w3.org/1999/xlink" x="0px" y="0px"
	 width="1040.1px" height="1288.7px" viewBox="0 0 1040.1 1288.7" enable-background="new 0 0 1040.1 1288.7" xml:space="preserve">
<g>
	<g>
		<g>
			<polygon fill="#D7DAE3" points="212.5,214.2 237.8,248.1 187,286.2 161.6,252.3 			"/>
			
				<rect x="280.2" y="142.3" transform="matrix(-0.5994 -0.8005 0.8005 -0.5994 342.7603 519.6102)" fill="#D7DAE3" width="42.4" height="63.5"/>
			<polygon fill="#D7DAE3" points="791.2,161.2 737.6,150.9 744.7,109.2 798.3,119.4 			"/>
			<polygon fill="#D7DAE3" points="619.5,87.9 682.1,98.5 675,140.3 612.4,129.6 			"/>
			<polygon fill="#D7DAE3" points="494.2,66.5 556.8,77.2 549.7,118.9 487.1,108.2 			"/>
			<polygon fill="#D7DAE3" points="374.2,735.7 405.2,791.1 368.3,811.8 337.2,756.4 			"/>
			<polygon fill="#D7DAE3" points="312,624.9 343.1,680.3 306.1,701 275,645.6 			"/>
			<polygon fill="#D7DAE3" points="627.5,827.9 647.4,865.3 591.3,895.1 571.4,857.8 			"/>
			<polygon fill="#D7DAE3" points="739.6,768.3 759.5,805.7 703.4,835.5 683.6,798.1 			"/>
			<polygon fill="#D7DAE3" points="851.8,708.6 871.7,746 815.6,775.8 795.7,738.4 			"/>
			<path fill="#D7DAE3" d="M853.5,222.1L853.5,222.1l-7.8-0.1c-27.5,0-66-25.1-66-66c0-45.4,26.5-76,66-76c46.9,0,76,34.3,76,66
				c0,29.3-8.4,50.7-25.2,63.4C881.9,220.8,864.9,222.1,853.5,222.1z M845.7,122.3c-20.6,0-23.6,21.1-23.6,33.6
				c0,16.3,18.8,23.7,23.6,23.7l7.8,0.1l0,0c5.7,0,12.8-0.4,17.3-3.9c5.5-4.2,8.6-14.8,8.6-29.9C879.4,138,869.2,122.3,845.7,122.3z
				"/>
			<path fill="#D7DAE3" d="M971.8,719.9L971.8,719.9l-7.7-0.1c-27.6,0-66-25.1-66-66c0-45.4,26.5-76,66-76c46.9,0,76,34.3,76,66
				c0,29.3-8.4,50.7-25.2,63.5C1000.1,718.6,983.2,719.9,971.8,719.9z M964,620.2c-20.6,0-23.6,21-23.6,33.6
				c0,16.3,18.8,23.7,23.6,23.7l7.7,0.1l0,0c5.8,0,12.9-0.4,17.3-3.9c5.6-4.2,8.6-14.8,8.6-29.9C997.6,635.9,987.5,620.2,964,620.2z
				"/>
			<path fill="#D7DAE3" d="M803.7,1038.9L803.7,1038.9l-7.7-0.1c-27.6,0-66-25.1-66-66c0-45.4,26.5-76,66-76
				c46.9,0,75.9,34.3,75.9,66c0,29.3-8.4,50.6-25.1,63.4C832,1037.6,815.1,1038.9,803.7,1038.9z M796,939.2
				c-20.6,0-23.7,21-23.7,33.6c0,16.3,18.8,23.6,23.7,23.6l7.7,0.1l0,0c5.7,0,12.8-0.5,17.3-3.9c5.5-4.2,8.6-14.8,8.6-29.9
				C829.5,954.8,819.4,939.2,796,939.2z"/>
			<path fill="#D7DAE3" d="M469.3,1007.2L469.3,1007.2l-7.7-0.1c-27.6,0-66-25.1-66-66c0-45.4,26.5-75.9,66-75.9
				c46.9,0,76,34.3,76,66c0,29.3-8.5,50.6-25.2,63.4C497.7,1005.9,480.8,1007.2,469.3,1007.2z M461.6,907.5
				c-19.5,0-23.6,18.3-23.6,33.6c0,16.3,18.8,23.7,23.6,23.7l7.7,0.1l0,0c5.7,0,12.8-0.5,17.3-3.9c5.5-4.2,8.6-14.8,8.6-29.9
				C495.2,923.2,485.1,907.5,461.6,907.5z"/>
			<path fill="#D7DAE3" d="M206.8,926.8L206.8,926.8l-7.7-0.1c-27.6,0-66-25.1-66-66c0-45.5,26.5-76,66-76c46.9,0,76,34.3,76,66
				c0,29.3-8.5,50.6-25.2,63.4C235.2,925.5,218.3,926.8,206.8,926.8z M199.1,827.1c-20.6,0-23.7,21.1-23.7,33.6
				c0,16.3,18.8,23.6,23.7,23.6l7.7,0.1l0,0c5.7,0,12.8-0.4,17.3-3.8c5.5-4.2,8.6-14.9,8.6-29.9
				C232.7,842.8,222.5,827.1,199.1,827.1z"/>
			<path fill="#D7DAE3" d="M265.9,663L265.9,663l-7.7-0.1c-27.6,0-66-25.1-66-66c0-45.4,26.5-76,66-76c46.9,0,76,34.3,76,66
				c0,29.3-8.4,50.7-25.1,63.4C294.3,661.7,277.4,663,265.9,663z M258.2,563.3c-20.6,0-23.6,21.1-23.6,33.6
				c0,16.3,18.8,23.6,23.6,23.6l7.7,0.1l0,0c5.7,0,12.8-0.4,17.3-3.9c5.5-4.2,8.6-14.8,8.6-29.9C291.8,579,281.7,563.3,258.2,563.3z
				"/>
			<path fill="#D7DAE3" d="M121.7,335l14.4-10.8l-25.4-33.9l-15.5,11.6C110.5,309.5,119.7,322.6,121.7,335z"/>
			<path fill="#D7DAE3" d="M75.4,416.4L75.4,416.4l-7.7-0.1c-27.6,0-66-25.1-66-66c0-45.4,26.5-76,66-76c46.9,0,76,34.3,76,66
				c0,29.3-8.5,50.7-25.2,63.5C103.7,415.1,86.8,416.4,75.4,416.4z M67.6,316.7C47,316.7,44,337.8,44,350.3
				c0,16.3,18.8,23.6,23.6,23.6l7.7,0.1l0,0c5.7,0,12.8-0.4,17.3-3.9c5.5-4.2,8.6-14.8,8.6-29.9C101.2,332.4,91.1,316.7,67.6,316.7z
				"/>
			<path fill="#D7DAE3" d="M404.4,82.1c0-4.2,0.3-8.3,0.9-12.3L365,100l25.4,33.9l27.8-20.8C410.3,105.7,404.4,95.4,404.4,82.1z"/>
			<path fill="#D7DAE3" d="M457,148.2L457,148.2l-7.7-0.1c-27.6,0-66-25.1-66-66c0-45.4,26.5-76,66-76c46.9,0,76,34.3,76,66
				c0,29.3-8.5,50.6-25.2,63.4C485.3,146.9,468.4,148.2,457,148.2z M449.2,48.5c-20.6,0-23.6,21.1-23.6,33.6
				c0,16.3,18.8,23.7,23.6,23.7l7.7,0.1l0,0c5.7,0,12.8-0.4,17.3-3.9c5.5-4.2,8.6-14.8,8.6-29.9C482.8,64.1,472.7,48.5,449.2,48.5z"
				/>
			<path fill="#D7DAE3" d="M199.1,805.9c14.1,0,25.5,4.1,34.4,10.3l34.9-174.4c-4,0.1-7.5-0.1-10.2-0.1c-8.1,0-20.6-4.4-30.3-13.2
				l-35.7,178.1C194.4,806.3,196.6,805.9,199.1,805.9z"/>
			<path fill="#D7DAE3" d="M458.9,886.6l-22.5-40.1l-36.9,20.8l23.9,42.6C430,896.4,441.8,887.5,458.9,886.6z"/>
			<path fill="#D7DAE3" d="M417.8,950c-0.6-2.8-1-5.7-1-8.9c0-12.7,2.7-24.2,7.9-33.5l-171-57.8c0,0.3,0.1,0.7,0.1,1
				c0,19.5-4.3,32.1-10.6,40.2L417.8,950z"/>
			<path fill="#D7DAE3" d="M516.4,931.2c0,1.4-0.1,2.6-0.2,4l19-10.1l-19.9-37.4l-18.3,9.7C509.5,906.5,516.4,919.6,516.4,931.2z"/>
			<path fill="#D7DAE3" d="M922.7,670.5L802,918.5c16.9,1.5,29.9,8.9,38.1,18.6l116.5-239.5C944.7,694.8,929.5,685.7,922.7,670.5z"
				/>
			<path fill="#D7DAE3" d="M463.9,111.9l-41.6,8.2l31.8,162.1c17.4,0.9,32.4,4.6,45.2,10.2L463.9,111.9z"/>
			<path fill="#D7DAE3" d="M298.2,556.7c9.6,8.8,14.7,20.1,14.7,30.2c0,3.5-0.2,6.8-0.4,9.8l86.7-39.5c-8.6-10.7-17.3-22.5-25.4-35
				L298.2,556.7z"/>
			<path fill="#D7DAE3" d="M330.5,392.1l-209.1-37.6c-3.6,27.1-17.5,36.3-31.1,39.3L219,568.5c6.1-14,17.4-23.5,34.1-25.2
				L149.4,402.5l185.3,33.3c-2.9-12.4-4.5-24.9-4.5-37.5C330.2,396.2,330.4,394.1,330.5,392.1z"/>
			<path fill="#D7DAE3" d="M451.9,887.4c3-0.6,6.2-1,9.7-1c12.8,0,23.5,3.4,32.1,8.6l27.1-234.5c-9.6-1.2-20.8-6.3-40.2-21.6
				L451.9,887.4z"/>
			<path fill="#D7DAE3" d="M758.5,940.1c7-13.1,18.9-21.6,36.2-22L600,616.3c-10.3,9.7-21.6,19.3-32.9,27.2L758.5,940.1z"/>
			<polygon fill="#D7DAE3" points="529.5,585.1 530,580.8 527.7,582.3 			"/>
			<path fill="#D7DAE3" d="M889.2,188.6c-11.7,14.1-29.7,13.9-40.3,13.7l90,385.4L700.2,484.9c-6.1,12.9-13.2,25.4-20.8,37.1
				l244.5,105.4c6.4-16.8,19.5-28.4,40.2-28.4c8.1,0,15.4,1.5,21.8,3.8L889.2,188.6z"/>
			<path fill="#D7DAE3" d="M702.9,334.6l130.1-135c-11.9-4.4-25.3-14.3-30.1-29.8L673.6,304C685.1,312.4,695.1,322.7,702.9,334.6z"
				/>
		</g>
		<path fill="#60257F" d="M605.5,318.9c-66.2,0-79.4,58.2-79.4,58.2s-10.6-58.2-79.4-58.2c-43.9,0-79.4,35.5-79.4,79.4
			c0,103.7,144.7,225.4,158.8,225.4c19.4,0,158.8-123.1,158.8-225.4C684.9,354.4,649.3,318.9,605.5,318.9z"/>
	</g>
</g>
<g>
	<path fill="#D7DAE3" d="M217.4,1203.5c0,27.8-19.7,47-48.2,47c-28.7,0-48.3-19.1-48.3-47c0-28,19.6-47,48.3-47
		C197.8,1156.5,217.4,1175.5,217.4,1203.5z M140.9,1203.6c0,17.9,11.7,30.1,28.4,30.1c16.5,0,28.2-12.2,28.2-30.1
		c0-17.7-11.6-29.9-28.2-29.9C152.5,1173.7,140.9,1185.9,140.9,1203.6z"/>
	<path fill="#D7DAE3" d="M335.7,1203.8c0,27.6-17.4,46.6-43.8,46.6c-14.8,0-25.9-5.9-32.7-16.7v49.8h-20v-126.3h20v16
		c6.8-10.8,17.9-16.7,32.4-16.7C317.8,1156.5,335.7,1175.6,335.7,1203.8z M315.6,1203.1c0-17.2-11.7-29.9-28.2-29.9
		c-16.5,0-28.2,12.5-28.2,29.9c0,17.9,11.7,30.2,28.2,30.2C303.9,1233.4,315.6,1220.9,315.6,1203.1z"/>
	<path fill="#D7DAE3" d="M438.1,1211.1h-69.9c3.1,14.3,14.1,23.1,28.7,23.1c10.1,0,19.3-3.8,26.1-10.8l10.6,11.3
		c-9,9.9-22.3,15.7-38.3,15.7c-28.5,0-47.3-19-47.3-46.8c0-28,19.3-47,46.8-47.1C427.3,1156.5,440.5,1177.7,438.1,1211.1z
		 M420.7,1196.5c-0.7-15-10.6-24-25.7-24c-14.6,0-24.9,9.2-27.1,24H420.7z"/>
	<path fill="#D7DAE3" d="M547.5,1192.2v57.6h-20v-52c0-13.9-8.3-22.4-22.3-22.4c-15.3,0.2-24.9,10.8-26.3,25.2v49.2h-20v-92.5h20
		v17.8c6.6-12.9,18.4-18.4,34.1-18.4C534.7,1156.5,547.5,1170.1,547.5,1192.2z"/>
	<path fill="#60257F" d="M650.6,1171.6l-11,12.9c-6.4-6.6-15.3-10.6-26.4-10.5c-16,0-27.5,12-27.5,29.6s11.5,29.6,27.5,29.6
		c11.6,0,21-3.8,27.3-11.1l11.1,11.1c-8.4,11-21.8,17.2-39.3,17.2c-27.5,0-46.6-19-46.6-46.8c0-28,19.1-47.1,46.6-47.1
		C629,1156.5,642,1161.9,650.6,1171.6z"/>
	<path fill="#60257F" d="M724.2,1238.4c-6.6,8.2-17.2,12.2-30.6,12.2c-20,0-32.5-12.3-32.5-28.7c0-16.9,12.7-27.7,35-27.8h28v-2.8
		c0-11.6-7.5-18.6-22.1-18.6c-8.9,0-18.1,3.1-27.3,9.4l-8.2-13.9c12.9-7.6,22.3-11.6,39.8-11.6c23.8,0,37.2,12.2,37.4,32.5l0.2,60.7
		h-19.7V1238.4z M724,1217.2v-8.5h-25c-13,0-19.1,3.5-19.1,12.3c0,8.4,6.8,13.7,17.9,13.7C712,1234.8,723,1227.3,724,1217.2z"/>
	<path fill="#60257F" d="M790.7,1175.6c6.3-12.5,17.4-19.1,32-19.1v19.1c-18.6-1-30.4,9.9-32,25.7v48.3h-20v-92.5h20V1175.6z"/>
	<path fill="#60257F" d="M920.7,1211.1h-69.9c3.1,14.3,14.1,23.1,28.7,23.1c10.1,0,19.3-3.8,26.1-10.8l10.6,11.3
		c-9,9.9-22.3,15.7-38.3,15.7c-28.5,0-47.3-19-47.3-46.8c0-28,19.3-47,46.8-47.1C909.9,1156.5,923.1,1177.7,920.7,1211.1z
		 M903.3,1196.5c-0.7-15-10.6-24-25.7-24c-14.6,0-24.9,9.2-27.1,24H903.3z"/>
</g>
</svg>
