<?xml version="1.0" encoding="utf-8"?>
<!-- Generator: Adobe Illustrator 16.0.0, SVG Export Plug-In . SVG Version: 6.00 Build 0)  -->
<!DOCTYPE svg PUBLIC "-//W3C//DTD SVG 1.1//EN" "http://www.w3.org/Graphics/SVG/1.1/DTD/svg11.dtd">
<svg version="1.1" id="Layer_1" xmlns="http://www.w3.org/2000/svg" xmlns:xlink="http://www.w3.org/1999/xlink" x="0px" y="0px"
	 width="1040.1px" height="1288.7px" viewBox="0 0 1040.1 1288.7" enable-background="new 0 0 1040.1 1288.7" xml:space="preserve">
<g>
	<g>
		<g>
			<g>
				<polygon fill="#60257F" points="211.9,213.1 237.3,247 186.4,285.1 161,251.2 				"/>
				
					<rect x="279.7" y="141.1" transform="matrix(-0.5994 -0.8005 0.8005 -0.5994 342.8792 517.3361)" fill="#60257F" width="42.4" height="63.6"/>
				<polygon fill="#60257F" points="791.1,160 737.4,149.8 744.6,108 798.2,118.2 				"/>
				<polygon fill="#60257F" points="619.2,86.6 681.9,97.3 674.8,139.1 612.1,128.4 				"/>
				<polygon fill="#60257F" points="493.9,65.2 556.5,75.9 549.4,117.7 486.7,107 				"/>
				<polygon fill="#60257F" points="373.7,735 404.8,790.4 367.9,811.2 336.7,755.7 				"/>
				<polygon fill="#60257F" points="311.5,624.1 342.6,679.5 305.6,700.3 274.5,644.9 				"/>
				<polygon fill="#60257F" points="627.2,827.3 647.1,864.7 591,894.6 571.1,857.2 				"/>
				<polygon fill="#60257F" points="739.5,767.6 759.4,805 703.3,834.9 683.4,797.5 				"/>
				<polygon fill="#60257F" points="851.7,707.9 871.6,745.3 815.5,775.2 795.6,737.7 				"/>
				<path fill="#60257F" d="M853.5,220.9L853.5,220.9l-7.8-0.1c-27.6,0-66.1-25.1-66.1-66.1c0-45.5,26.5-76,66.1-76
					c47,0,76,34.3,76,66.1c0,29.3-8.4,50.7-25.2,63.5C881.8,219.6,864.9,220.9,853.5,220.9z M845.7,121.1
					c-20.6,0-23.7,21.1-23.7,33.6c0,16.3,18.8,23.7,23.7,23.7l7.8,0.1l0,0c5.7,0,12.8-0.4,17.3-3.9c5.5-4.2,8.6-14.8,8.6-29.9
					C879.3,136.8,869.2,121.1,845.7,121.1z"/>
				<path fill="#60257F" d="M971.8,719.2L971.8,719.2l-7.7-0.1c-27.6,0-66.1-25.1-66.1-66c0-45.5,26.6-76,66.1-76
					c47,0,76,34.3,76,66.1c0,29.3-8.4,50.7-25.2,63.5C1000.2,717.9,983.3,719.2,971.8,719.2z M964.1,619.4
					c-20.6,0-23.7,21.1-23.7,33.6c0,16.3,18.8,23.7,23.7,23.7l7.7,0.1l0,0c5.7,0,12.9-0.4,17.3-3.9c5.6-4.2,8.6-14.8,8.6-29.9
					C997.7,635.1,987.5,619.4,964.1,619.4z"/>
				<path fill="#60257F" d="M803.6,1038.4L803.6,1038.4l-7.8-0.1c-27.6,0-66.1-25.1-66.1-66.1c0-45.5,26.5-76,66.1-76
					c46.9,0,76,34.3,76,66.1c0,29.3-8.5,50.7-25.2,63.5C832,1037.1,815,1038.4,803.6,1038.4z M795.9,938.6
					c-20.6,0-23.7,21.1-23.7,33.6c0,16.3,18.8,23.6,23.7,23.6l7.8,0.1l0,0c5.7,0,12.8-0.5,17.3-3.9c5.5-4.2,8.6-14.9,8.6-29.9
					C829.5,954.3,819.3,938.6,795.9,938.6z"/>
				<path fill="#60257F" d="M469,1006.8L469,1006.8l-7.8-0.1c-27.6,0-66-25.1-66-66.1c0-45.5,26.5-76,66-76c47,0,76,34.3,76,66.1
					c0,29.3-8.5,50.7-25.2,63.5C497.3,1005.5,480.4,1006.8,469,1006.8z M461.2,907c-19.6,0-23.7,18.3-23.7,33.6
					c0,16.4,18.8,23.7,23.7,23.7l7.8,0.1l0,0c5.7,0,12.8-0.5,17.3-3.9c5.5-4.3,8.6-14.9,8.6-29.9C494.9,922.7,484.7,907,461.2,907z"
					/>
				<path fill="#60257F" d="M206.2,926.3L206.2,926.3l-7.8-0.1c-27.6,0-66-25.1-66-66c0-45.5,26.5-76,66-76c47,0,76,34.3,76,66.1
					c0,29.3-8.5,50.7-25.2,63.5C234.6,924.9,217.7,926.3,206.2,926.3z M198.5,826.5c-20.6,0-23.7,21.1-23.7,33.7
					c0,16.3,18.8,23.6,23.7,23.6l7.8,0.1l0,0c5.7,0,12.8-0.4,17.3-3.8c5.5-4.3,8.6-14.9,8.6-29.9
					C232.1,842.2,221.9,826.5,198.5,826.5z"/>
				<path fill="#60257F" d="M265.4,662.3L265.4,662.3l-7.8-0.1c-27.6,0-66.1-25.1-66.1-66c0-45.5,26.5-76,66.1-76
					c47,0,76,34.3,76,66.1c0,29.3-8.5,50.7-25.2,63.5C293.8,660.9,276.8,662.3,265.4,662.3z M257.7,562.5
					c-20.6,0-23.7,21.1-23.7,33.6c0,16.3,18.8,23.7,23.7,23.7l7.8,0.1l0,0c5.7,0,12.8-0.4,17.3-3.9c5.5-4.2,8.6-14.8,8.6-29.9
					C291.3,578.1,281.1,562.5,257.7,562.5z"/>
				<path fill="#60257F" d="M121.1,334l14.4-10.8l-25.4-33.9l-15.5,11.6C109.8,308.5,119,321.6,121.1,334z"/>
				<path fill="#60257F" d="M74.7,415.5L74.7,415.5l-7.8-0.1c-27.6,0-66.1-25.1-66.1-66.1c0-45.5,26.5-76,66-76
					c47,0,76,34.3,76,66.1c0,29.3-8.5,50.7-25.2,63.5C103,414.1,86.1,415.5,74.7,415.5z M66.9,315.7c-20.6,0-23.7,21.1-23.7,33.6
					c0,16.3,18.8,23.7,23.7,23.7l7.8,0.1l0,0c5.7,0,12.8-0.4,17.3-3.9c5.5-4.2,8.6-14.8,8.6-29.9C100.5,331.3,90.4,315.7,66.9,315.7
					z"/>
				<path fill="#60257F" d="M404,80.8c0-4.2,0.3-8.3,0.9-12.3l-40.3,30.2l25.4,33.9l27.8-20.8C409.9,104.5,404,94.2,404,80.8z"/>
				<path fill="#60257F" d="M456.6,147L456.6,147l-7.8-0.1c-27.6,0-66.1-25.1-66.1-66.1c0-45.5,26.5-76,66-76c47,0,76,34.3,76,66.1
					c0,29.3-8.5,50.7-25.2,63.5C484.9,145.7,468,147,456.6,147z M448.8,47.2c-20.6,0-23.7,21.1-23.7,33.6
					c0,16.3,18.8,23.7,23.7,23.7l7.8,0.1l0,0c5.7,0,12.8-0.4,17.3-3.9c5.5-4.2,8.6-14.9,8.6-29.9C482.5,62.9,472.3,47.2,448.8,47.2z
					"/>
				<path fill="#60257F" d="M198.5,805.3c14.1,0,25.6,4.1,34.4,10.3L267.9,641c-4,0.1-7.5-0.1-10.2-0.1c-8.1,0-20.6-4.4-30.4-13.2
					L191.6,806C193.8,805.7,196,805.3,198.5,805.3z"/>
				<path fill="#60257F" d="M458.5,886.1L436,845.9l-37,20.8l23.9,42.6C429.6,895.8,441.4,887,458.5,886.1z"/>
				<path fill="#60257F" d="M417.4,949.5c-0.6-2.8-1-5.7-1-8.9c0-12.7,2.7-24.3,7.9-33.6l-171.1-57.9c0,0.3,0.1,0.7,0.1,1
					c0,19.6-4.3,32.1-10.6,40.3L417.4,949.5z"/>
				<path fill="#60257F" d="M516.1,930.7c0,1.4-0.1,2.6-0.2,4l19-10.1L515,887.1l-18.3,9.8C509.2,906,516.1,919.1,516.1,930.7z"/>
				<path fill="#60257F" d="M922.7,669.7L802,918c17,1.5,29.9,8.9,38.1,18.6l116.6-239.7C944.8,694.1,929.5,685,922.7,669.7z"/>
				<path fill="#60257F" d="M463.6,110.7l-41.6,8.2l31.8,162.2c17.4,0.9,32.4,4.6,45.2,10.2L463.6,110.7z"/>
				<path fill="#60257F" d="M297.7,555.9c9.6,8.8,14.7,20.1,14.7,30.2c0,3.5-0.2,6.8-0.4,9.8l86.8-39.5c-8.6-10.7-17.3-22.5-25.4-35
					L297.7,555.9z"/>
				<path fill="#60257F" d="M330.1,391.1l-209.3-37.6c-3.6,27.1-17.5,36.4-31.1,39.4l128.8,174.8c6.1-14,17.5-23.5,34.1-25.2
					L148.7,401.6l185.5,33.3c-2.9-12.4-4.5-25-4.5-37.6C329.7,395.2,329.9,393.1,330.1,391.1z"/>
				<path fill="#60257F" d="M451.5,886.8c3-0.6,6.2-1,9.7-1c12.8,0,23.6,3.4,32.1,8.6l27.1-234.7c-9.6-1.2-20.9-6.4-40.2-21.6
					L451.5,886.8z"/>
				<path fill="#60257F" d="M758.4,939.6c7-13.1,18.9-21.6,36.2-22L599.8,615.5c-10.4,9.7-21.7,19.4-32.9,27.2L758.4,939.6z"/>
				<polygon fill="#60257F" points="529.2,584.2 529.7,580 527.4,581.5 				"/>
				<path fill="#60257F" d="M889.1,187.5c-11.7,14.2-29.7,13.9-40.3,13.7l90,385.7L700,484c-6.2,12.9-13.2,25.4-20.8,37.2
					l244.7,105.4c6.4-16.8,19.5-28.4,40.2-28.4c8.1,0,15.4,1.5,21.9,3.8L889.1,187.5z"/>
				<path fill="#60257F" d="M702.7,333.6L833,198.5c-11.9-4.4-25.3-14.3-30.2-29.8L673.4,303C684.9,311.3,694.9,321.7,702.7,333.6z"
					/>
			</g>
			<path fill="#D7DAE3" d="M605.2,317.9c-66.2,0-79.5,58.3-79.5,58.3s-10.6-58.3-79.5-58.3c-43.9,0-79.5,35.6-79.5,79.5
				c0,103.8,144.8,225.6,158.9,225.6c19.4,0,158.9-123.2,158.9-225.6C684.7,353.4,649.1,317.9,605.2,317.9z"/>
		</g>
	</g>
	<g>
		<path fill="#D7DAE3" d="M216.8,1203.2c0,27.9-19.7,47-48.2,47c-28.7,0-48.4-19.1-48.4-47c0-28,19.7-47,48.4-47
			C197.2,1156.2,216.8,1175.2,216.8,1203.2z M140.2,1203.4c0,17.9,11.7,30.1,28.4,30.1c16.5,0,28.2-12.2,28.2-30.1
			c0-17.7-11.7-29.9-28.2-29.9C151.9,1173.4,140.2,1185.6,140.2,1203.4z"/>
		<path fill="#D7DAE3" d="M335.3,1203.5c0,27.7-17.4,46.6-43.9,46.6c-14.8,0-25.9-5.9-32.7-16.7v49.8h-20v-126.4h20v16
			c6.8-10.8,17.9-16.7,32.4-16.7C317.3,1156.2,335.3,1175.3,335.3,1203.5z M315.1,1202.8c0-17.2-11.7-29.9-28.2-29.9
			c-16.5,0-28.2,12.5-28.2,29.9c0,17.9,11.7,30.3,28.2,30.3C303.4,1233.1,315.1,1220.6,315.1,1202.8z"/>
		<path fill="#D7DAE3" d="M437.7,1210.9h-70c3.1,14.3,14.1,23.1,28.7,23.1c10.1,0,19.3-3.8,26.1-10.8l10.6,11.3
			c-9.1,9.9-22.3,15.7-38.3,15.7c-28.6,0-47.3-19-47.3-46.8c0-28,19.3-47,46.8-47.2C426.9,1156.2,440.1,1177.4,437.7,1210.9z
			 M420.3,1196.2c-0.7-15-10.6-24-25.8-24c-14.6,0-24.9,9.2-27.2,24H420.3z"/>
		<path fill="#D7DAE3" d="M547.2,1191.9v57.6h-20v-52c0-13.9-8.4-22.5-22.3-22.5c-15.3,0.2-24.9,10.8-26.3,25.2v49.3h-20v-92.6h20
			v17.8c6.6-12.9,18.5-18.5,34.1-18.5C534.3,1156.2,547.2,1169.8,547.2,1191.9z"/>
		<path fill="#60257F" d="M650.3,1171.3l-11,12.9c-6.4-6.6-15.3-10.6-26.5-10.4c-16,0-27.5,12-27.5,29.6c0,17.6,11.5,29.6,27.5,29.6
			c11.7,0,21.1-3.8,27.3-11.1l11.1,11.1c-8.3,11-21.8,17.2-39.3,17.2c-27.5,0-46.6-19-46.6-46.8c0-28,19.1-47.2,46.6-47.2
			C628.8,1156.2,641.8,1161.6,650.3,1171.3z"/>
		<path fill="#60257F" d="M724,1238.2c-6.6,8.2-17.2,12.2-30.6,12.2c-20,0-32.6-12.4-32.6-28.7c0-16.9,12.7-27.7,35-27.9h28v-2.8
			c0-11.7-7.5-18.6-22.1-18.6c-8.9,0-18.1,3.1-27.3,9.4l-8.2-13.9c12.9-7.7,22.3-11.7,39.9-11.7c23.8,0,37.2,12.2,37.4,32.6
			l0.2,60.8H724V1238.2z M723.9,1216.9v-8.5h-25.1c-13,0-19.1,3.5-19.1,12.4c0,8.3,6.8,13.8,17.9,13.8
			C711.9,1234.5,722.8,1227,723.9,1216.9z"/>
		<path fill="#60257F" d="M790.6,1175.3c6.3-12.5,17.4-19.1,32-19.1v19.1c-18.6-1-30.4,9.9-32,25.8v48.4h-20v-92.6h20V1175.3z"/>
		<path fill="#60257F" d="M920.7,1210.9h-70c3.1,14.3,14.1,23.1,28.7,23.1c10.1,0,19.3-3.8,26.1-10.8l10.6,11.3
			c-9,9.9-22.3,15.7-38.3,15.7c-28.5,0-47.3-19-47.3-46.8c0-28,19.3-47,46.8-47.2C909.9,1156.2,923.1,1177.4,920.7,1210.9z
			 M903.3,1196.2c-0.7-15-10.6-24-25.8-24c-14.6,0-24.9,9.2-27.2,24H903.3z"/>
	</g>
</g>
</svg>
