<?xml version="1.0" encoding="utf-8"?>
<!-- Generator: Adobe Illustrator 16.0.0, SVG Export Plug-In . SVG Version: 6.00 Build 0)  -->
<!DOCTYPE svg PUBLIC "-//W3C//DTD SVG 1.1//EN" "http://www.w3.org/Graphics/SVG/1.1/DTD/svg11.dtd">
<svg version="1.1" id="Layer_1" xmlns="http://www.w3.org/2000/svg" xmlns:xlink="http://www.w3.org/1999/xlink" x="0px" y="0px"
	 width="1040.1px" height="1288.7px" viewBox="0 0 1040.1 1288.7" enable-background="new 0 0 1040.1 1288.7" xml:space="preserve">
<g>
	<g>
		<g>
			<g>
				<polygon fill="#D7DAE3" points="211,211.4 236.5,245.5 185.4,283.7 159.9,249.7 				"/>
				
					<rect x="279.1" y="139.2" transform="matrix(-0.5994 -0.8005 0.8005 -0.5994 343.4828 514.0339)" fill="#D7DAE3" width="42.6" height="63.8"/>
				<polygon fill="#D7DAE3" points="792.4,158.1 738.6,147.9 745.8,105.9 799.6,116.2 				"/>
				<polygon fill="#D7DAE3" points="619.9,84.5 682.8,95.2 675.7,137.1 612.8,126.4 				"/>
				<polygon fill="#D7DAE3" points="494.1,63 557,73.7 549.9,115.7 486.9,105 				"/>
				<polygon fill="#D7DAE3" points="373.5,735.4 404.7,791 367.6,811.8 336.4,756.2 				"/>
				<polygon fill="#D7DAE3" points="311,624 342.2,679.7 305.1,700.5 273.9,644.9 				"/>
				<polygon fill="#D7DAE3" points="628,828 648,865.6 591.6,895.6 571.6,858 				"/>
				<polygon fill="#D7DAE3" points="740.6,768.1 760.6,805.7 704.3,835.7 684.3,798.1 				"/>
				<polygon fill="#D7DAE3" points="853.3,708.1 873.3,745.7 817,775.7 797,738.1 				"/>
				<path fill="#D7DAE3" d="M855.1,219.3L855.1,219.3l-7.8-0.1c-27.7,0-66.3-25.2-66.3-66.3c0-45.6,26.7-76.3,66.3-76.3
					c47.2,0,76.3,34.4,76.3,66.3c0,29.4-8.5,50.9-25.3,63.7C883.6,218,866.5,219.3,855.1,219.3z M847.3,119.1
					c-20.7,0-23.7,21.2-23.7,33.8c0,16.4,18.9,23.8,23.7,23.8l7.8,0.1l0,0c5.7,0,12.9-0.4,17.4-3.9c5.5-4.3,8.6-14.9,8.6-30
					C881.1,134.9,870.9,119.1,847.3,119.1z"/>
				<path fill="#D7DAE3" d="M973.9,719.5L973.9,719.5l-7.8-0.1c-27.7,0-66.3-25.2-66.3-66.3c0-45.6,26.7-76.3,66.3-76.3
					c47.1,0,76.3,34.4,76.3,66.3c0,29.4-8.5,50.9-25.3,63.8C1002.4,718.2,985.4,719.5,973.9,719.5z M966.1,619.4
					c-20.7,0-23.8,21.1-23.8,33.8c0,16.4,18.9,23.8,23.8,23.8l7.8,0.1l0,0c5.7,0,12.9-0.4,17.4-3.9c5.6-4.2,8.6-14.9,8.6-30
					C999.9,635.1,989.7,619.4,966.1,619.4z"/>
				<path fill="#D7DAE3" d="M805,1040L805,1040l-7.8-0.1c-27.7,0-66.3-25.2-66.3-66.3c0-45.6,26.6-76.3,66.3-76.3
					c47.1,0,76.3,34.4,76.3,66.3c0,29.5-8.5,50.9-25.2,63.7C833.5,1038.6,816.5,1040,805,1040z M797.2,939.8
					c-20.7,0-23.8,21.1-23.8,33.8c0,16.4,18.9,23.7,23.8,23.7l7.8,0.1l0,0c5.7,0,12.9-0.5,17.4-3.9c5.5-4.2,8.6-14.9,8.6-30
					C831,955.5,820.8,939.8,797.2,939.8z"/>
				<path fill="#D7DAE3" d="M469.1,1008.2L469.1,1008.2l-7.8-0.1c-27.7,0-66.3-25.2-66.3-66.3c0-45.6,26.7-76.3,66.3-76.3
					c47.1,0,76.3,34.4,76.3,66.3c0,29.5-8.5,50.9-25.3,63.7C497.6,1006.9,480.6,1008.2,469.1,1008.2z M461.3,908
					c-19.6,0-23.8,18.4-23.8,33.8c0,16.4,18.9,23.8,23.8,23.8l7.8,0.1l0,0c5.7,0,12.9-0.5,17.4-3.9c5.5-4.3,8.6-14.9,8.6-30
					C495.1,923.8,484.9,908,461.3,908z"/>
				<path fill="#D7DAE3" d="M205.3,927.4L205.3,927.4l-7.8-0.1c-27.7,0-66.3-25.2-66.3-66.3c0-45.7,26.6-76.3,66.3-76.3
					c47.1,0,76.3,34.4,76.3,66.3c0,29.4-8.5,50.9-25.3,63.7C233.8,926,216.8,927.4,205.3,927.4z M197.6,827.2
					c-20.7,0-23.8,21.2-23.8,33.8c0,16.4,18.9,23.7,23.8,23.7l7.8,0.1l0,0c5.7,0,12.9-0.4,17.4-3.8c5.6-4.3,8.6-14.9,8.6-30
					C231.3,842.9,221.1,827.2,197.6,827.2z"/>
				<path fill="#D7DAE3" d="M264.7,662.4L264.7,662.4l-7.8-0.1c-27.7,0-66.3-25.2-66.3-66.3c0-45.6,26.7-76.3,66.3-76.3
					c47.1,0,76.3,34.4,76.3,66.3c0,29.4-8.5,50.9-25.2,63.7C293.2,661,276.2,662.4,264.7,662.4z M257,562.1
					c-20.7,0-23.8,21.2-23.8,33.8c0,16.4,18.9,23.7,23.8,23.7l7.8,0.1l0,0c5.7,0,12.9-0.4,17.4-3.9c5.5-4.3,8.6-14.9,8.6-30
					C290.7,577.9,280.5,562.1,257,562.1z"/>
				<path fill="#D7DAE3" d="M119.9,332.8l14.5-10.8l-25.5-34.1l-15.6,11.6C108.5,307.2,117.8,320.3,119.9,332.8z"/>
				<path fill="#D7DAE3" d="M73.3,414.6L73.3,414.6l-7.8-0.1c-27.7,0-66.3-25.2-66.3-66.3c0-45.6,26.6-76.3,66.3-76.3
					c47.1,0,76.3,34.4,76.3,66.3c0,29.5-8.5,50.9-25.3,63.8C101.7,413.3,84.7,414.6,73.3,414.6z M65.5,314.4
					c-20.7,0-23.8,21.2-23.8,33.8c0,16.4,18.9,23.8,23.8,23.8l7.8,0.1l0,0c5.7,0,12.9-0.4,17.4-3.9c5.5-4.3,8.6-14.9,8.6-30
					C99.2,330.1,89.1,314.4,65.5,314.4z"/>
				<path fill="#D7DAE3" d="M403.8,78.7c0-4.3,0.3-8.4,0.9-12.4l-40.5,30.3l25.5,34.1l27.9-20.9C409.8,102.4,403.8,92,403.8,78.7z"
					/>
				<path fill="#D7DAE3" d="M456.7,145.1L456.7,145.1l-7.8-0.1c-27.7,0-66.3-25.2-66.3-66.3c0-45.7,26.6-76.3,66.3-76.3
					c47.1,0,76.3,34.4,76.3,66.3c0,29.4-8.5,50.9-25.3,63.7C485.1,143.8,468.1,145.1,456.7,145.1z M448.9,44.9
					c-20.7,0-23.8,21.2-23.8,33.8c0,16.4,18.9,23.8,23.8,23.8l7.8,0.1l0,0c5.7,0,12.9-0.4,17.4-3.9c5.5-4.3,8.6-14.9,8.6-30
					C482.6,60.7,472.4,44.9,448.9,44.9z"/>
				<path fill="#D7DAE3" d="M197.6,805.9c14.1,0,25.7,4.2,34.6,10.3L267.2,641c-4,0.1-7.5-0.1-10.2-0.1c-8.2,0-20.7-4.5-30.5-13.3
					l-35.8,179C192.9,806.3,195.1,805.9,197.6,805.9z"/>
				<path fill="#D7DAE3" d="M458.6,887L436,846.7l-37.1,20.9l24,42.8C429.6,896.8,441.5,887.9,458.6,887z"/>
				<path fill="#D7DAE3" d="M417.3,950.7c-0.6-2.8-1-5.7-1-8.9c0-12.8,2.7-24.4,8-33.7L252.5,850c0,0.3,0.1,0.7,0.1,1
					c0,19.6-4.3,32.2-10.6,40.4L417.3,950.7z"/>
				<path fill="#D7DAE3" d="M516.4,931.8c0,1.4-0.1,2.6-0.2,4l19.1-10.2l-20-37.6l-18.4,9.8C509.4,907,516.4,920.2,516.4,931.8z"/>
				<path fill="#D7DAE3" d="M924.6,669.8L803.4,919.1c17,1.5,30,9,38.2,18.6l117-240.6C946.8,694.3,931.4,685.2,924.6,669.8z"/>
				<path fill="#D7DAE3" d="M463.7,108.7l-41.8,8.2l31.9,162.8c17.5,0.9,32.6,4.6,45.4,10.3L463.7,108.7z"/>
				<path fill="#D7DAE3" d="M297.2,555.6c9.6,8.8,14.8,20.2,14.8,30.3c0,3.5-0.2,6.8-0.4,9.9l87.1-39.7
					c-8.7-10.8-17.3-22.6-25.5-35.1L297.2,555.6z"/>
				<path fill="#D7DAE3" d="M329.6,390.1l-210.1-37.8c-3.6,27.2-17.6,36.5-31.2,39.5l129.3,175.5c6.1-14,17.5-23.6,34.2-25.3
					L147.6,400.6l186.2,33.5c-2.9-12.4-4.5-25.1-4.5-37.7C329.3,394.3,329.5,392.2,329.6,390.1z"/>
				<path fill="#D7DAE3" d="M451.6,887.8c3.1-0.6,6.3-1,9.7-1c12.9,0,23.7,3.4,32.2,8.7l27.2-235.7c-9.7-1.2-20.9-6.4-40.3-21.7
					L451.6,887.8z"/>
				<path fill="#D7DAE3" d="M759.6,940.8c7-13.1,19-21.7,36.4-22.1L600.4,615.4c-10.4,9.7-21.7,19.4-33,27.3L759.6,940.8z"/>
				<polygon fill="#D7DAE3" points="529.5,584 530,579.8 527.7,581.2 				"/>
				<path fill="#D7DAE3" d="M890.9,185.7c-11.8,14.2-29.8,13.9-40.5,13.7l90.4,387.2L701,483.3c-6.2,13-13.3,25.5-20.9,37.3
					l245.7,105.9c6.4-16.9,19.6-28.5,40.4-28.5c8.2,0,15.5,1.5,21.9,3.8L890.9,185.7z"/>
				<path fill="#D7DAE3" d="M703.8,332.4l130.7-135.7c-12-4.4-25.4-14.4-30.3-29.9L674.3,301.7C685.9,310.1,695.9,320.4,703.8,332.4
					z"/>
			</g>
			<path fill="#2C9CD2" d="M605.9,316.6c-66.5,0-79.8,58.5-79.8,58.5s-10.6-58.5-79.8-58.5c-44.1,0-79.8,35.7-79.8,79.8
				c0,104.2,145.4,226.5,159.6,226.5c19.5,0,159.6-123.7,159.6-226.5C685.7,352.3,650,316.6,605.9,316.6z"/>
		</g>
	</g>
	<g>
		<path fill="#2C9CD2" d="M216,1205.3c0,28-19.8,47.2-48.4,47.2c-28.8,0-48.6-19.2-48.6-47.2c0-28.1,19.7-47.2,48.6-47.2
			C196.2,1158.2,216,1177.2,216,1205.3z M139.1,1205.5c0,18,11.7,30.2,28.5,30.2c16.6,0,28.3-12.2,28.3-30.2
			c0-17.8-11.7-30.1-28.3-30.1C150.8,1175.5,139.1,1187.7,139.1,1205.5z"/>
		<path fill="#2C9CD2" d="M334.9,1205.7c0,27.8-17.5,46.8-44,46.8c-14.9,0-26-5.9-32.9-16.8v50h-20.1v-126.9H258v16.1
			c6.8-10.8,18-16.8,32.5-16.8C316.9,1158.2,334.9,1177.4,334.9,1205.7z M314.6,1205c0-17.3-11.7-30.1-28.3-30.1
			c-16.6,0-28.3,12.6-28.3,30.1c0,18,11.7,30.4,28.3,30.4C302.9,1235.4,314.6,1222.8,314.6,1205z"/>
		<path fill="#2C9CD2" d="M437.7,1213.1h-70.2c3.1,14.3,14.2,23.2,28.8,23.2c10.1,0,19.4-3.8,26.2-10.8l10.7,11.4
			c-9.1,10-22.4,15.7-38.4,15.7c-28.7,0-47.5-19-47.5-47c0-28.1,19.4-47.2,47-47.4C426.9,1158.2,440.1,1179.5,437.7,1213.1z
			 M420.2,1198.4c-0.7-15-10.7-24.1-25.9-24.1c-14.7,0-25,9.3-27.3,24.1H420.2z"/>
		<path fill="#2C9CD2" d="M547.7,1194v57.9h-20.1v-52.2c0-14-8.4-22.5-22.4-22.5c-15.4,0.2-25,10.8-26.4,25.3v49.5h-20.1v-93h20.1
			v17.8c6.6-12.9,18.5-18.5,34.3-18.5C534.7,1158.2,547.7,1171.8,547.7,1194z"/>
		<path fill="#D7DAE3" d="M651.2,1173.4l-11,12.9c-6.5-6.6-15.4-10.7-26.5-10.5c-16.1,0-27.6,12-27.6,29.7
			c0,17.7,11.5,29.7,27.6,29.7c11.7,0,21.1-3.8,27.4-11.2l11.2,11.2c-8.4,11-21.9,17.3-39.5,17.3c-27.6,0-46.8-19-46.8-47
			c0-28.1,19.2-47.4,46.8-47.4C629.5,1158.2,642.6,1163.6,651.2,1173.4z"/>
		<path fill="#D7DAE3" d="M725.1,1240.5c-6.6,8.2-17.3,12.2-30.7,12.2c-20.1,0-32.7-12.4-32.7-28.8c0-16.9,12.8-27.8,35.1-27.9H725
			v-2.8c0-11.7-7.5-18.7-22.2-18.7c-8.9,0-18.2,3.2-27.4,9.4l-8.2-14c12.9-7.7,22.4-11.7,40-11.7c23.9,0,37.4,12.2,37.6,32.7l0.2,61
			h-19.7V1240.5z M725,1219.1v-8.5h-25.2c-13.1,0-19.2,3.5-19.2,12.4c0,8.4,6.8,13.8,18,13.8C712.9,1236.8,723.9,1229.3,725,1219.1z
			"/>
		<path fill="#D7DAE3" d="M792,1177.4c6.3-12.6,17.5-19.2,32.2-19.2v19.2c-18.7-1.1-30.6,10-32.2,25.9v48.6h-20.1v-93H792V1177.4z"
			/>
		<path fill="#D7DAE3" d="M922.5,1213.1h-70.3c3.2,14.3,14.2,23.2,28.8,23.2c10.1,0,19.4-3.8,26.2-10.8l10.7,11.4
			c-9.1,10-22.4,15.7-38.4,15.7c-28.7,0-47.5-19-47.5-47c0-28.1,19.4-47.2,47-47.4C911.7,1158.2,925,1179.5,922.5,1213.1z
			 M905.1,1198.4c-0.7-15-10.7-24.1-25.9-24.1c-14.7,0-25,9.3-27.3,24.1H905.1z"/>
	</g>
</g>
</svg>
