<?xml version="1.0" encoding="utf-8"?>
<!-- Generator: Adobe Illustrator 16.0.0, SVG Export Plug-In . SVG Version: 6.00 Build 0)  -->
<!DOCTYPE svg PUBLIC "-//W3C//DTD SVG 1.1//EN" "http://www.w3.org/Graphics/SVG/1.1/DTD/svg11.dtd">
<svg version="1.1" id="Layer_1" xmlns="http://www.w3.org/2000/svg" xmlns:xlink="http://www.w3.org/1999/xlink" x="0px" y="0px"
	 width="483px" height="23.7px" viewBox="0 0 483 23.7" enable-background="new 0 0 483 23.7" xml:space="preserve">
<pattern  x="-179.2" y="-286" width="40" height="40" patternUnits="userSpaceOnUse" id="a" viewBox="0 -40 40 40" overflow="visible">
	<g>
		<polygon fill="none" points="0,0 40,0 40,-40 0,-40 		"/>
		<g>
			<polygon fill="#DBDCE6" points="20.1,0 20.1,0 20.1,0 			"/>
		</g>
		<g>
			<polygon fill="#DBDCE6" points="20.1,0 20.1,0 20.1,0 			"/>
		</g>
		<g>
			<g>
				<polygon fill="#DBDCE6" points="0,0 20,0 0,-20 				"/>
			</g>
			<g>
				<polygon fill="#DBDCE6" points="0,-40 0,-20 20,-40 				"/>
			</g>
			<g>
				<polygon fill="#FFFFFF" points="40,0 40,-20 20,0 				"/>
			</g>
			<g>
				<polygon fill="#FFFFFF" points="20,-40 40,-20 40,-40 				"/>
			</g>
			<g>
				<polygon fill="#DBDCE6" points="0,-20 0,-20 0,-20 				"/>
			</g>
			<g>
				<polygon fill="#DBDCE6" points="20,-40 20,-40 20,-40 				"/>
			</g>
			<g>
				<polygon fill="#DBDCE6" points="20,-40 20,-40 20,-40 				"/>
			</g>
			<g>
				<polygon fill="#DBDCE6" points="20,-40 20,0 20,0 40,-20 20,-40 				"/>
			</g>
			<g>
				<polygon fill="#FFFFFF" points="20,-40 20,-40 0,-20 0,-20 20,0 20,0 				"/>
			</g>
		</g>
	</g>
</pattern>
<pattern  id="SVGID_1_" xlink:href="#a" patternTransform="matrix(1.0626 0 0 1.0978 381.8843 562.3735)">
</pattern>
<rect x="0.3" fill="url(#SVGID_1_)" width="482.8" height="23.7"/>
</svg>
