<?xml version="1.0" encoding="utf-8"?>
<!-- Generator: Adobe Illustrator 16.0.0, SVG Export Plug-In . SVG Version: 6.00 Build 0)  -->
<!DOCTYPE svg PUBLIC "-//W3C//DTD SVG 1.1//EN" "http://www.w3.org/Graphics/SVG/1.1/DTD/svg11.dtd">
<svg version="1.1" id="Layer_1" xmlns="http://www.w3.org/2000/svg" xmlns:xlink="http://www.w3.org/1999/xlink" x="0px" y="0px"
	 width="249.8px" height="250px" viewBox="0 0 249.8 250" enable-background="new 0 0 249.8 250" xml:space="preserve">
<g>
	<circle fill="#FFFFFF" cx="125" cy="125" r="125"/>
	<g>
		<g>
			
				<rect x="57.1" y="64.6" transform="matrix(-0.5993 -0.8005 0.8005 -0.5993 41.18 162.4865)" fill="#60257E" width="8.4" height="12.6"/>
			
				<rect x="77.2" y="49.5" transform="matrix(-0.5996 -0.8003 0.8003 -0.5996 85.6062 154.4649)" fill="#60257E" width="8.4" height="12.6"/>
			<polygon fill="#60257E" points="178.7,53.3 168,51.2 169.5,42.9 180.1,45 			"/>
			
				<rect x="143.8" y="39.7" transform="matrix(-0.9858 -0.168 0.168 -0.9858 290.6838 112.4204)" fill="#60257E" width="12.6" height="8.4"/>
			
				<rect x="118.9" y="35.5" transform="matrix(-0.9858 -0.1679 0.1679 -0.9858 242.0236 99.8019)" fill="#60257E" width="12.6" height="8.4"/>
			
				<rect x="89" y="170.7" transform="matrix(-0.4895 -0.872 0.872 -0.4895 -10.551 343.5893)" fill="#60257E" width="12.6" height="8.4"/>
			
				<rect x="76.7" y="148.7" transform="matrix(-0.4894 -0.872 0.872 -0.4894 -9.7651 300.057)" fill="#60257E" width="12.6" height="8.4"/>
			
				<rect x="138.4" y="186" transform="matrix(-0.47 -0.8827 0.8827 -0.47 39.848 408.5392)" fill="#60257E" width="8.4" height="12.6"/>
			
				<rect x="160.6" y="174.2" transform="matrix(-0.4699 -0.8827 0.8827 -0.4699 83.0065 410.7889)" fill="#60257E" width="8.4" height="12.6"/>
			
				<rect x="182.9" y="162.3" transform="matrix(-0.4696 -0.8829 0.8829 -0.4696 126.1301 413.0034)" fill="#60257E" width="8.4" height="12.6"/>
			<path fill="#60257E" d="M191.1,65.4L191.1,65.4l-1.5,0c-5.5,0-13.1-5-13.1-13.1c0-9,5.3-15.1,13.1-15.1c9.3,0,15.1,6.8,15.1,13.1
				c0,5.8-1.7,10.1-5,12.6C196.7,65.1,193.3,65.4,191.1,65.4z M189.5,45.6c-4.1,0-4.7,4.2-4.7,6.7c0,3.2,3.7,4.7,4.7,4.7l1.5,0l0,0
				c1.1,0,2.5-0.1,3.4-0.8c1.1-0.8,1.7-2.9,1.7-5.9C196.2,48.7,194.2,45.6,189.5,45.6z"/>
			<path fill="#60257E" d="M214.5,164.2L214.5,164.2l-1.5,0c-5.5,0-13.1-5-13.1-13.1c0-9,5.3-15.1,13.1-15.1
				c9.3,0,15.1,6.8,15.1,13.1c0,5.8-1.7,10.1-5,12.6C220.2,163.9,216.8,164.2,214.5,164.2z M213,144.4c-4.1,0-4.7,4.2-4.7,6.7
				c0,3.2,3.7,4.7,4.7,4.7l1.5,0l0,0c1.1,0,2.5-0.1,3.4-0.8c1.1-0.8,1.7-2.9,1.7-5.9C219.7,147.5,217.7,144.4,213,144.4z"/>
			<path fill="#60257E" d="M181.2,227.5L181.2,227.5l-1.5,0c-5.5,0-13.1-5-13.1-13.1c0-9,5.3-15.1,13.1-15.1
				c9.3,0,15.1,6.8,15.1,13.1c0,5.8-1.7,10.1-5,12.6C186.8,227.3,183.4,227.5,181.2,227.5z M179.6,207.7c-4.1,0-4.7,4.2-4.7,6.7
				c0,3.2,3.7,4.7,4.7,4.7l1.5,0l0,0c1.1,0,2.5-0.1,3.4-0.8c1.1-0.8,1.7-2.9,1.7-5.9C186.3,210.8,184.3,207.7,179.6,207.7z"/>
			<path fill="#60257E" d="M114.8,221.2L114.8,221.2l-1.5,0c-5.5,0-13.1-5-13.1-13.1c0-9,5.3-15.1,13.1-15.1
				c9.3,0,15.1,6.8,15.1,13.1c0,5.8-1.7,10.1-5,12.6C120.4,221,117.1,221.2,114.8,221.2z M113.2,201.4c-3.9,0-4.7,3.6-4.7,6.7
				c0,3.2,3.7,4.7,4.7,4.7l1.5,0l0,0c1.1,0,2.5-0.1,3.4-0.8c1.1-0.8,1.7-2.9,1.7-5.9C119.9,204.6,117.9,201.4,113.2,201.4z"/>
			<path fill="#60257E" d="M62.7,205.3L62.7,205.3l-1.5,0c-5.5,0-13.1-5-13.1-13.1c0-9,5.3-15.1,13.1-15.1c9.3,0,15.1,6.8,15.1,13.1
				c0,5.8-1.7,10.1-5,12.6C68.3,205,64.9,205.3,62.7,205.3z M61.1,185.5c-4.1,0-4.7,4.2-4.7,6.7c0,3.2,3.7,4.7,4.7,4.7l1.5,0l0,0
				c1.1,0,2.5-0.1,3.4-0.8c1.1-0.8,1.7-2.9,1.7-5.9C67.8,188.6,65.8,185.5,61.1,185.5z"/>
			<path fill="#60257E" d="M74.4,152.9L74.4,152.9l-1.5,0c-5.5,0-13.1-5-13.1-13.1c0-9,5.3-15.1,13.1-15.1c9.3,0,15.1,6.8,15.1,13.1
				c0,5.8-1.7,10.1-5,12.6C80,152.6,76.7,152.9,74.4,152.9z M72.9,133.1c-4.1,0-4.7,4.2-4.7,6.7c0,3.2,3.7,4.7,4.7,4.7l1.5,0l0,0
				c1.1,0,2.5-0.1,3.4-0.8c1.1-0.8,1.7-2.9,1.7-5.9C79.5,136.2,77.5,133.1,72.9,133.1z"/>
			<path fill="#60257E" d="M45.8,87.8l2.9-2.1l-5-6.7l-3.1,2.3C43.5,82.7,45.4,85.3,45.8,87.8z"/>
			<path fill="#60257E" d="M36.6,103.9L36.6,103.9l-1.5,0c-5.5,0-13.1-5-13.1-13.1c0-9,5.3-15.1,13.1-15.1c9.3,0,15.1,6.8,15.1,13.1
				c0,5.8-1.7,10.1-5,12.6C42.2,103.7,38.8,103.9,36.6,103.9z M35,84.1c-4.1,0-4.7,4.2-4.7,6.7c0,3.2,3.7,4.7,4.7,4.7l1.5,0l0,0
				c1.1,0,2.5-0.1,3.4-0.8c1.1-0.8,1.7-2.9,1.7-5.9C41.7,87.2,39.7,84.1,35,84.1z"/>
			<path fill="#60257E" d="M101.9,37.6c0-0.8,0.1-1.7,0.2-2.4l-8,6l5,6.7l5.5-4.1C103.1,42.3,101.9,40.2,101.9,37.6z"/>
			<path fill="#60257E" d="M112.3,50.7L112.3,50.7l-1.5,0c-5.5,0-13.1-5-13.1-13.1c0-9,5.3-15.1,13.1-15.1c9.3,0,15.1,6.8,15.1,13.1
				c0,5.8-1.7,10.1-5,12.6C117.9,50.4,114.6,50.7,112.3,50.7z M110.8,30.9c-4.1,0-4.7,4.2-4.7,6.7c0,3.2,3.7,4.7,4.7,4.7l1.5,0l0,0
				c1.1,0,2.5-0.1,3.4-0.8c1.1-0.8,1.7-2.9,1.7-5.9C117.5,34,115.4,30.9,110.8,30.9z"/>
			<path fill="#60257E" d="M61.1,181.3c2.8,0,5.1,0.8,6.8,2l6.9-34.6c-0.8,0-1.5,0-2,0c-1.6,0-4.1-0.9-6-2.6l-7.1,35.4
				C60.2,181.3,60.6,181.3,61.1,181.3z"/>
			<path fill="#60257E" d="M112.7,197.3l-4.5-8l-7.3,4.1l4.8,8.5C107,199.2,109.3,197.5,112.7,197.3z"/>
			<path fill="#60257E" d="M104.5,209.9c-0.1-0.6-0.2-1.1-0.2-1.8c0-2.5,0.5-4.8,1.6-6.7L72,190c0,0.1,0,0.1,0,0.2
				c0,3.9-0.9,6.4-2.1,8L104.5,209.9z"/>
			<path fill="#60257E" d="M124.1,206.1c0,0.3,0,0.5,0,0.8l3.8-2l-4-7.4l-3.6,1.9C122.8,201.2,124.1,203.8,124.1,206.1z"/>
			<path fill="#60257E" d="M204.8,154.4l-24,49.2c3.4,0.3,5.9,1.8,7.6,3.7l23.1-47.5C209.2,159.2,206.1,157.4,204.8,154.4z"/>
			<path fill="#60257E" d="M113.7,43.5l-8.3,1.6l6.3,32.2c3.5,0.2,6.4,0.9,9,2L113.7,43.5z"/>
			<path fill="#60257E" d="M80.8,131.8c1.9,1.7,2.9,4,2.9,6c0,0.7,0,1.3-0.1,1.9l17.2-7.8c-1.7-2.1-3.4-4.5-5-6.9L80.8,131.8z"/>
			<path fill="#60257E" d="M87.2,99.1l-41.5-7.5c-0.7,5.4-3.5,7.2-6.2,7.8l25.5,34.7c1.2-2.8,3.5-4.7,6.8-5l-20.6-28l36.8,6.6
				c-0.6-2.5-0.9-5-0.9-7.5C87.2,99.9,87.2,99.5,87.2,99.1z"/>
			<path fill="#60257E" d="M111.3,197.4c0.6-0.1,1.2-0.2,1.9-0.2c2.5,0,4.7,0.7,6.4,1.7l5.4-46.6c-1.9-0.2-4.1-1.3-8-4.3
				L111.3,197.4z"/>
			<path fill="#60257E" d="M172.2,207.9c1.4-2.6,3.8-4.3,7.2-4.4l-38.7-59.9c-2.1,1.9-4.3,3.8-6.5,5.4L172.2,207.9z"/>
			<polygon fill="#60257E" points="126.7,137.4 126.8,136.6 126.4,136.9 			"/>
			<path fill="#60257E" d="M198.1,58.7c-2.3,2.8-5.9,2.8-8,2.7l17.9,76.5l-47.4-20.4c-1.2,2.6-2.6,5-4.1,7.4l48.5,20.9
				c1.3-3.3,3.9-5.6,8-5.6c1.6,0,3.1,0.3,4.3,0.8L198.1,58.7z"/>
			<path fill="#60257E" d="M161.2,87.7L187,60.9c-2.4-0.9-5-2.8-6-5.9l-25.7,26.6C157.6,83.3,159.6,85.3,161.2,87.7z"/>
		</g>
		<path fill="#33A6DD" d="M141.8,84.6c-13.1,0-15.8,11.6-15.8,11.6s-2.1-11.6-15.8-11.6c-8.7,0-15.8,7.1-15.8,15.8
			c0,20.6,28.7,44.8,31.5,44.8c3.9,0,31.5-24.4,31.5-44.8C157.6,91.6,150.5,84.6,141.8,84.6z"/>
	</g>
</g>
</svg>
